<?xml version="1.0" encoding="UTF-8" standalone="no"?>
<!DOCTYPE svg PUBLIC "-//W3C//DTD SVG 1.1//EN"
 "http://www.w3.org/Graphics/SVG/1.1/DTD/svg11.dtd">
<!-- Generated by graphviz version 2.42.4 (0)
 -->
<!-- Title: compiler_explorer Pages: 1 -->
<svg width="1882pt" height="680pt"
 viewBox="0.00 0.00 1882.00 680.00" xmlns="http://www.w3.org/2000/svg" xmlns:xlink="http://www.w3.org/1999/xlink">
<g id="graph0" class="graph" transform="scale(1 1) rotate(0) translate(4 676)">
<title>compiler_explorer</title>
<polygon fill="white" stroke="transparent" points="-4,4 -4,-676 1878,-676 1878,4 -4,4"/>
<g id="clust1" class="cluster">
<title>cluster_ce_nodes</title>
<polygon fill="#99dd99" stroke="#99dd99" points="69,-161 69,-399 640,-399 640,-161 69,-161"/>
<text text-anchor="middle" x="354.5" y="-383.8" font-family="Times,serif" font-size="14.00">Production</text>
</g>
<g id="clust2" class="cluster">
<title>cluster_ce_nodes_linux</title>
<polygon fill="#ad99dd" stroke="#ad99dd" points="271,-293 271,-368 632,-368 632,-293 271,-293"/>
<text text-anchor="middle" x="451.5" y="-352.8" font-family="Times,serif" font-size="14.00">Linux</text>
</g>
<g id="clust3" class="cluster">
<title>cluster_ce_nodes_win</title>
<polygon fill="#cd99dd" stroke="#cd99dd" points="77,-169 77,-244 244,-244 244,-169 77,-169"/>
<text text-anchor="middle" x="160.5" y="-228.8" font-family="Times,serif" font-size="14.00">Windows</text>
</g>
<g id="clust4" class="cluster">
<title>cluster_ce_nodes_arm</title>
<polygon fill="#99ddda" stroke="#99ddda" points="271,-169 271,-244 438,-244 438,-169 271,-169"/>
<text text-anchor="middle" x="354.5" y="-228.8" font-family="Times,serif" font-size="14.00">ARM</text>
</g>
<g id="clust5" class="cluster">
<title>cluster_ce_nodes_gpu</title>
<polygon fill="#74c974" stroke="#74c974" points="465,-169 465,-244 632,-244 632,-169 465,-169"/>
<text text-anchor="middle" x="548.5" y="-228.8" font-family="Times,serif" font-size="14.00">GPU</text>
</g>
<g id="clust6" class="cluster">
<title>cluster_staging_nodes</title>
<polygon fill="#99dddd" stroke="#99dddd" points="1211,-293 1211,-368 1283,-368 1283,-293 1211,-293"/>
<text text-anchor="middle" x="1247" y="-352.8" font-family="Times,serif" font-size="14.00">Staging</text>
</g>
<g id="clust7" class="cluster">
<title>cluster_lambda</title>
<polygon fill="#44aa88" stroke="#44aa88" points="1414,-418 1414,-493 1624,-493 1624,-418 1414,-418"/>
<text text-anchor="middle" x="1519" y="-477.8" font-family="Times,serif" font-size="14.00">Lambda</text>
</g>
<g id="clust8" class="cluster">
<title>cluster_gh_actions</title>
<polygon fill="#7799ee" stroke="#7799ee" points="1408,-67 1408,-144 1718,-144 1718,-67 1408,-67"/>
<text text-anchor="middle" x="1563" y="-128.8" font-family="Times,serif" font-size="14.00">Actions Runners</text>
</g>
<!-- outside -->
<g id="node1" class="node">
<title>outside</title>
<defs>
<linearGradient id="l_0" gradientUnits="userSpaceOnUse" x1="1431.49" y1="-654" x2="1562.51" y2="-654" >
<stop offset="0" style="stop-color:#dddddd;stop-opacity:1.;"/>
<stop offset="1" style="stop-color:#aaaaaa;stop-opacity:1.;"/>
</linearGradient>
</defs>
<polygon fill="url(#l_0)" stroke="#dddddd" points="1562.51,-672 1458.3,-672 1431.49,-636 1535.7,-636 1562.51,-672"/>
<text text-anchor="middle" x="1497" y="-650.3" font-family="Times,serif" font-size="14.00">outside</text>
</g>
<!-- cloudfront -->
<g id="node2" class="node">
<title>cloudfront</title>
<defs>
<linearGradient id="l_1" gradientUnits="userSpaceOnUse" x1="1438.51" y1="-567" x2="1555.49" y2="-567" >
<stop offset="0" style="stop-color:#dddddd;stop-opacity:1.;"/>
<stop offset="1" style="stop-color:#aaaaaa;stop-opacity:1.;"/>
</linearGradient>
</defs>
<ellipse fill="url(#l_1)" stroke="#dddddd" cx="1497" cy="-567" rx="58.49" ry="18"/>
<text text-anchor="middle" x="1497" y="-563.3" font-family="Times,serif" font-size="14.00">cloudfront</text>
</g>
<!-- outside&#45;&gt;cloudfront -->
<g id="edge3" class="edge">
<title>outside&#45;&gt;cloudfront</title>
<path fill="none" stroke="black" d="M1497,-625.73C1497,-616.06 1497,-605.17 1497,-595.48"/>
<polygon fill="black" stroke="black" points="1493.5,-625.8 1497,-635.8 1500.5,-625.8 1493.5,-625.8"/>
<polygon fill="black" stroke="black" points="1500.5,-595.18 1497,-585.18 1493.5,-595.18 1500.5,-595.18"/>
<text text-anchor="middle" x="1516" y="-606.8" font-family="Times,serif" font-size="14.00">https</text>
</g>
<!-- alb -->
<g id="node4" class="node">
<title>alb</title>
<defs>
<linearGradient id="l_2" gradientUnits="userSpaceOnUse" x1="1145.5" y1="-444" x2="1348.5" y2="-444" >
<stop offset="0" style="stop-color:#dddddd;stop-opacity:1.;"/>
<stop offset="1" style="stop-color:#aaaaaa;stop-opacity:1.;"/>
</linearGradient>
</defs>
<polygon fill="url(#l_2)" stroke="#dddddd" points="1348.5,-462 1145.5,-462 1145.5,-426 1348.5,-426 1348.5,-462"/>
<text text-anchor="middle" x="1247" y="-440.3" font-family="Times,serif" font-size="14.00">Application Load Balancer</text>
</g>
<!-- cloudfront&#45;&gt;alb -->
<g id="edge4" class="edge">
<title>cloudfront&#45;&gt;alb</title>
<path fill="none" stroke="black" d="M1429.2,-563.33C1371.64,-559.68 1294.86,-551.1 1272,-531 1255.35,-516.36 1249.49,-491.35 1247.57,-472.06"/>
<polygon fill="black" stroke="black" points="1429.15,-566.83 1439.34,-563.94 1429.57,-559.85 1429.15,-566.83"/>
<polygon fill="black" stroke="black" points="1251.06,-471.76 1246.86,-462.04 1244.07,-472.26 1251.06,-471.76"/>
<text text-anchor="middle" x="1352" y="-519.8" font-family="Times,serif" font-size="14.00">dynamic content</text>
<text text-anchor="middle" x="1352" y="-504.8" font-family="Times,serif" font-size="14.00">compiler&#45;explorer.com</text>
</g>
<!-- gh_actions -->
<g id="node16" class="node">
<title>gh_actions</title>
<defs>
<linearGradient id="l_3" gradientUnits="userSpaceOnUse" x1="1519.5" y1="-444" x2="1616.5" y2="-444" >
<stop offset="0" style="stop-color:#dddddd;stop-opacity:1.;"/>
<stop offset="1" style="stop-color:#aaaaaa;stop-opacity:1.;"/>
</linearGradient>
</defs>
<polygon fill="url(#l_3)" stroke="#dddddd" points="1616.5,-462 1519.5,-462 1519.5,-426 1616.5,-426 1616.5,-462"/>
<text text-anchor="middle" x="1568" y="-440.3" font-family="Times,serif" font-size="14.00">GH Actions</text>
</g>
<!-- cloudfront&#45;&gt;gh_actions -->
<g id="edge7" class="edge">
<title>cloudfront&#45;&gt;gh_actions</title>
<path fill="none" stroke="black" d="M1512.02,-540.41C1524.02,-519.96 1540.77,-491.41 1552.81,-470.88"/>
<polygon fill="black" stroke="black" points="1508.91,-538.78 1506.87,-549.18 1514.95,-542.32 1508.91,-538.78"/>
<polygon fill="black" stroke="black" points="1555.94,-472.47 1557.98,-462.07 1549.9,-468.93 1555.94,-472.47"/>
<text text-anchor="middle" x="1574.5" y="-512.3" font-family="Times,serif" font-size="14.00">github.com</text>
</g>
<!-- lambda_stats -->
<g id="node17" class="node">
<title>lambda_stats</title>
<defs>
<linearGradient id="l_4" gradientUnits="userSpaceOnUse" x1="1422" y1="-444" x2="1476" y2="-444" >
<stop offset="0" style="stop-color:#dddddd;stop-opacity:1.;"/>
<stop offset="1" style="stop-color:#aaaaaa;stop-opacity:1.;"/>
</linearGradient>
</defs>
<polygon fill="url(#l_4)" stroke="#dddddd" points="1476,-462 1422,-462 1422,-426 1476,-426 1476,-462"/>
<text text-anchor="middle" x="1449" y="-440.3" font-family="Times,serif" font-size="14.00">Stats</text>
</g>
<!-- cloudfront&#45;&gt;lambda_stats -->
<g id="edge6" class="edge">
<title>cloudfront&#45;&gt;lambda_stats</title>
<path fill="none" stroke="black" d="M1460.55,-544.64C1456.32,-540.65 1452.6,-536.1 1450,-531 1440.85,-513.04 1441.07,-490.11 1443.33,-472.44"/>
<polygon fill="black" stroke="black" points="1458.63,-547.59 1468.59,-551.23 1463.07,-542.18 1458.63,-547.59"/>
<polygon fill="black" stroke="black" points="1446.84,-472.64 1444.93,-462.22 1439.92,-471.56 1446.84,-472.64"/>
<text text-anchor="middle" x="1468" y="-512.3" font-family="Times,serif" font-size="14.00">stats</text>
</g>
<!-- s3 -->
<g id="node23" class="node">
<title>s3</title>
<defs>
<linearGradient id="l_5" gradientUnits="userSpaceOnUse" x1="1213" y1="-21" x2="1267" y2="-21" >
<stop offset="0" style="stop-color:#dddddd;stop-opacity:1.;"/>
<stop offset="1" style="stop-color:#aaaaaa;stop-opacity:1.;"/>
</linearGradient>
</defs>
<polygon fill="url(#l_5)" stroke="#dddddd" points="1267,-37 1264,-41 1243,-41 1240,-37 1213,-37 1213,-1 1267,-1 1267,-37"/>
<text text-anchor="middle" x="1240" y="-15.3" font-family="Times,serif" font-size="14.00">s3</text>
</g>
<!-- cloudfront&#45;&gt;s3 -->
<g id="edge5" class="edge">
<title>cloudfront&#45;&gt;s3</title>
<path fill="none" stroke="black" d="M1565.33,-564.83C1647.64,-559.38 1775,-536.21 1775,-445 1775,-445 1775,-445 1775,-93 1775,-42.72 1399.31,-25.45 1277.58,-21.17"/>
<polygon fill="black" stroke="black" points="1565.05,-561.34 1555.28,-565.43 1565.47,-568.33 1565.05,-561.34"/>
<polygon fill="black" stroke="black" points="1277.38,-17.66 1267.27,-20.82 1277.14,-24.66 1277.38,-17.66"/>
<text text-anchor="middle" x="1824.5" y="-270.8" font-family="Times,serif" font-size="14.00">static content</text>
<text text-anchor="middle" x="1824.5" y="-255.8" font-family="Times,serif" font-size="14.00">ce&#45;cdn.net</text>
</g>
<!-- sqs -->
<g id="node3" class="node">
<title>sqs</title>
<defs>
<linearGradient id="l_6" gradientUnits="userSpaceOnUse" x1="1609" y1="-319" x2="1663" y2="-319" >
<stop offset="0" style="stop-color:#dddddd;stop-opacity:1.;"/>
<stop offset="1" style="stop-color:#aaaaaa;stop-opacity:1.;"/>
</linearGradient>
</defs>
<ellipse fill="url(#l_6)" stroke="#dddddd" cx="1636" cy="-319" rx="27" ry="18"/>
<text text-anchor="middle" x="1636" y="-315.3" font-family="Times,serif" font-size="14.00">sqs</text>
</g>
<!-- action_runner_1 -->
<g id="node18" class="node">
<title>action_runner_1</title>
<defs>
<linearGradient id="l_7" gradientUnits="userSpaceOnUse" x1="1640.5" y1="-94" x2="1709.5" y2="-94" >
<stop offset="0" style="stop-color:#dddddd;stop-opacity:1.;"/>
<stop offset="1" style="stop-color:#aaaaaa;stop-opacity:1.;"/>
</linearGradient>
</defs>
<polygon fill="url(#l_7)" stroke="#dddddd" points="1709.5,-113 1640.5,-113 1640.5,-75 1709.5,-75 1709.5,-113"/>
<text text-anchor="middle" x="1675" y="-97.8" font-family="Times,serif" font-size="14.00">Runner</text>
<text text-anchor="middle" x="1675" y="-82.8" font-family="Times,serif" font-size="14.00">EC2</text>
</g>
<!-- sqs&#45;&gt;action_runner_1 -->
<g id="edge2" class="edge">
<title>sqs&#45;&gt;action_runner_1</title>
<path fill="none" stroke="black" d="M1640.72,-291C1646.63,-257.24 1656.9,-198.49 1664.67,-154.09"/>
<polygon fill="black" stroke="black" points="1637.27,-290.42 1639,-300.87 1644.17,-291.62 1637.27,-290.42"/>
<polygon fill="black" stroke="black" points="1668.16,-154.45 1666.43,-144 1661.26,-153.25 1668.16,-154.45"/>
</g>
<!-- ce_node_1 -->
<g id="node5" class="node">
<title>ce_node_1</title>
<defs>
<linearGradient id="l_8" gradientUnits="userSpaceOnUse" x1="570" y1="-319" x2="624" y2="-319" >
<stop offset="0" style="stop-color:#dddddd;stop-opacity:1.;"/>
<stop offset="1" style="stop-color:#aaaaaa;stop-opacity:1.;"/>
</linearGradient>
</defs>
<polygon fill="url(#l_8)" stroke="#dddddd" points="624,-337 570,-337 570,-301 624,-301 624,-337"/>
<text text-anchor="middle" x="597" y="-315.3" font-family="Times,serif" font-size="14.00">EC2</text>
</g>
<!-- alb&#45;&gt;ce_node_1 -->
<g id="edge8" class="edge">
<title>alb&#45;&gt;ce_node_1</title>
<path fill="none" stroke="black" d="M1147.12,-424.1C1007.4,-397.66 758.56,-350.57 650.05,-330.04"/>
<polygon fill="black" stroke="black" points="1146.49,-427.54 1156.96,-425.96 1147.79,-420.66 1146.49,-427.54"/>
<polygon fill="black" stroke="black" points="650.47,-326.56 640,-328.14 649.17,-333.43 650.47,-326.56"/>
</g>
<!-- staging_node_1 -->
<g id="node15" class="node">
<title>staging_node_1</title>
<defs>
<linearGradient id="l_9" gradientUnits="userSpaceOnUse" x1="1220" y1="-319" x2="1274" y2="-319" >
<stop offset="0" style="stop-color:#dddddd;stop-opacity:1.;"/>
<stop offset="1" style="stop-color:#aaaaaa;stop-opacity:1.;"/>
</linearGradient>
</defs>
<polygon fill="url(#l_9)" stroke="#dddddd" points="1274,-337 1220,-337 1220,-301 1274,-301 1274,-337"/>
<text text-anchor="middle" x="1247" y="-315.3" font-family="Times,serif" font-size="14.00">EC2</text>
</g>
<!-- alb&#45;&gt;staging_node_1 -->
<g id="edge9" class="edge">
<title>alb&#45;&gt;staging_node_1</title>
<path fill="none" stroke="black" d="M1247,-415.7C1247,-404.64 1247,-391.41 1247,-378.37"/>
<polygon fill="black" stroke="black" points="1243.5,-415.9 1247,-425.9 1250.5,-415.9 1243.5,-415.9"/>
<polygon fill="black" stroke="black" points="1250.5,-378 1247,-368 1243.5,-378 1250.5,-378"/>
</g>
<!-- ce_node_1_win -->
<g id="node9" class="node">
<title>ce_node_1_win</title>
<defs>
<linearGradient id="l_10" gradientUnits="userSpaceOnUse" x1="182" y1="-195" x2="236" y2="-195" >
<stop offset="0" style="stop-color:#dddddd;stop-opacity:1.;"/>
<stop offset="1" style="stop-color:#aaaaaa;stop-opacity:1.;"/>
</linearGradient>
</defs>
<polygon fill="url(#l_10)" stroke="#dddddd" points="236,-213 182,-213 182,-177 236,-177 236,-213"/>
<text text-anchor="middle" x="209" y="-191.3" font-family="Times,serif" font-size="14.00">EC2</text>
</g>
<!-- ce_node_1&#45;&gt;ce_node_1_win -->
<g id="edge25" class="edge">
<title>ce_node_1&#45;&gt;ce_node_1_win</title>
<path fill="none" stroke="black" d="M538.05,-290.2C507.94,-282.57 495.28,-287.57 460,-282 371.06,-267.96 341.4,-284.54 261,-244 258.04,-242.51 255.13,-240.8 252.29,-238.93"/>
<polygon fill="black" stroke="black" points="537.43,-293.66 548,-293 539.32,-286.92 537.43,-293.66"/>
<polygon fill="black" stroke="black" points="254.15,-235.96 244,-232.94 250.05,-241.63 254.15,-235.96"/>
</g>
<!-- ce_node_1_arm -->
<g id="node11" class="node">
<title>ce_node_1_arm</title>
<defs>
<linearGradient id="l_11" gradientUnits="userSpaceOnUse" x1="376" y1="-195" x2="430" y2="-195" >
<stop offset="0" style="stop-color:#dddddd;stop-opacity:1.;"/>
<stop offset="1" style="stop-color:#aaaaaa;stop-opacity:1.;"/>
</linearGradient>
</defs>
<polygon fill="url(#l_11)" stroke="#dddddd" points="430,-213 376,-213 376,-177 430,-177 430,-213"/>
<text text-anchor="middle" x="403" y="-191.3" font-family="Times,serif" font-size="14.00">EC2</text>
</g>
<!-- ce_node_1&#45;&gt;ce_node_1_arm -->
<g id="edge27" class="edge">
<title>ce_node_1&#45;&gt;ce_node_1_arm</title>
<path fill="none" stroke="black" d="M539.38,-288.41C501.81,-269.05 459.01,-246.82 455,-244 451.95,-241.86 448.89,-239.55 445.87,-237.14"/>
<polygon fill="black" stroke="black" points="537.8,-291.54 548.29,-293 541,-285.31 537.8,-291.54"/>
<polygon fill="black" stroke="black" points="447.93,-234.29 438,-230.59 443.45,-239.67 447.93,-234.29"/>
</g>
<!-- ce_node_1_gpu -->
<g id="node13" class="node">
<title>ce_node_1_gpu</title>
<defs>
<linearGradient id="l_12" gradientUnits="userSpaceOnUse" x1="570" y1="-195" x2="624" y2="-195" >
<stop offset="0" style="stop-color:#dddddd;stop-opacity:1.;"/>
<stop offset="1" style="stop-color:#aaaaaa;stop-opacity:1.;"/>
</linearGradient>
</defs>
<polygon fill="url(#l_12)" stroke="#dddddd" points="624,-213 570,-213 570,-177 624,-177 624,-213"/>
<text text-anchor="middle" x="597" y="-191.3" font-family="Times,serif" font-size="14.00">EC2</text>
</g>
<!-- ce_node_1&#45;&gt;ce_node_1_gpu -->
<g id="edge26" class="edge">
<title>ce_node_1&#45;&gt;ce_node_1_gpu</title>
<path fill="none" stroke="black" d="M597,-290.65C597,-279.8 597,-266.89 597,-254.14"/>
<polygon fill="black" stroke="black" points="593.5,-283 597,-293 600.5,-283 593.5,-283"/>
<polygon fill="black" stroke="black" points="600.5,-254 597,-244 593.5,-254 600.5,-254"/>
</g>
<!-- admin -->
<g id="node21" class="node">
<title>admin</title>
<defs>
<linearGradient id="l_13" gradientUnits="userSpaceOnUse" x1="1032.5" y1="-195" x2="1093.5" y2="-195" >
<stop offset="0" style="stop-color:#ddddff;stop-opacity:1.;"/>
<stop offset="1" style="stop-color:#aaaacc;stop-opacity:1.;"/>
</linearGradient>
</defs>
<polygon fill="url(#l_13)" stroke="#ddddff" points="1093.5,-214 1032.5,-214 1032.5,-176 1093.5,-176 1093.5,-214"/>
<text text-anchor="middle" x="1063" y="-198.8" font-family="Times,serif" font-size="14.00">admin</text>
<text text-anchor="middle" x="1063" y="-183.8" font-family="Times,serif" font-size="14.00">EC2</text>
</g>
<!-- ce_node_1&#45;&gt;admin -->
<g id="edge21" class="edge">
<title>ce_node_1&#45;&gt;admin</title>
<path fill="none" stroke="black" d="M650.11,-317.26C710.82,-315.12 812.57,-307.6 896,-282 943.59,-267.4 993.8,-239.63 1026.59,-219.59"/>
<polygon fill="black" stroke="black" points="649.88,-313.76 640,-317.57 650.1,-320.76 649.88,-313.76"/>
<polygon fill="black" stroke="black" points="1028.7,-222.4 1035.36,-214.16 1025.02,-216.45 1028.7,-222.4"/>
</g>
<!-- efs -->
<g id="node22" class="node">
<title>efs</title>
<defs>
<linearGradient id="l_14" gradientUnits="userSpaceOnUse" x1="841" y1="-96" x2="895" y2="-96" >
<stop offset="0" style="stop-color:#dddddd;stop-opacity:1.;"/>
<stop offset="1" style="stop-color:#aaaaaa;stop-opacity:1.;"/>
</linearGradient>
</defs>
<polygon fill="url(#l_14)" stroke="#dddddd" points="895,-112 892,-116 871,-116 868,-112 841,-112 841,-76 895,-76 895,-112"/>
<text text-anchor="middle" x="868" y="-90.3" font-family="Times,serif" font-size="14.00">efs</text>
</g>
<!-- ce_node_1&#45;&gt;efs -->
<g id="edge22" class="edge">
<title>ce_node_1&#45;&gt;efs</title>
<path fill="none" stroke="black" d="M650.22,-315.13C704.83,-311.13 784.98,-301.97 808,-282 855.04,-241.18 865.5,-163.4 867.63,-122.19"/>
<polygon fill="black" stroke="black" points="649.73,-311.66 640,-315.84 650.22,-318.64 649.73,-311.66"/>
<polygon fill="black" stroke="black" points="871.13,-122.2 868.02,-112.07 864.14,-121.93 871.13,-122.2"/>
</g>
<!-- ce_node_1&#45;&gt;s3 -->
<g id="edge23" class="edge">
<title>ce_node_1&#45;&gt;s3</title>
<path fill="none" stroke="black" d="M648.61,-292.2C653.33,-289.03 657.88,-285.62 662,-282 751.09,-203.74 717.35,-126.37 820,-67 884.68,-29.59 1112.32,-21.96 1202.65,-20.4"/>
<polygon fill="black" stroke="black" points="646.58,-289.35 640,-297.65 650.32,-295.27 646.58,-289.35"/>
<polygon fill="black" stroke="black" points="1202.78,-23.9 1212.72,-20.24 1202.67,-16.9 1202.78,-23.9"/>
</g>
<!-- dynamodb -->
<g id="node24" class="node">
<title>dynamodb</title>
<defs>
<linearGradient id="l_15" gradientUnits="userSpaceOnUse" x1="1194.5" y1="-94" x2="1285.5" y2="-94" >
<stop offset="0" style="stop-color:#dddddd;stop-opacity:1.;"/>
<stop offset="1" style="stop-color:#aaaaaa;stop-opacity:1.;"/>
</linearGradient>
</defs>
<path fill="url(#l_15)" stroke="#dddddd" d="M1285.5,-108.73C1285.5,-110.53 1265.11,-112 1240,-112 1214.89,-112 1194.5,-110.53 1194.5,-108.73 1194.5,-108.73 1194.5,-79.27 1194.5,-79.27 1194.5,-77.47 1214.89,-76 1240,-76 1265.11,-76 1285.5,-77.47 1285.5,-79.27 1285.5,-79.27 1285.5,-108.73 1285.5,-108.73"/>
<path fill="none" stroke="#dddddd" d="M1285.5,-108.73C1285.5,-106.92 1265.11,-105.45 1240,-105.45 1214.89,-105.45 1194.5,-106.92 1194.5,-108.73"/>
<text text-anchor="middle" x="1240" y="-90.3" font-family="Times,serif" font-size="14.00">dynamodb</text>
</g>
<!-- ce_node_1&#45;&gt;dynamodb -->
<g id="edge24" class="edge">
<title>ce_node_1&#45;&gt;dynamodb</title>
<path fill="none" stroke="black" d="M650.07,-315.81C766.09,-310.18 1038.11,-292.08 1115,-244 1164.98,-212.74 1204.93,-154.82 1225.28,-121.14"/>
<polygon fill="black" stroke="black" points="649.82,-312.32 640,-316.29 650.15,-319.31 649.82,-312.32"/>
<polygon fill="black" stroke="black" points="1228.41,-122.71 1230.49,-112.33 1222.39,-119.15 1228.41,-122.71"/>
</g>
<!-- conan -->
<g id="node26" class="node">
<title>conan</title>
<defs>
<linearGradient id="l_16" gradientUnits="userSpaceOnUse" x1="683" y1="-19" x2="745" y2="-19" >
<stop offset="0" style="stop-color:#ddddff;stop-opacity:1.;"/>
<stop offset="1" style="stop-color:#aaaacc;stop-opacity:1.;"/>
</linearGradient>
</defs>
<polygon fill="url(#l_16)" stroke="#ddddff" points="745,-38 683,-38 683,0 745,0 745,-38"/>
<text text-anchor="middle" x="714" y="-22.8" font-family="Times,serif" font-size="14.00">Conan</text>
<text text-anchor="middle" x="714" y="-7.8" font-family="Times,serif" font-size="14.00">EC2</text>
</g>
<!-- ce_node_1&#45;&gt;conan -->
<g id="edge14" class="edge">
<title>ce_node_1&#45;&gt;conan</title>
<path fill="none" stroke="black" d="M644.19,-238.91C674.97,-168.99 696.84,-89.41 707.26,-48.06"/>
<polygon fill="black" stroke="black" points="640.9,-237.71 640,-248.27 647.28,-240.58 640.9,-237.71"/>
<polygon fill="black" stroke="black" points="710.68,-48.8 709.69,-38.25 703.89,-47.11 710.68,-48.8"/>
</g>
<!-- ce_node_2 -->
<g id="node6" class="node">
<title>ce_node_2</title>
<defs>
<linearGradient id="l_17" gradientUnits="userSpaceOnUse" x1="473" y1="-319" x2="527" y2="-319" >
<stop offset="0" style="stop-color:#dddddd;stop-opacity:1.;"/>
<stop offset="1" style="stop-color:#aaaaaa;stop-opacity:1.;"/>
</linearGradient>
</defs>
<polygon fill="url(#l_17)" stroke="#dddddd" points="527,-337 473,-337 473,-301 527,-301 527,-337"/>
<text text-anchor="middle" x="500" y="-315.3" font-family="Times,serif" font-size="14.00">EC2</text>
</g>
<!-- ce_node_3 -->
<g id="node7" class="node">
<title>ce_node_3</title>
<defs>
<linearGradient id="l_18" gradientUnits="userSpaceOnUse" x1="376" y1="-319" x2="430" y2="-319" >
<stop offset="0" style="stop-color:#dddddd;stop-opacity:1.;"/>
<stop offset="1" style="stop-color:#aaaaaa;stop-opacity:1.;"/>
</linearGradient>
</defs>
<polygon fill="url(#l_18)" stroke="#dddddd" points="430,-337 376,-337 376,-301 430,-301 430,-337"/>
<text text-anchor="middle" x="403" y="-315.3" font-family="Times,serif" font-size="14.00">EC2</text>
</g>
<!-- ce_node_4 -->
<g id="node8" class="node">
<title>ce_node_4</title>
<defs>
<linearGradient id="l_19" gradientUnits="userSpaceOnUse" x1="279" y1="-319" x2="333" y2="-319" >
<stop offset="0" style="stop-color:#dddddd;stop-opacity:1.;"/>
<stop offset="1" style="stop-color:#aaaaaa;stop-opacity:1.;"/>
</linearGradient>
</defs>
<polygon fill="url(#l_19)" stroke="#dddddd" points="333,-337 279,-337 279,-301 333,-301 333,-337"/>
<text text-anchor="middle" x="306" y="-315.3" font-family="Times,serif" font-size="14.00">EC2</text>
</g>
<!-- ce_node_2_win -->
<g id="node10" class="node">
<title>ce_node_2_win</title>
<defs>
<linearGradient id="l_20" gradientUnits="userSpaceOnUse" x1="85" y1="-195" x2="139" y2="-195" >
<stop offset="0" style="stop-color:#dddddd;stop-opacity:1.;"/>
<stop offset="1" style="stop-color:#aaaaaa;stop-opacity:1.;"/>
</linearGradient>
</defs>
<polygon fill="url(#l_20)" stroke="#dddddd" points="139,-213 85,-213 85,-177 139,-177 139,-213"/>
<text text-anchor="middle" x="112" y="-191.3" font-family="Times,serif" font-size="14.00">EC2</text>
</g>
<!-- ce_node_2_arm -->
<g id="node12" class="node">
<title>ce_node_2_arm</title>
<defs>
<linearGradient id="l_21" gradientUnits="userSpaceOnUse" x1="279" y1="-195" x2="333" y2="-195" >
<stop offset="0" style="stop-color:#dddddd;stop-opacity:1.;"/>
<stop offset="1" style="stop-color:#aaaaaa;stop-opacity:1.;"/>
</linearGradient>
</defs>
<polygon fill="url(#l_21)" stroke="#dddddd" points="333,-213 279,-213 279,-177 333,-177 333,-213"/>
<text text-anchor="middle" x="306" y="-191.3" font-family="Times,serif" font-size="14.00">EC2</text>
</g>
<!-- ce_node_2_gpu -->
<g id="node14" class="node">
<title>ce_node_2_gpu</title>
<defs>
<linearGradient id="l_22" gradientUnits="userSpaceOnUse" x1="473" y1="-195" x2="527" y2="-195" >
<stop offset="0" style="stop-color:#dddddd;stop-opacity:1.;"/>
<stop offset="1" style="stop-color:#aaaaaa;stop-opacity:1.;"/>
</linearGradient>
</defs>
<polygon fill="url(#l_22)" stroke="#dddddd" points="527,-213 473,-213 473,-177 527,-177 527,-213"/>
<text text-anchor="middle" x="500" y="-191.3" font-family="Times,serif" font-size="14.00">EC2</text>
</g>
<!-- staging_node_1&#45;&gt;admin -->
<g id="edge28" class="edge">
<title>staging_node_1&#45;&gt;admin</title>
<path fill="none" stroke="black" d="M1202.32,-288.38C1170.52,-267.29 1128.34,-239.32 1098.75,-219.71"/>
<polygon fill="black" stroke="black" points="1200.73,-291.52 1211,-294.13 1204.6,-285.69 1200.73,-291.52"/>
<polygon fill="black" stroke="black" points="1100.61,-216.74 1090.34,-214.13 1096.74,-222.57 1100.61,-216.74"/>
</g>
<!-- staging_node_1&#45;&gt;efs -->
<g id="edge29" class="edge">
<title>staging_node_1&#45;&gt;efs</title>
<path fill="none" stroke="black" d="M1209.6,-312.24C1160.92,-303.45 1074.58,-283.41 1011,-244 957.85,-211.05 910.74,-153.84 886.12,-120.72"/>
<polygon fill="black" stroke="black" points="1200.54,-311.33 1211,-312.99 1203.86,-305.17 1200.54,-311.33"/>
<polygon fill="black" stroke="black" points="888.8,-118.45 880.07,-112.45 883.15,-122.58 888.8,-118.45"/>
</g>
<!-- staging_node_1&#45;&gt;s3 -->
<g id="edge30" class="edge">
<title>staging_node_1&#45;&gt;s3</title>
<path fill="none" stroke="black" d="M1270.5,-292.75C1272.95,-289.3 1275.2,-285.68 1277,-282 1319.35,-195.31 1351.51,-152.6 1307,-67 1300.25,-54.02 1288.08,-43.87 1275.95,-36.38"/>
<polygon fill="black" stroke="black" points="1276.55,-284.58 1270.12,-293 1280.4,-290.43 1276.55,-284.58"/>
<polygon fill="black" stroke="black" points="1277.63,-33.31 1267.21,-31.4 1274.16,-39.39 1277.63,-33.31"/>
</g>
<!-- staging_node_1&#45;&gt;dynamodb -->
<g id="edge31" class="edge">
<title>staging_node_1&#45;&gt;dynamodb</title>
<path fill="none" stroke="black" d="M1246.14,-290.62C1244.8,-247.77 1242.21,-165.32 1240.86,-122.44"/>
<polygon fill="black" stroke="black" points="1241.65,-283.56 1246.46,-293 1248.59,-282.62 1241.65,-283.56"/>
<polygon fill="black" stroke="black" points="1244.35,-122.07 1240.54,-112.19 1237.36,-122.29 1244.35,-122.07"/>
</g>
<!-- gh_actions&#45;&gt;sqs -->
<g id="edge1" class="edge">
<title>gh_actions&#45;&gt;sqs</title>
<path fill="none" stroke="black" d="M1582.47,-416.82C1594.18,-395.64 1610.58,-365.99 1622.13,-345.1"/>
<polygon fill="black" stroke="black" points="1579.23,-415.45 1577.46,-425.9 1585.36,-418.84 1579.23,-415.45"/>
<polygon fill="black" stroke="black" points="1625.28,-346.62 1627.06,-336.17 1619.16,-343.23 1625.28,-346.62"/>
</g>
<!-- lambda_stats&#45;&gt;dynamodb -->
<g id="edge10" class="edge">
<title>lambda_stats&#45;&gt;dynamodb</title>
<path fill="none" stroke="black" d="M1433.36,-416.96C1394.62,-352.45 1294.5,-185.74 1255.69,-121.13"/>
<polygon fill="black" stroke="black" points="1424.67,-414.4 1434.64,-418 1429.09,-408.97 1424.67,-414.4"/>
<polygon fill="black" stroke="black" points="1258.58,-119.13 1250.43,-112.36 1252.58,-122.74 1258.58,-119.13"/>
</g>
<!-- action_runner_1&#45;&gt;s3 -->
<g id="edge11" class="edge">
<title>action_runner_1&#45;&gt;s3</title>
<path fill="none" stroke="black" d="M1609.32,-64.3C1489.49,-31.69 1344.72,-23.08 1277.57,-20.81"/>
<polygon fill="black" stroke="black" points="1608.43,-67.68 1619,-67 1610.31,-60.94 1608.43,-67.68"/>
<polygon fill="black" stroke="black" points="1277.33,-17.3 1267.22,-20.49 1277.11,-24.3 1277.33,-17.3"/>
</g>
<!-- action_runner_2 -->
<g id="node19" class="node">
<title>action_runner_2</title>
<defs>
<linearGradient id="l_23" gradientUnits="userSpaceOnUse" x1="1528.5" y1="-94" x2="1597.5" y2="-94" >
<stop offset="0" style="stop-color:#dddddd;stop-opacity:1.;"/>
<stop offset="1" style="stop-color:#aaaaaa;stop-opacity:1.;"/>
</linearGradient>
</defs>
<polygon fill="url(#l_23)" stroke="#dddddd" points="1597.5,-113 1528.5,-113 1528.5,-75 1597.5,-75 1597.5,-113"/>
<text text-anchor="middle" x="1563" y="-97.8" font-family="Times,serif" font-size="14.00">Runner</text>
<text text-anchor="middle" x="1563" y="-82.8" font-family="Times,serif" font-size="14.00">EC2</text>
</g>
<!-- action_runner_3 -->
<g id="node20" class="node">
<title>action_runner_3</title>
<defs>
<linearGradient id="l_24" gradientUnits="userSpaceOnUse" x1="1416.5" y1="-94" x2="1485.5" y2="-94" >
<stop offset="0" style="stop-color:#dddddd;stop-opacity:1.;"/>
<stop offset="1" style="stop-color:#aaaaaa;stop-opacity:1.;"/>
</linearGradient>
</defs>
<polygon fill="url(#l_24)" stroke="#dddddd" points="1485.5,-113 1416.5,-113 1416.5,-75 1485.5,-75 1485.5,-113"/>
<text text-anchor="middle" x="1451" y="-97.8" font-family="Times,serif" font-size="14.00">Runner</text>
<text text-anchor="middle" x="1451" y="-82.8" font-family="Times,serif" font-size="14.00">EC2</text>
</g>
<!-- admin&#45;&gt;efs -->
<g id="edge18" class="edge">
<title>admin&#45;&gt;efs</title>
<path fill="none" stroke="black" d="M1023.66,-171.2C1009.65,-164 993.5,-156.71 978,-152 951.84,-144.06 941.53,-156.09 917,-144 905.65,-138.41 895.35,-129.14 887.16,-120.16"/>
<polygon fill="black" stroke="black" points="1022.05,-174.31 1032.52,-175.89 1025.32,-168.12 1022.05,-174.31"/>
<polygon fill="black" stroke="black" points="889.7,-117.74 880.53,-112.44 884.39,-122.3 889.7,-117.74"/>
</g>
<!-- admin&#45;&gt;s3 -->
<g id="edge19" class="edge">
<title>admin&#45;&gt;s3</title>
<path fill="none" stroke="black" d="M1082.6,-167.77C1103.4,-140.86 1138.03,-98.57 1173,-67 1182.56,-58.37 1193.74,-49.96 1204.21,-42.7"/>
<polygon fill="black" stroke="black" points="1079.65,-165.87 1076.35,-175.94 1085.21,-170.13 1079.65,-165.87"/>
<polygon fill="black" stroke="black" points="1206.47,-45.4 1212.78,-36.89 1202.54,-39.6 1206.47,-45.4"/>
</g>
<!-- admin&#45;&gt;dynamodb -->
<g id="edge20" class="edge">
<title>admin&#45;&gt;dynamodb</title>
<path fill="none" stroke="black" d="M1102.85,-174.61C1120.81,-165.64 1142.16,-154.63 1161,-144 1175.65,-135.74 1191.45,-126.09 1205.05,-117.55"/>
<polygon fill="black" stroke="black" points="1101.2,-171.52 1093.81,-179.11 1104.32,-177.79 1101.2,-171.52"/>
<polygon fill="black" stroke="black" points="1207.06,-120.42 1213.64,-112.12 1203.31,-114.5 1207.06,-120.42"/>
</g>
<!-- build -->
<g id="node25" class="node">
<title>build</title>
<defs>
<linearGradient id="l_25" gradientUnits="userSpaceOnUse" x1="938" y1="-94" x2="1064" y2="-94" >
<stop offset="0" style="stop-color:#ddddff;stop-opacity:1.;"/>
<stop offset="1" style="stop-color:#aaaacc;stop-opacity:1.;"/>
</linearGradient>
</defs>
<polygon fill="url(#l_25)" stroke="#ddddff" points="1064,-113 938,-113 938,-75 1064,-75 1064,-113"/>
<text text-anchor="middle" x="1001" y="-97.8" font-family="Times,serif" font-size="14.00">Library Builder</text>
<text text-anchor="middle" x="1001" y="-82.8" font-family="Times,serif" font-size="14.00">EC2</text>
</g>
<!-- admin&#45;&gt;build -->
<g id="edge12" class="edge">
<title>admin&#45;&gt;build</title>
<path fill="none" stroke="black" d="M1046.3,-167.34C1037.46,-153.23 1026.64,-135.94 1017.79,-121.81"/>
<polygon fill="black" stroke="black" points="1043.35,-169.22 1051.63,-175.84 1049.29,-165.51 1043.35,-169.22"/>
<polygon fill="black" stroke="black" points="1020.57,-119.66 1012.3,-113.04 1014.64,-123.38 1020.57,-119.66"/>
</g>
<!-- build&#45;&gt;s3 -->
<g id="edge13" class="edge">
<title>build&#45;&gt;s3</title>
<path fill="none" stroke="black" d="M1053.97,-71.26C1067.86,-65.93 1082.89,-60.48 1097,-56 1132.43,-44.76 1173.66,-34.69 1202.72,-28.08"/>
<polygon fill="black" stroke="black" points="1052.62,-68.03 1044.57,-74.92 1055.16,-74.56 1052.62,-68.03"/>
<polygon fill="black" stroke="black" points="1203.85,-31.41 1212.84,-25.8 1202.32,-24.58 1203.85,-31.41"/>
</g>
<!-- build&#45;&gt;conan -->
<g id="edge15" class="edge">
<title>build&#45;&gt;conan</title>
<path fill="none" stroke="black" d="M934.68,-71.98C928.72,-70.24 922.76,-68.56 917,-67 861.3,-51.95 796.22,-37.41 755.06,-28.59"/>
<polygon fill="black" stroke="black" points="934.1,-75.46 944.68,-74.95 936.09,-68.75 934.1,-75.46"/>
<polygon fill="black" stroke="black" points="755.64,-25.13 745.13,-26.47 754.18,-31.98 755.64,-25.13"/>
</g>
<!-- winsmb -->
<g id="node27" class="node">
<title>winsmb</title>
<defs>
<linearGradient id="l_26" gradientUnits="userSpaceOnUse" x1="0" y1="-319" x2="54" y2="-319" >
<stop offset="0" style="stop-color:#ddddff;stop-opacity:1.;"/>
<stop offset="1" style="stop-color:#aaaacc;stop-opacity:1.;"/>
</linearGradient>
</defs>
<polygon fill="url(#l_26)" stroke="#ddddff" points="54,-338 0,-338 0,-300 54,-300 54,-338"/>
<text text-anchor="middle" x="27" y="-322.8" font-family="Times,serif" font-size="14.00">SMB</text>
<text text-anchor="middle" x="27" y="-307.8" font-family="Times,serif" font-size="14.00">EC2</text>
</g>
<!-- winsmb&#45;&gt;ce_node_1_win -->
<g id="edge16" class="edge">
<title>winsmb&#45;&gt;ce_node_1_win</title>
<path fill="none" stroke="black" d="M63.32,-301.11C88.51,-288.69 122.6,-270.49 151.58,-250.1"/>
<polygon fill="black" stroke="black" points="61.48,-298.11 54.01,-305.63 64.54,-304.41 61.48,-298.11"/>
<polygon fill="black" stroke="black" points="153.95,-252.7 160,-244 149.85,-247.03 153.95,-252.7"/>
</g>
<!-- winsmb&#45;&gt;efs -->
<g id="edge17" class="edge">
<title>winsmb&#45;&gt;efs</title>
<path fill="none" stroke="black" d="M25.17,-289.44C24.6,-253.45 29.72,-192.51 67,-161 125.93,-111.19 681.01,-98.18 830.87,-95.57"/>
<polygon fill="black" stroke="black" points="21.69,-289.86 25.5,-299.75 28.68,-289.64 21.69,-289.86"/>
<polygon fill="black" stroke="black" points="831.01,-99.06 840.95,-95.4 830.89,-92.07 831.01,-99.06"/>
</g>
</g>
</svg>
