<?xml version="1.0" encoding="UTF-8" standalone="no"?>
<!DOCTYPE svg PUBLIC "-//W3C//DTD SVG 1.1//EN"
 "http://www.w3.org/Graphics/SVG/1.1/DTD/svg11.dtd">
<!-- Generated by graphviz version 2.40.1 (0)
 -->
<!-- Title: compiler_explorer Pages: 1 -->
<svg width="1164pt" height="549pt"
 viewBox="0.00 0.00 1164.36 549.00" xmlns="http://www.w3.org/2000/svg" xmlns:xlink="http://www.w3.org/1999/xlink">
<g id="graph0" class="graph" transform="scale(1 1) rotate(0) translate(4 545)">
<title>compiler_explorer</title>
<polygon fill="#ffffff" stroke="transparent" points="-4,4 -4,-545 1160.3555,-545 1160.3555,4 -4,4"/>
<g id="clust1" class="cluster">
<title>cluster_ce_nodes</title>
<polygon fill="#99dd99" stroke="#99dd99" points="94.3555,-229 94.3555,-304 261.3555,-304 261.3555,-229 94.3555,-229"/>
<text text-anchor="middle" x="177.8555" y="-288.8" font-family="Times,serif" font-size="14.00" fill="#000000">Production</text>
</g>
<g id="clust2" class="cluster">
<title>cluster_beta_nodes</title>
<polygon fill="#dd99dd" stroke="#dd99dd" points="684.3555,-229 684.3555,-304 754.3555,-304 754.3555,-229 684.3555,-229"/>
<text text-anchor="middle" x="719.3555" y="-288.8" font-family="Times,serif" font-size="14.00" fill="#000000">Beta</text>
</g>
<g id="clust3" class="cluster">
<title>cluster_staging_nodes</title>
<polygon fill="#99dddd" stroke="#99dddd" points="534.3555,-229 534.3555,-304 606.3555,-304 606.3555,-229 534.3555,-229"/>
<text text-anchor="middle" x="570.3555" y="-288.8" font-family="Times,serif" font-size="14.00" fill="#000000">Staging</text>
</g>
<!-- outside -->
<g id="node1" class="node">
<title>outside</title>
<defs>
<linearGradient id="l_0" gradientUnits="userSpaceOnUse" x1="773.849" y1="-523" x2="904.8621" y2="-523" >
<stop offset="0" style="stop-color:#dddddd;stop-opacity:1.;"/>
<stop offset="1" style="stop-color:#aaaaaa;stop-opacity:1.;"/>
</linearGradient>
</defs>
<polygon fill="url(#l_0)" stroke="#dddddd" points="904.8621,-541 800.6558,-541 773.849,-505 878.0552,-505 904.8621,-541"/>
<text text-anchor="middle" x="839.3555" y="-519.3" font-family="Times,serif" font-size="14.00" fill="#000000">outside</text>
</g>
<!-- cloudfront -->
<g id="node2" class="node">
<title>cloudfront</title>
<defs>
<linearGradient id="l_1" gradientUnits="userSpaceOnUse" x1="780.0657" y1="-436" x2="898.6454" y2="-436" >
<stop offset="0" style="stop-color:#dddddd;stop-opacity:1.;"/>
<stop offset="1" style="stop-color:#aaaaaa;stop-opacity:1.;"/>
</linearGradient>
</defs>
<ellipse fill="url(#l_1)" stroke="#dddddd" cx="839.3555" cy="-436" rx="59.2899" ry="18"/>
<text text-anchor="middle" x="839.3555" y="-432.3" font-family="Times,serif" font-size="14.00" fill="#000000">cloudfront</text>
</g>
<!-- outside&#45;&gt;cloudfront -->
<g id="edge1" class="edge">
<title>outside&#45;&gt;cloudfront</title>
<path fill="none" stroke="#000000" d="M839.3555,-494.8156C839.3555,-484.971 839.3555,-473.9266 839.3555,-464.0897"/>
<polygon fill="#000000" stroke="#000000" points="835.8556,-494.9735 839.3555,-504.9735 842.8556,-494.9736 835.8556,-494.9735"/>
<polygon fill="#000000" stroke="#000000" points="842.8556,-464.0033 839.3555,-454.0034 835.8556,-464.0034 842.8556,-464.0033"/>
<text text-anchor="middle" x="858.3555" y="-475.8" font-family="Times,serif" font-size="14.00" fill="#000000">https</text>
</g>
<!-- alb -->
<g id="node3" class="node">
<title>alb</title>
<defs>
<linearGradient id="l_2" gradientUnits="userSpaceOnUse" x1="467.3555" y1="-349" x2="673.3555" y2="-349" >
<stop offset="0" style="stop-color:#dddddd;stop-opacity:1.;"/>
<stop offset="1" style="stop-color:#aaaaaa;stop-opacity:1.;"/>
</linearGradient>
</defs>
<polygon fill="url(#l_2)" stroke="#dddddd" points="673.3555,-367 467.3555,-367 467.3555,-331 673.3555,-331 673.3555,-367"/>
<text text-anchor="middle" x="570.3555" y="-345.3" font-family="Times,serif" font-size="14.00" fill="#000000">Application Load Balancer</text>
</g>
<!-- cloudfront&#45;&gt;alb -->
<g id="edge2" class="edge">
<title>cloudfront&#45;&gt;alb</title>
<path fill="none" stroke="#000000" d="M789.2693,-419.8011C745.9606,-405.7942 683.0523,-385.4484 635.7746,-370.1578"/>
<polygon fill="#000000" stroke="#000000" points="788.2004,-423.1339 798.7923,-422.881 790.3546,-416.4735 788.2004,-423.1339"/>
<polygon fill="#000000" stroke="#000000" points="636.8291,-366.8205 626.2373,-367.0733 634.675,-373.4808 636.8291,-366.8205"/>
<text text-anchor="middle" x="780.8555" y="-388.8" font-family="Times,serif" font-size="14.00" fill="#000000">dynamic content</text>
</g>
<!-- s3 -->
<g id="node10" class="node">
<title>s3</title>
<defs>
<linearGradient id="l_3" gradientUnits="userSpaceOnUse" x1="361.3555" y1="-20" x2="415.3555" y2="-20" >
<stop offset="0" style="stop-color:#dddddd;stop-opacity:1.;"/>
<stop offset="1" style="stop-color:#aaaaaa;stop-opacity:1.;"/>
</linearGradient>
</defs>
<polygon fill="url(#l_3)" stroke="#dddddd" points="415.3555,-36 412.3555,-40 391.3555,-40 388.3555,-36 361.3555,-36 361.3555,0 415.3555,0 415.3555,-36"/>
<text text-anchor="middle" x="388.3555" y="-14.3" font-family="Times,serif" font-size="14.00" fill="#000000">s3</text>
</g>
<!-- cloudfront&#45;&gt;s3 -->
<g id="edge3" class="edge">
<title>cloudfront&#45;&gt;s3</title>
<path fill="none" stroke="#000000" d="M899.4566,-424.1323C963.6788,-409.6841 1056.3555,-382.9523 1056.3555,-349 1056.3555,-349 1056.3555,-349 1056.3555,-92 1056.3555,-60.0165 566.2126,-28.5292 425.6301,-20.1559"/>
<polygon fill="#000000" stroke="#000000" points="898.4251,-420.7755 889.4122,-426.3449 899.931,-427.6117 898.4251,-420.7755"/>
<polygon fill="#000000" stroke="#000000" points="425.5585,-16.6456 415.3693,-19.5489 425.1451,-23.6334 425.5585,-16.6456"/>
<text text-anchor="middle" x="1106.3555" y="-207.8" font-family="Times,serif" font-size="14.00" fill="#000000">static content</text>
</g>
<!-- ce_node_1 -->
<g id="node4" class="node">
<title>ce_node_1</title>
<defs>
<linearGradient id="l_4" gradientUnits="userSpaceOnUse" x1="102.3555" y1="-255" x2="156.3555" y2="-255" >
<stop offset="0" style="stop-color:#dddddd;stop-opacity:1.;"/>
<stop offset="1" style="stop-color:#aaaaaa;stop-opacity:1.;"/>
</linearGradient>
</defs>
<polygon fill="url(#l_4)" stroke="#dddddd" points="156.3555,-273 102.3555,-273 102.3555,-237 156.3555,-237 156.3555,-273"/>
<text text-anchor="middle" x="129.3555" y="-251.3" font-family="Times,serif" font-size="14.00" fill="#000000">EC2</text>
</g>
<!-- alb&#45;&gt;ce_node_1 -->
<g id="edge4" class="edge">
<title>alb&#45;&gt;ce_node_1</title>
<path fill="none" stroke="#000000" d="M457.2989,-344.4249C364.7882,-339.2581 240.7127,-328.7064 186.6184,-307.9879"/>
<polygon fill="#000000" stroke="#000000" points="457.117,-347.9201 467.2925,-344.9691 457.4977,-340.9305 457.117,-347.9201"/>
<polygon fill="#000000" stroke="#000000" points="187.9245,-304.7397 177.3555,-304 185.1564,-311.1692 187.9245,-304.7397"/>
</g>
<!-- ce_node_2 -->
<g id="node5" class="node">
<title>ce_node_2</title>
<defs>
<linearGradient id="l_5" gradientUnits="userSpaceOnUse" x1="199.3555" y1="-255" x2="253.3555" y2="-255" >
<stop offset="0" style="stop-color:#dddddd;stop-opacity:1.;"/>
<stop offset="1" style="stop-color:#aaaaaa;stop-opacity:1.;"/>
</linearGradient>
</defs>
<polygon fill="url(#l_5)" stroke="#dddddd" points="253.3555,-273 199.3555,-273 199.3555,-237 253.3555,-237 253.3555,-273"/>
<text text-anchor="middle" x="226.3555" y="-251.3" font-family="Times,serif" font-size="14.00" fill="#000000">EC2</text>
</g>
<!-- alb&#45;&gt;ce_node_2 -->
<g id="edge5" class="edge">
<title>alb&#45;&gt;ce_node_2</title>
<path fill="none" stroke="#000000" d="M494.4117,-328.2479C422.7254,-308.6592 318.2707,-280.1164 263.3173,-265.1"/>
<polygon fill="#000000" stroke="#000000" points="493.867,-331.7273 504.4359,-330.9871 495.7122,-324.9749 493.867,-331.7273"/>
<polygon fill="#000000" stroke="#000000" points="271.9482,-264.2394 261.3555,-264.4587 269.773,-270.8929 271.9482,-264.2394"/>
</g>
<!-- beta_node_1 -->
<g id="node6" class="node">
<title>beta_node_1</title>
<defs>
<linearGradient id="l_6" gradientUnits="userSpaceOnUse" x1="692.3555" y1="-255" x2="746.3555" y2="-255" >
<stop offset="0" style="stop-color:#dddddd;stop-opacity:1.;"/>
<stop offset="1" style="stop-color:#aaaaaa;stop-opacity:1.;"/>
</linearGradient>
</defs>
<polygon fill="url(#l_6)" stroke="#dddddd" points="746.3555,-273 692.3555,-273 692.3555,-237 746.3555,-237 746.3555,-273"/>
<text text-anchor="middle" x="719.3555" y="-251.3" font-family="Times,serif" font-size="14.00" fill="#000000">EC2</text>
</g>
<!-- alb&#45;&gt;beta_node_1 -->
<g id="edge6" class="edge">
<title>alb&#45;&gt;beta_node_1</title>
<path fill="none" stroke="#000000" d="M607.6521,-325.4706C630.8575,-310.831 660.5414,-292.1042 683.476,-277.6354"/>
<polygon fill="#000000" stroke="#000000" points="605.6743,-322.58 599.0842,-330.8759 609.4093,-328.5003 605.6743,-322.58"/>
<polygon fill="#000000" stroke="#000000" points="682.3683,-286.5251 684.3555,-276.1181 676.3122,-283.0144 682.3683,-286.5251"/>
</g>
<!-- staging_node_1 -->
<g id="node7" class="node">
<title>staging_node_1</title>
<defs>
<linearGradient id="l_7" gradientUnits="userSpaceOnUse" x1="543.3555" y1="-255" x2="597.3555" y2="-255" >
<stop offset="0" style="stop-color:#dddddd;stop-opacity:1.;"/>
<stop offset="1" style="stop-color:#aaaaaa;stop-opacity:1.;"/>
</linearGradient>
</defs>
<polygon fill="url(#l_7)" stroke="#dddddd" points="597.3555,-273 543.3555,-273 543.3555,-237 597.3555,-237 597.3555,-273"/>
<text text-anchor="middle" x="570.3555" y="-251.3" font-family="Times,serif" font-size="14.00" fill="#000000">EC2</text>
</g>
<!-- alb&#45;&gt;staging_node_1 -->
<g id="edge7" class="edge">
<title>alb&#45;&gt;staging_node_1</title>
<path fill="none" stroke="#000000" d="M570.3555,-320.785C570.3555,-318.6213 570.3555,-316.3941 570.3555,-314.1265"/>
<polygon fill="#000000" stroke="#000000" points="566.8556,-320.8758 570.3555,-330.8759 573.8556,-320.8759 566.8556,-320.8758"/>
<polygon fill="#000000" stroke="#000000" points="573.8556,-313.9969 570.3555,-303.997 566.8556,-313.997 573.8556,-313.9969"/>
</g>
<!-- admin -->
<g id="node8" class="node">
<title>admin</title>
<defs>
<linearGradient id="l_8" gradientUnits="userSpaceOnUse" x1="320.8555" y1="-167" x2="381.8555" y2="-167" >
<stop offset="0" style="stop-color:#ddddff;stop-opacity:1.;"/>
<stop offset="1" style="stop-color:#aaaacc;stop-opacity:1.;"/>
</linearGradient>
</defs>
<polygon fill="url(#l_8)" stroke="#ddddff" points="381.8555,-186 320.8555,-186 320.8555,-148 381.8555,-148 381.8555,-186"/>
<text text-anchor="middle" x="351.3555" y="-170.8" font-family="Times,serif" font-size="14.00" fill="#000000">admin</text>
<text text-anchor="middle" x="351.3555" y="-155.8" font-family="Times,serif" font-size="14.00" fill="#000000">EC2</text>
</g>
<!-- ce_node_1&#45;&gt;admin -->
<g id="edge13" class="edge">
<title>ce_node_1&#45;&gt;admin</title>
<path fill="none" stroke="#000000" d="M177.1211,-223.7604C189.5447,-216.5489 203.156,-209.4142 216.3555,-204 246.4741,-191.6459 255.9676,-194.6341 287.3555,-186 295.056,-183.8818 303.2479,-181.5273 311.1087,-179.2172"/>
<polygon fill="#000000" stroke="#000000" points="175.1138,-220.8819 168.3076,-229.0014 178.6916,-226.8985 175.1138,-220.8819"/>
<polygon fill="#000000" stroke="#000000" points="312.2342,-182.5342 320.8268,-176.336 310.2444,-175.8229 312.2342,-182.5342"/>
<text text-anchor="middle" x="242.3555" y="-207.8" font-family="Times,serif" font-size="14.00" fill="#000000">control</text>
</g>
<!-- efs -->
<g id="node9" class="node">
<title>efs</title>
<defs>
<linearGradient id="l_9" gradientUnits="userSpaceOnUse" x1="221.3555" y1="-94" x2="275.3555" y2="-94" >
<stop offset="0" style="stop-color:#dddddd;stop-opacity:1.;"/>
<stop offset="1" style="stop-color:#aaaaaa;stop-opacity:1.;"/>
</linearGradient>
</defs>
<polygon fill="url(#l_9)" stroke="#dddddd" points="275.3555,-110 272.3555,-114 251.3555,-114 248.3555,-110 221.3555,-110 221.3555,-74 275.3555,-74 275.3555,-110"/>
<text text-anchor="middle" x="248.3555" y="-88.3" font-family="Times,serif" font-size="14.00" fill="#000000">efs</text>
</g>
<!-- ce_node_1&#45;&gt;efs -->
<g id="edge15" class="edge">
<title>ce_node_1&#45;&gt;efs</title>
<path fill="none" stroke="#000000" d="M91.8616,-251.4713C53.516,-246.1973 1.9788,-233.5013 20.3555,-204 62.3268,-136.6207 157.9957,-108.6224 211.1,-97.9369"/>
<polygon fill="#000000" stroke="#000000" points="83.8693,-251.2558 94.3555,-252.7698 87.1022,-245.047 83.8693,-251.2558"/>
<polygon fill="#000000" stroke="#000000" points="211.958,-101.3364 221.1248,-96.0241 210.646,-94.4605 211.958,-101.3364"/>
</g>
<!-- ce_node_1&#45;&gt;s3 -->
<g id="edge17" class="edge">
<title>ce_node_1&#45;&gt;s3</title>
<path fill="none" stroke="#000000" d="M92.2809,-249.0355C60.2772,-243.0407 17.6162,-232.7258 7.3555,-219 -5.4922,-201.8135 -1.1675,-179.4125 24.3555,-148 79.2905,-80.3887 114.266,-83.1624 196.3555,-54 248.3162,-35.5409 311.7239,-26.0076 351.0777,-21.5083"/>
<polygon fill="#000000" stroke="#000000" points="83.7649,-249.5257 94.3555,-249.8289 86.2655,-242.9875 83.7649,-249.5257"/>
<polygon fill="#000000" stroke="#000000" points="351.7076,-24.9604 361.2682,-20.3947 350.9471,-18.0018 351.7076,-24.9604"/>
</g>
<!-- dynamodb -->
<g id="node11" class="node">
<title>dynamodb</title>
<defs>
<linearGradient id="l_10" gradientUnits="userSpaceOnUse" x1="501.8555" y1="-92" x2="592.8555" y2="-92" >
<stop offset="0" style="stop-color:#dddddd;stop-opacity:1.;"/>
<stop offset="1" style="stop-color:#aaaaaa;stop-opacity:1.;"/>
</linearGradient>
</defs>
<path fill="url(#l_10)" stroke="#dddddd" d="M592.8555,-106.7273C592.8555,-108.5331 572.4617,-110 547.3555,-110 522.2494,-110 501.8555,-108.5331 501.8555,-106.7273 501.8555,-106.7273 501.8555,-77.2727 501.8555,-77.2727 501.8555,-75.4669 522.2494,-74 547.3555,-74 572.4617,-74 592.8555,-75.4669 592.8555,-77.2727 592.8555,-77.2727 592.8555,-106.7273 592.8555,-106.7273"/>
<path fill="none" stroke="#dddddd" d="M592.8555,-106.7273C592.8555,-104.9214 572.4617,-103.4545 547.3555,-103.4545 522.2494,-103.4545 501.8555,-104.9214 501.8555,-106.7273"/>
<text text-anchor="middle" x="547.3555" y="-88.3" font-family="Times,serif" font-size="14.00" fill="#000000">dynamodb</text>
</g>
<!-- ce_node_1&#45;&gt;dynamodb -->
<g id="edge19" class="edge">
<title>ce_node_1&#45;&gt;dynamodb</title>
<path fill="none" stroke="#000000" d="M157.2344,-221.5947C163.4505,-215.2754 170.3035,-209.0666 177.3555,-204 291.7575,-121.8066 343.492,-144.3455 480.3555,-111 484.1458,-110.0765 488.0449,-109.084 491.9653,-108.0546"/>
<polygon fill="#000000" stroke="#000000" points="154.5656,-219.3234 150.2559,-229.0021 159.6607,-224.1234 154.5656,-219.3234"/>
<polygon fill="#000000" stroke="#000000" points="492.955,-111.4129 501.7041,-105.4377 491.1384,-104.6527 492.955,-111.4129"/>
</g>
<!-- ce_node_2&#45;&gt;admin -->
<g id="edge14" class="edge">
<title>ce_node_2&#45;&gt;admin</title>
<path fill="none" stroke="#000000" d="M269.5428,-224.5962C284.6378,-213.9693 301.3996,-202.1689 315.8009,-192.0305"/>
<polygon fill="#000000" stroke="#000000" points="267.5158,-221.7428 261.3537,-230.3613 271.5454,-227.4667 267.5158,-221.7428"/>
<polygon fill="#000000" stroke="#000000" points="317.898,-194.8345 324.0601,-186.216 313.8684,-189.1106 317.898,-194.8345"/>
<text text-anchor="middle" x="322.3555" y="-207.8" font-family="Times,serif" font-size="14.00" fill="#000000">control</text>
</g>
<!-- ce_node_2&#45;&gt;efs -->
<g id="edge16" class="edge">
<title>ce_node_2&#45;&gt;efs</title>
<path fill="none" stroke="#000000" d="M230.1511,-226.8785C234.1754,-197.0619 240.4963,-150.2298 244.5314,-120.333"/>
<polygon fill="#000000" stroke="#000000" points="228.0028,-218.5576 229.794,-229 234.9057,-219.7198 228.0028,-218.5576"/>
<polygon fill="#000000" stroke="#000000" points="248.0371,-120.5259 245.9062,-110.1476 241.1,-119.5895 248.0371,-120.5259"/>
</g>
<!-- ce_node_2&#45;&gt;s3 -->
<g id="edge18" class="edge">
<title>ce_node_2&#45;&gt;s3</title>
<path fill="none" stroke="#000000" d="M208.1434,-228.1189C185.3999,-190.8769 152.8581,-122.5764 182.3555,-73 199.6036,-44.011 296.7026,-28.4219 351.214,-21.846"/>
<polygon fill="#000000" stroke="#000000" points="199.2597,-227.0348 209.6709,-229 202.7576,-220.9712 199.2597,-227.0348"/>
<polygon fill="#000000" stroke="#000000" points="351.6615,-25.3176 361.1902,-20.6857 350.8528,-18.3645 351.6615,-25.3176"/>
</g>
<!-- ce_node_2&#45;&gt;dynamodb -->
<g id="edge20" class="edge">
<title>ce_node_2&#45;&gt;dynamodb</title>
<path fill="none" stroke="#000000" d="M263.3938,-248.2723C290.4883,-242.5542 327.7083,-233.0167 358.3555,-219 418.9297,-191.2961 481.6405,-145.0448 517.4352,-116.662"/>
<polygon fill="#000000" stroke="#000000" points="268.7741,-241.7138 261.3555,-249.2781 271.872,-247.9911 268.7741,-241.7138"/>
<polygon fill="#000000" stroke="#000000" points="519.8899,-119.1803 525.5101,-110.199 515.5157,-113.7152 519.8899,-119.1803"/>
</g>
<!-- beta_node_1&#45;&gt;admin -->
<g id="edge21" class="edge">
<title>beta_node_1&#45;&gt;admin</title>
<path fill="none" stroke="#000000" d="M682.5081,-245.5332C662.8863,-240.5338 638.3307,-234.3438 616.3555,-229 536.9432,-209.6889 443.8657,-188.1693 391.8419,-176.2414"/>
<polygon fill="#000000" stroke="#000000" points="673.7902,-246.8202 684.3555,-246.0282 675.6024,-240.0587 673.7902,-246.8202"/>
<polygon fill="#000000" stroke="#000000" points="392.5298,-172.8084 382.0007,-173.9872 390.9668,-179.6317 392.5298,-172.8084"/>
</g>
<!-- beta_node_1&#45;&gt;efs -->
<g id="edge22" class="edge">
<title>beta_node_1&#45;&gt;efs</title>
<path fill="none" stroke="#000000" d="M683.2288,-237.4104C634.9411,-214.4256 546.2727,-174.0454 467.3555,-148 433.0626,-136.6821 423.6394,-136.691 388.3555,-129 347.6473,-120.1266 336.3383,-122.7166 296.3555,-111 292.5927,-109.8973 288.7141,-108.6166 284.8692,-107.251"/>
<polygon fill="#000000" stroke="#000000" points="675.2716,-233.3129 684.3555,-238.766 680.6549,-228.8382 675.2716,-233.3129"/>
<polygon fill="#000000" stroke="#000000" points="286.0587,-103.9591 275.4662,-103.7342 283.6065,-110.5156 286.0587,-103.9591"/>
</g>
<!-- beta_node_1&#45;&gt;s3 -->
<g id="edge23" class="edge">
<title>beta_node_1&#45;&gt;s3</title>
<path fill="none" stroke="#000000" d="M755.8565,-242.8107C774.3215,-234.3122 791.4733,-221.3724 784.3555,-204 753.3761,-128.3878 721.4599,-121.0328 655.3555,-73 640.08,-61.9005 635.3391,-59.7564 617.3555,-54 551.7481,-32.9995 471.4983,-23.9878 425.5166,-20.3213"/>
<polygon fill="#000000" stroke="#000000" points="761.0241,-235.5047 754.3555,-243.7379 764.7029,-241.4602 761.0241,-235.5047"/>
<polygon fill="#000000" stroke="#000000" points="425.6535,-16.8218 415.4183,-19.5587 425.1263,-23.8019 425.6535,-16.8218"/>
</g>
<!-- beta_node_1&#45;&gt;dynamodb -->
<g id="edge24" class="edge">
<title>beta_node_1&#45;&gt;dynamodb</title>
<path fill="none" stroke="#000000" d="M750.9707,-219.9744C751.1033,-219.6507 751.2316,-219.3259 751.3555,-219 759.0382,-198.793 753.634,-162.508 740.3555,-148 721.8442,-127.7746 653.3141,-111.2756 603.1611,-101.551"/>
<polygon fill="#000000" stroke="#000000" points="747.7669,-218.5409 746.0869,-229.0017 753.9237,-221.8717 747.7669,-218.5409"/>
<polygon fill="#000000" stroke="#000000" points="603.5566,-98.0637 593.0794,-99.6386 602.2519,-104.941 603.5566,-98.0637"/>
</g>
<!-- staging_node_1&#45;&gt;admin -->
<g id="edge25" class="edge">
<title>staging_node_1&#45;&gt;admin</title>
<path fill="none" stroke="#000000" d="M533.6481,-240.25C494.322,-224.4477 432.0975,-199.4443 391.4966,-183.1297"/>
<polygon fill="#000000" stroke="#000000" points="525.0531,-235.9609 534.3555,-241.0327 530.2462,-231.2668 525.0531,-235.9609"/>
<polygon fill="#000000" stroke="#000000" points="392.7556,-179.8637 382.1717,-179.3827 390.1456,-186.3589 392.7556,-179.8637"/>
</g>
<!-- staging_node_1&#45;&gt;efs -->
<g id="edge26" class="edge">
<title>staging_node_1&#45;&gt;efs</title>
<path fill="none" stroke="#000000" d="M525.7974,-225.6745C514.8836,-218.5446 503.218,-210.9678 492.3555,-204 453.0187,-178.7669 445.4926,-168.213 403.3555,-148 357.9869,-126.2368 343.538,-128.4863 296.3555,-111 292.6329,-109.6204 288.7614,-108.1493 284.904,-106.6597"/>
<polygon fill="#000000" stroke="#000000" points="524.0749,-228.7301 534.3591,-231.2766 527.9076,-222.8726 524.0749,-228.7301"/>
<polygon fill="#000000" stroke="#000000" points="286.0253,-103.3402 275.4373,-102.9606 283.4776,-109.8602 286.0253,-103.3402"/>
</g>
<!-- staging_node_1&#45;&gt;s3 -->
<g id="edge27" class="edge">
<title>staging_node_1&#45;&gt;s3</title>
<path fill="none" stroke="#000000" d="M599.4095,-228.9122C601.7307,-225.7783 603.7821,-222.456 605.3555,-219 632.2933,-159.8314 654.5249,-124.1175 614.3555,-73 591.3367,-43.7074 484.0929,-28.0683 425.9952,-21.6184"/>
<polygon fill="#000000" stroke="#000000" points="608.2003,-224.1543 598.7783,-229 609.1656,-231.0876 608.2003,-224.1543"/>
<polygon fill="#000000" stroke="#000000" points="426.0666,-18.1061 415.7504,-20.5198 425.3201,-25.0662 426.0666,-18.1061"/>
</g>
<!-- staging_node_1&#45;&gt;dynamodb -->
<g id="edge28" class="edge">
<title>staging_node_1&#45;&gt;dynamodb</title>
<path fill="none" stroke="#000000" d="M572.9756,-226.472C574.5277,-200.5993 574.7943,-161.6309 566.3555,-129 565.5239,-125.7841 564.3776,-122.5293 563.0567,-119.3534"/>
<polygon fill="#000000" stroke="#000000" points="571.6354,-218.4231 572.2533,-229 578.3661,-220.3464 571.6354,-218.4231"/>
<polygon fill="#000000" stroke="#000000" points="566.1549,-117.718 558.7098,-110.1801 559.8292,-120.7156 566.1549,-117.718"/>
</g>
<!-- admin&#45;&gt;efs -->
<g id="edge10" class="edge">
<title>admin&#45;&gt;efs</title>
<path fill="none" stroke="#000000" d="M316.9275,-141.9311C305.5055,-133.6141 292.8202,-124.3772 281.4972,-116.1323"/>
<polygon fill="#000000" stroke="#000000" points="314.9536,-144.8232 325.0978,-147.8803 319.074,-139.1645 314.9536,-144.8232"/>
<polygon fill="#000000" stroke="#000000" points="283.2917,-113.1094 273.1474,-110.0523 279.1712,-118.7682 283.2917,-113.1094"/>
</g>
<!-- admin&#45;&gt;s3 -->
<g id="edge11" class="edge">
<title>admin&#45;&gt;s3</title>
<path fill="none" stroke="#000000" d="M310.7256,-157.587C270.2972,-147.3007 212.4419,-129.7675 199.3555,-111 189.6956,-97.1465 189.2181,-86.508 199.3555,-73 217.5484,-48.7583 301.2708,-31.7046 350.9771,-23.5165"/>
<polygon fill="#000000" stroke="#000000" points="310.0413,-161.0234 320.5906,-160.0424 311.7321,-154.2307 310.0413,-161.0234"/>
<polygon fill="#000000" stroke="#000000" points="351.712,-26.9435 361.0318,-21.9045 350.6037,-20.0318 351.712,-26.9435"/>
</g>
<!-- admin&#45;&gt;dynamodb -->
<g id="edge12" class="edge">
<title>admin&#45;&gt;dynamodb</title>
<path fill="none" stroke="#000000" d="M391.6365,-151.5864C421.1548,-140.2911 461.5279,-124.8422 493.7679,-112.5055"/>
<polygon fill="#000000" stroke="#000000" points="390.0693,-148.4385 381.9805,-155.2813 392.571,-154.9762 390.0693,-148.4385"/>
<polygon fill="#000000" stroke="#000000" points="495.4026,-115.6275 503.4913,-108.7848 492.9009,-109.0898 495.4026,-115.6275"/>
</g>
<!-- build -->
<g id="node12" class="node">
<title>build</title>
<defs>
<linearGradient id="l_11" gradientUnits="userSpaceOnUse" x1="318.3555" y1="-92" x2="458.3555" y2="-92" >
<stop offset="0" style="stop-color:#ddddff;stop-opacity:1.;"/>
<stop offset="1" style="stop-color:#aaaacc;stop-opacity:1.;"/>
</linearGradient>
</defs>
<polygon fill="url(#l_11)" stroke="#ddddff" points="458.3555,-111 318.3555,-111 318.3555,-73 458.3555,-73 458.3555,-111"/>
<text text-anchor="middle" x="388.3555" y="-95.8" font-family="Times,serif" font-size="14.00" fill="#000000">Compiler Builder</text>
<text text-anchor="middle" x="388.3555" y="-80.8" font-family="Times,serif" font-size="14.00" fill="#000000">EC2</text>
</g>
<!-- admin&#45;&gt;build -->
<g id="edge8" class="edge">
<title>admin&#45;&gt;build</title>
<path fill="none" stroke="#000000" d="M365.3891,-138.5537C368.342,-132.568 371.4564,-126.2549 374.4063,-120.2755"/>
<polygon fill="#000000" stroke="#000000" points="362.1694,-137.1691 360.884,-147.6856 368.4471,-140.2661 362.1694,-137.1691"/>
<polygon fill="#000000" stroke="#000000" points="377.5739,-121.7655 378.8594,-111.2489 371.2963,-118.6685 377.5739,-121.7655"/>
</g>
<!-- build&#45;&gt;s3 -->
<g id="edge9" class="edge">
<title>build&#45;&gt;s3</title>
<path fill="none" stroke="#000000" d="M388.3555,-62.8389C388.3555,-57.5105 388.3555,-51.9547 388.3555,-46.6415"/>
<polygon fill="#000000" stroke="#000000" points="384.8556,-62.9431 388.3555,-72.9432 391.8556,-62.9432 384.8556,-62.9431"/>
<polygon fill="#000000" stroke="#000000" points="391.8556,-46.2268 388.3555,-36.2269 384.8556,-46.2269 391.8556,-46.2268"/>
</g>
</g>
</svg>
