<?xml version="1.0" encoding="UTF-8" standalone="no"?>
<!DOCTYPE svg PUBLIC "-//W3C//DTD SVG 1.1//EN"
 "http://www.w3.org/Graphics/SVG/1.1/DTD/svg11.dtd">
<!-- Generated by graphviz version 2.40.1 (20161225.0304)
 -->
<!-- Title: compiler_explorer Pages: 1 -->
<svg width="520pt" height="483pt"
 viewBox="0.00 0.00 519.93 483.00" xmlns="http://www.w3.org/2000/svg" xmlns:xlink="http://www.w3.org/1999/xlink">
<g id="graph0" class="graph" transform="scale(1 1) rotate(0) translate(4 479)">
<title>compiler_explorer</title>
<g id="clust1" class="cluster">
<title>cluster_ce_nodes</title>
<polygon fill="#99dd99" stroke="#99dd99" points="174.2694,-212 174.2694,-287 341.2694,-287 341.2694,-212 174.2694,-212"/>
<text text-anchor="middle" x="257.7694" y="-271.8" font-family="Times,serif" font-size="14.00" fill="#000000">Prod Nodes</text>
</g>
<g id="clust2" class="cluster">
<title>cluster_beta_nodes</title>
<polygon fill="#dd99dd" stroke="#dd99dd" points="72.2694,-212 72.2694,-287 152.2694,-287 152.2694,-212 72.2694,-212"/>
<text text-anchor="middle" x="112.2694" y="-271.8" font-family="Times,serif" font-size="14.00" fill="#000000">Beta Nodes</text>
</g>
<!-- outside -->
<g id="node1" class="node">
<title>outside</title>
<defs>
<linearGradient id="l_0" gradientUnits="userSpaceOnUse" x1="156.0399" y1="-457" x2="262.499" y2="-457" >
<stop offset="0" style="stop-color:#dddddd;stop-opacity:1.;"/>
<stop offset="1" style="stop-color:#aaaaaa;stop-opacity:1.;"/>
</linearGradient>
</defs>
<polygon fill="url(#l_0)" stroke="#dddddd" points="262.499,-475 177.8227,-475 156.0399,-439 240.7162,-439 262.499,-475"/>
<text text-anchor="middle" x="209.2694" y="-453.3" font-family="Times,serif" font-size="14.00" fill="#000000">outside</text>
</g>
<!-- cloudfront -->
<g id="node2" class="node">
<title>cloudfront</title>
<defs>
<linearGradient id="l_1" gradientUnits="userSpaceOnUse" x1="161.8778" y1="-385" x2="256.6611" y2="-385" >
<stop offset="0" style="stop-color:#dddddd;stop-opacity:1.;"/>
<stop offset="1" style="stop-color:#aaaaaa;stop-opacity:1.;"/>
</linearGradient>
</defs>
<ellipse fill="url(#l_1)" stroke="#dddddd" cx="209.2694" cy="-385" rx="47.3916" ry="18"/>
<text text-anchor="middle" x="209.2694" y="-381.3" font-family="Times,serif" font-size="14.00" fill="#000000">cloudfront</text>
</g>
<!-- outside&#45;&gt;cloudfront -->
<g id="edge1" class="edge">
<title>outside&#45;&gt;cloudfront</title>
<path fill="none" stroke="#000000" d="M209.2694,-428.5726C209.2694,-423.6792 209.2694,-418.5904 209.2694,-413.6901"/>
<polygon fill="#000000" stroke="#000000" points="205.7695,-428.8313 209.2694,-438.8314 212.7695,-428.8314 205.7695,-428.8313"/>
<polygon fill="#000000" stroke="#000000" points="212.7695,-413.4132 209.2694,-403.4133 205.7695,-413.4133 212.7695,-413.4132"/>
</g>
<!-- alb -->
<g id="node3" class="node">
<title>alb</title>
<defs>
<linearGradient id="l_2" gradientUnits="userSpaceOnUse" x1="127.2694" y1="-313" x2="291.2694" y2="-313" >
<stop offset="0" style="stop-color:#dddddd;stop-opacity:1.;"/>
<stop offset="1" style="stop-color:#aaaaaa;stop-opacity:1.;"/>
</linearGradient>
</defs>
<polygon fill="url(#l_2)" stroke="#dddddd" points="291.2694,-331 127.2694,-331 127.2694,-295 291.2694,-295 291.2694,-331"/>
<text text-anchor="middle" x="209.2694" y="-309.3" font-family="Times,serif" font-size="14.00" fill="#000000">Application Load Balancer</text>
</g>
<!-- cloudfront&#45;&gt;alb -->
<g id="edge2" class="edge">
<title>cloudfront&#45;&gt;alb</title>
<path fill="none" stroke="#000000" d="M209.2694,-356.5726C209.2694,-351.6792 209.2694,-346.5904 209.2694,-341.6901"/>
<polygon fill="#000000" stroke="#000000" points="205.7695,-356.8313 209.2694,-366.8314 212.7695,-356.8314 205.7695,-356.8313"/>
<polygon fill="#000000" stroke="#000000" points="212.7695,-341.4132 209.2694,-331.4133 205.7695,-341.4133 212.7695,-341.4132"/>
</g>
<!-- ce_node_1 -->
<g id="node4" class="node">
<title>ce_node_1</title>
<defs>
<linearGradient id="l_3" gradientUnits="userSpaceOnUse" x1="182.2694" y1="-238" x2="236.2694" y2="-238" >
<stop offset="0" style="stop-color:#dddddd;stop-opacity:1.;"/>
<stop offset="1" style="stop-color:#aaaaaa;stop-opacity:1.;"/>
</linearGradient>
</defs>
<polygon fill="url(#l_3)" stroke="#dddddd" points="236.2694,-256 182.2694,-256 182.2694,-220 236.2694,-220 236.2694,-256"/>
<text text-anchor="middle" x="209.2694" y="-234.3" font-family="Times,serif" font-size="14.00" fill="#000000">EC2</text>
</g>
<!-- alb&#45;&gt;ce_node_1 -->
<g id="edge3" class="edge">
<title>alb&#45;&gt;ce_node_1</title>
<path fill="none" stroke="#000000" d="M209.2694,-292.8834C209.2694,-292.7609 209.2694,-292.6383 209.2694,-292.5157"/>
<polygon fill="#000000" stroke="#000000" points="205.7699,-284.8444 209.2694,-294.8446 212.7699,-284.8448 205.7699,-284.8444"/>
<polygon fill="#000000" stroke="#000000" points="212.7696,-296.9999 209.2694,-287 205.7696,-297.0001 212.7696,-296.9999"/>
</g>
<!-- ce_node_2 -->
<g id="node5" class="node">
<title>ce_node_2</title>
<defs>
<linearGradient id="l_4" gradientUnits="userSpaceOnUse" x1="279.2694" y1="-238" x2="333.2694" y2="-238" >
<stop offset="0" style="stop-color:#dddddd;stop-opacity:1.;"/>
<stop offset="1" style="stop-color:#aaaaaa;stop-opacity:1.;"/>
</linearGradient>
</defs>
<polygon fill="url(#l_4)" stroke="#dddddd" points="333.2694,-256 279.2694,-256 279.2694,-220 333.2694,-220 333.2694,-256"/>
<text text-anchor="middle" x="306.2694" y="-234.3" font-family="Times,serif" font-size="14.00" fill="#000000">EC2</text>
</g>
<!-- alb&#45;&gt;ce_node_2 -->
<g id="edge4" class="edge">
<title>alb&#45;&gt;ce_node_2</title>
<path fill="none" stroke="#000000" d="M254.0554,-289.3153C254.1922,-289.22 254.3286,-289.1246 254.4646,-289.029"/>
<polygon fill="#000000" stroke="#000000" points="251.8592,-286.5676 245.3658,-294.9394 255.6626,-292.4442 251.8592,-286.5676"/>
<polygon fill="#000000" stroke="#000000" points="251.2187,-295.6972 257.2694,-287 247.1157,-290.0256 251.2187,-295.6972"/>
</g>
<!-- beta_node_1 -->
<g id="node6" class="node">
<title>beta_node_1</title>
<defs>
<linearGradient id="l_5" gradientUnits="userSpaceOnUse" x1="85.2694" y1="-238" x2="139.2694" y2="-238" >
<stop offset="0" style="stop-color:#dddddd;stop-opacity:1.;"/>
<stop offset="1" style="stop-color:#aaaaaa;stop-opacity:1.;"/>
</linearGradient>
</defs>
<polygon fill="url(#l_5)" stroke="#dddddd" points="139.2694,-256 85.2694,-256 85.2694,-220 139.2694,-220 139.2694,-256"/>
<text text-anchor="middle" x="112.2694" y="-234.3" font-family="Times,serif" font-size="14.00" fill="#000000">EC2</text>
</g>
<!-- alb&#45;&gt;beta_node_1 -->
<g id="edge5" class="edge">
<title>alb&#45;&gt;beta_node_1</title>
<path fill="none" stroke="#000000" d="M167.3892,-289.2566C166.3291,-288.5103 165.2873,-287.7575 164.2694,-287 162.8907,-285.9739 161.5089,-284.9153 160.1283,-283.8307"/>
<polygon fill="#000000" stroke="#000000" points="165.5106,-292.2104 175.779,-294.8203 169.3794,-286.3766 165.5106,-292.2104"/>
<polygon fill="#000000" stroke="#000000" points="162.2175,-281.0175 152.2662,-277.3811 157.7777,-286.4295 162.2175,-281.0175"/>
</g>
<!-- admin -->
<g id="node7" class="node">
<title>admin</title>
<defs>
<linearGradient id="l_6" gradientUnits="userSpaceOnUse" x1="231.2694" y1="-165" x2="285.2694" y2="-165" >
<stop offset="0" style="stop-color:#dddddd;stop-opacity:1.;"/>
<stop offset="1" style="stop-color:#aaaaaa;stop-opacity:1.;"/>
</linearGradient>
</defs>
<polygon fill="url(#l_6)" stroke="#dddddd" points="285.2694,-184 231.2694,-184 231.2694,-146 285.2694,-146 285.2694,-184"/>
<text text-anchor="middle" x="258.2694" y="-168.8" font-family="Times,serif" font-size="14.00" fill="#000000">admin</text>
<text text-anchor="middle" x="258.2694" y="-153.8" font-family="Times,serif" font-size="14.00" fill="#000000">EC2</text>
</g>
<!-- ce_node_1&#45;&gt;admin -->
<g id="edge11" class="edge">
<title>ce_node_1&#45;&gt;admin</title>
<path fill="none" stroke="#000000" d="M226.9908,-211.5987C231.0908,-205.4907 235.4656,-198.973 239.6045,-192.8069"/>
<polygon fill="#000000" stroke="#000000" points="232.8066,-203.5749 226.3818,-212 236.6583,-209.4203 232.8066,-203.5749"/>
<polygon fill="#000000" stroke="#000000" points="242.773,-194.3665 245.4403,-184.1128 236.961,-190.4652 242.773,-194.3665"/>
</g>
<!-- efs -->
<g id="node8" class="node">
<title>efs</title>
<defs>
<linearGradient id="l_7" gradientUnits="userSpaceOnUse" x1="57.2694" y1="-93" x2="111.2694" y2="-93" >
<stop offset="0" style="stop-color:#dddddd;stop-opacity:1.;"/>
<stop offset="1" style="stop-color:#aaaaaa;stop-opacity:1.;"/>
</linearGradient>
</defs>
<polygon fill="url(#l_7)" stroke="#dddddd" points="111.2694,-109 108.2694,-113 87.2694,-113 84.2694,-109 57.2694,-109 57.2694,-73 111.2694,-73 111.2694,-109"/>
<text text-anchor="middle" x="84.2694" y="-87.3" font-family="Times,serif" font-size="14.00" fill="#000000">efs</text>
</g>
<!-- ce_node_1&#45;&gt;efs -->
<g id="edge13" class="edge">
<title>ce_node_1&#45;&gt;efs</title>
<path fill="none" stroke="#000000" d="M173.3659,-217.0203C159.9918,-208.0253 145.3785,-196.6652 134.2694,-184 117.207,-164.5475 103.7594,-138.2728 95.1277,-118.613"/>
<polygon fill="#000000" stroke="#000000" points="166.2272,-211.682 174.2694,-218.5796 172.2839,-208.1723 166.2272,-211.682"/>
<polygon fill="#000000" stroke="#000000" points="98.2965,-117.1204 91.1708,-109.2797 91.8517,-119.8526 98.2965,-117.1204"/>
</g>
<!-- s3 -->
<g id="node9" class="node">
<title>s3</title>
<defs>
<linearGradient id="l_8" gradientUnits="userSpaceOnUse" x1="184.2694" y1="-20" x2="238.2694" y2="-20" >
<stop offset="0" style="stop-color:#dddddd;stop-opacity:1.;"/>
<stop offset="1" style="stop-color:#aaaaaa;stop-opacity:1.;"/>
</linearGradient>
</defs>
<polygon fill="url(#l_8)" stroke="#dddddd" points="238.2694,-36 235.2694,-40 214.2694,-40 211.2694,-36 184.2694,-36 184.2694,0 238.2694,0 238.2694,-36"/>
<text text-anchor="middle" x="211.2694" y="-14.3" font-family="Times,serif" font-size="14.00" fill="#000000">s3</text>
</g>
<!-- ce_node_1&#45;&gt;s3 -->
<g id="edge15" class="edge">
<title>ce_node_1&#45;&gt;s3</title>
<path fill="none" stroke="#000000" d="M173.158,-217.6395C169.501,-215.6933 165.8252,-213.7828 162.2694,-212 135.241,-198.4488 124.5728,-201.9866 100.2694,-184 54.0075,-149.7622 1.0583,-118.2817 35.2694,-72 51.8283,-49.5987 127.4401,-32.6671 174.0062,-24.1428"/>
<polygon fill="#000000" stroke="#000000" points="164.2163,-215.153 174.2694,-218.4984 168.4967,-209.614 164.2163,-215.153"/>
<polygon fill="#000000" stroke="#000000" points="174.8049,-27.5557 184.035,-22.3542 173.5758,-20.6644 174.8049,-27.5557"/>
</g>
<!-- dynamodb -->
<g id="node10" class="node">
<title>dynamodb</title>
<defs>
<linearGradient id="l_9" gradientUnits="userSpaceOnUse" x1="399.2694" y1="-91" x2="473.2694" y2="-91" >
<stop offset="0" style="stop-color:#dddddd;stop-opacity:1.;"/>
<stop offset="1" style="stop-color:#aaaaaa;stop-opacity:1.;"/>
</linearGradient>
</defs>
<path fill="url(#l_9)" stroke="#dddddd" d="M473.2694,-105.7273C473.2694,-107.5331 456.6854,-109 436.2694,-109 415.8534,-109 399.2694,-107.5331 399.2694,-105.7273 399.2694,-105.7273 399.2694,-76.2727 399.2694,-76.2727 399.2694,-74.4669 415.8534,-73 436.2694,-73 456.6854,-73 473.2694,-74.4669 473.2694,-76.2727 473.2694,-76.2727 473.2694,-105.7273 473.2694,-105.7273"/>
<path fill="none" stroke="#dddddd" d="M473.2694,-105.7273C473.2694,-103.9214 456.6854,-102.4545 436.2694,-102.4545 415.8534,-102.4545 399.2694,-103.9214 399.2694,-105.7273"/>
<text text-anchor="middle" x="436.2694" y="-87.3" font-family="Times,serif" font-size="14.00" fill="#000000">dynamodb</text>
</g>
<!-- ce_node_1&#45;&gt;dynamodb -->
<g id="edge17" class="edge">
<title>ce_node_1&#45;&gt;dynamodb</title>
<path fill="none" stroke="#000000" d="M266.9548,-208.7644C313.884,-195.0019 339.222,-215.5547 382.2694,-184 404.3683,-167.8011 418.8764,-139.6113 427.2344,-118.5023"/>
<polygon fill="#000000" stroke="#000000" points="265.6451,-205.5117 257.2694,-212 267.8632,-212.151 265.6451,-205.5117"/>
<polygon fill="#000000" stroke="#000000" points="430.5327,-119.6744 430.7483,-109.0818 423.9741,-117.228 430.5327,-119.6744"/>
</g>
<!-- ce_node_2&#45;&gt;admin -->
<g id="edge12" class="edge">
<title>ce_node_2&#45;&gt;admin</title>
<path fill="none" stroke="#000000" d="M288.9097,-211.5987C284.8934,-205.4907 280.6079,-198.973 276.5534,-192.8069"/>
<polygon fill="#000000" stroke="#000000" points="279.433,-208.4169 289.4043,-212 283.8438,-202.9808 279.433,-208.4169"/>
<polygon fill="#000000" stroke="#000000" points="279.2553,-190.5455 270.8368,-184.1128 273.4064,-194.3913 279.2553,-190.5455"/>
</g>
<!-- ce_node_2&#45;&gt;efs -->
<g id="edge14" class="edge">
<title>ce_node_2&#45;&gt;efs</title>
<path fill="none" stroke="#000000" d="M249.0226,-206.9471C232.5948,-197.8557 217.0323,-189.0176 209.2694,-184 175.7979,-162.3654 139.4473,-134.8267 114.62,-115.3471"/>
<polygon fill="#000000" stroke="#000000" points="247.7467,-210.2402 258.1941,-212.0013 251.1252,-204.1095 247.7467,-210.2402"/>
<polygon fill="#000000" stroke="#000000" points="116.6818,-112.5157 106.6629,-109.0701 112.3464,-118.0115 116.6818,-112.5157"/>
</g>
<!-- ce_node_2&#45;&gt;s3 -->
<g id="edge16" class="edge">
<title>ce_node_2&#45;&gt;s3</title>
<path fill="none" stroke="#000000" d="M343.6224,-233.268C395.6421,-225.8238 485.7376,-209.5382 505.2694,-184 519.908,-164.8598 505.9394,-84.1582 494.2694,-72 460.9125,-37.2474 317.5461,-24.2209 248.5938,-19.9006"/>
<polygon fill="#000000" stroke="#000000" points="350.5141,-228.5051 341.2694,-233.6808 351.7239,-235.3998 350.5141,-228.5051"/>
<polygon fill="#000000" stroke="#000000" points="248.7792,-16.4056 238.5881,-19.3024 248.3614,-23.3931 248.7792,-16.4056"/>
</g>
<!-- ce_node_2&#45;&gt;dynamodb -->
<g id="edge18" class="edge">
<title>ce_node_2&#45;&gt;dynamodb</title>
<path fill="none" stroke="#000000" d="M343.4577,-230.8969C386.7854,-221.777 454.3639,-204.6402 469.2694,-184 483.6858,-164.0371 471.5118,-137.1747 458.0612,-117.453"/>
<polygon fill="#000000" stroke="#000000" points="348.8086,-224.4893 341.2694,-231.9334 351.8052,-230.8155 348.8086,-224.4893"/>
<polygon fill="#000000" stroke="#000000" points="460.7907,-115.2549 452.088,-109.2122 455.1229,-119.3631 460.7907,-115.2549"/>
</g>
<!-- beta_node_1&#45;&gt;admin -->
<g id="edge19" class="edge">
<title>beta_node_1&#45;&gt;admin</title>
<path fill="none" stroke="#000000" d="M161.3971,-213.4362C181.0858,-203.5918 203.3781,-192.4457 221.6103,-183.3296"/>
<polygon fill="#000000" stroke="#000000" points="159.6441,-210.3995 152.265,-218.0022 162.7746,-216.6605 159.6441,-210.3995"/>
<polygon fill="#000000" stroke="#000000" points="223.4209,-186.3374 230.7999,-178.7348 220.2904,-180.0765 223.4209,-186.3374"/>
</g>
<!-- beta_node_1&#45;&gt;efs -->
<g id="edge20" class="edge">
<title>beta_node_1&#45;&gt;efs</title>
<path fill="none" stroke="#000000" d="M64.4657,-207.0801C57.4977,-200.3535 51.3183,-192.6275 47.2694,-184 36.8984,-161.901 49.0523,-136.0499 62.1324,-117.2197"/>
<polygon fill="#000000" stroke="#000000" points="62.4625,-209.9809 72.2727,-213.9823 67.099,-204.7365 62.4625,-209.9809"/>
<polygon fill="#000000" stroke="#000000" points="65.0034,-119.2239 68.1298,-109.1008 59.3729,-115.0647 65.0034,-119.2239"/>
</g>
<!-- beta_node_1&#45;&gt;s3 -->
<g id="edge21" class="edge">
<title>beta_node_1&#45;&gt;s3</title>
<path fill="none" stroke="#000000" d="M63.7937,-212.3941C52.7289,-204.5755 41.9749,-195.0651 34.2694,-184 5.4168,-142.5674 -15.3251,-112.1635 15.2694,-72 34.4284,-46.8487 122.7654,-30.4534 174.0708,-22.8769"/>
<polygon fill="#000000" stroke="#000000" points="62.0073,-215.4095 72.2702,-218.0409 65.8882,-209.5839 62.0073,-215.4095"/>
<polygon fill="#000000" stroke="#000000" points="174.7109,-26.321 184.1127,-21.4366 173.717,-19.392 174.7109,-26.321"/>
</g>
<!-- beta_node_1&#45;&gt;dynamodb -->
<g id="edge22" class="edge">
<title>beta_node_1&#45;&gt;dynamodb</title>
<path fill="none" stroke="#000000" d="M161.6579,-212.9224C162.5314,-212.604 163.4024,-212.2962 164.2694,-212 225.1422,-191.2062 247.2189,-209.5131 306.2694,-184 345.3463,-167.1166 384.2697,-137.0745 409.1928,-115.7055"/>
<polygon fill="#000000" stroke="#000000" points="160.2496,-209.7161 152.2648,-216.6799 162.8495,-216.2154 160.2496,-209.7161"/>
<polygon fill="#000000" stroke="#000000" points="411.5342,-118.3077 416.7752,-109.1 406.9361,-113.0296 411.5342,-118.3077"/>
</g>
<!-- admin&#45;&gt;efs -->
<g id="edge8" class="edge">
<title>admin&#45;&gt;efs</title>
<path fill="none" stroke="#000000" d="M221.8028,-149.4912C192.2475,-136.9217 150.7828,-119.2873 121.1239,-106.6738"/>
<polygon fill="#000000" stroke="#000000" points="220.5098,-152.7446 231.0819,-153.4375 223.2494,-146.303 220.5098,-152.7446"/>
<polygon fill="#000000" stroke="#000000" points="122.1247,-103.2961 111.5526,-102.6032 119.3851,-109.7377 122.1247,-103.2961"/>
</g>
<!-- admin&#45;&gt;s3 -->
<g id="edge9" class="edge">
<title>admin&#45;&gt;s3</title>
<path fill="none" stroke="#000000" d="M278.8734,-137.2499C290.292,-118.2493 300.1795,-92.8227 289.2694,-72 280.3875,-55.0483 263.4993,-42.3602 247.7025,-33.5576"/>
<polygon fill="#000000" stroke="#000000" points="275.8726,-135.4454 273.4097,-145.75 281.7611,-139.2305 275.8726,-135.4454"/>
<polygon fill="#000000" stroke="#000000" points="249.0832,-30.3306 238.5964,-28.8208 245.8528,-36.5407 249.0832,-30.3306"/>
</g>
<!-- admin&#45;&gt;dynamodb -->
<g id="edge10" class="edge">
<title>admin&#45;&gt;dynamodb</title>
<path fill="none" stroke="#000000" d="M294.7072,-149.8517C322.1798,-138.4305 360.0653,-122.6804 389.7305,-110.3476"/>
<polygon fill="#000000" stroke="#000000" points="293.194,-146.6903 285.3038,-153.761 295.8812,-153.154 293.194,-146.6903"/>
<polygon fill="#000000" stroke="#000000" points="391.1594,-113.5441 399.0496,-106.4734 388.4722,-107.0804 391.1594,-113.5441"/>
</g>
<!-- build -->
<g id="node11" class="node">
<title>build</title>
<defs>
<linearGradient id="l_10" gradientUnits="userSpaceOnUse" x1="154.7694" y1="-91" x2="267.7694" y2="-91" >
<stop offset="0" style="stop-color:#dddddd;stop-opacity:1.;"/>
<stop offset="1" style="stop-color:#aaaaaa;stop-opacity:1.;"/>
</linearGradient>
</defs>
<polygon fill="url(#l_10)" stroke="#dddddd" points="267.7694,-110 154.7694,-110 154.7694,-72 267.7694,-72 267.7694,-110"/>
<text text-anchor="middle" x="211.2694" y="-94.8" font-family="Times,serif" font-size="14.00" fill="#000000">Compiler Builder</text>
<text text-anchor="middle" x="211.2694" y="-79.8" font-family="Times,serif" font-size="14.00" fill="#000000">EC2</text>
</g>
<!-- admin&#45;&gt;build -->
<g id="edge6" class="edge">
<title>admin&#45;&gt;build</title>
<path fill="none" stroke="#000000" d="M240.6681,-137.2873C236.826,-131.238 232.759,-124.8347 228.9152,-118.7827"/>
<polygon fill="#000000" stroke="#000000" points="237.8499,-139.3783 246.1658,-145.9432 243.7588,-135.6253 237.8499,-139.3783"/>
<polygon fill="#000000" stroke="#000000" points="231.8113,-116.8143 223.4954,-110.2495 225.9024,-120.5673 231.8113,-116.8143"/>
</g>
<!-- build&#45;&gt;s3 -->
<g id="edge7" class="edge">
<title>build&#45;&gt;s3</title>
<path fill="none" stroke="#000000" d="M211.2694,-61.748C211.2694,-56.7788 211.2694,-51.6228 211.2694,-46.6688"/>
<polygon fill="#000000" stroke="#000000" points="207.7695,-61.8201 211.2694,-71.8201 214.7695,-61.8201 207.7695,-61.8201"/>
<polygon fill="#000000" stroke="#000000" points="214.7695,-46.2973 211.2694,-36.2973 207.7695,-46.2974 214.7695,-46.2973"/>
</g>
</g>
</svg>
