<?xml version="1.0" encoding="UTF-8" standalone="no"?>
<!DOCTYPE svg PUBLIC "-//W3C//DTD SVG 1.1//EN"
 "http://www.w3.org/Graphics/SVG/1.1/DTD/svg11.dtd">
<!-- Generated by graphviz version 2.42.4 (0)
 -->
<!-- Title: compiler_explorer Pages: 1 -->
<svg width="1700pt" height="680pt"
 viewBox="0.00 0.00 1700.00 680.00" xmlns="http://www.w3.org/2000/svg" xmlns:xlink="http://www.w3.org/1999/xlink">
<g id="graph0" class="graph" transform="scale(1 1) rotate(0) translate(4 676)">
<title>compiler_explorer</title>
<polygon fill="white" stroke="transparent" points="-4,4 -4,-676 1696,-676 1696,4 -4,4"/>
<g id="clust1" class="cluster">
<title>cluster_ce_nodes</title>
<polygon fill="#99dd99" stroke="#99dd99" points="81,-161 81,-399 458,-399 458,-161 81,-161"/>
<text text-anchor="middle" x="269.5" y="-383.8" font-family="Times,serif" font-size="14.00">Production</text>
</g>
<g id="clust2" class="cluster">
<title>cluster_ce_nodes_linux</title>
<polygon fill="#ad99dd" stroke="#ad99dd" points="89,-293 89,-368 450,-368 450,-293 89,-293"/>
<text text-anchor="middle" x="269.5" y="-352.8" font-family="Times,serif" font-size="14.00">Linux</text>
</g>
<g id="clust3" class="cluster">
<title>cluster_ce_nodes_win</title>
<polygon fill="#cd99dd" stroke="#cd99dd" points="89,-169 89,-244 256,-244 256,-169 89,-169"/>
<text text-anchor="middle" x="172.5" y="-228.8" font-family="Times,serif" font-size="14.00">Windows</text>
</g>
<g id="clust4" class="cluster">
<title>cluster_ce_nodes_gpu</title>
<polygon fill="#74c974" stroke="#74c974" points="283,-169 283,-244 450,-244 450,-169 283,-169"/>
<text text-anchor="middle" x="366.5" y="-228.8" font-family="Times,serif" font-size="14.00">GPU</text>
</g>
<g id="clust5" class="cluster">
<title>cluster_staging_nodes</title>
<polygon fill="#99dddd" stroke="#99dddd" points="1029,-293 1029,-368 1101,-368 1101,-293 1029,-293"/>
<text text-anchor="middle" x="1065" y="-352.8" font-family="Times,serif" font-size="14.00">Staging</text>
</g>
<g id="clust6" class="cluster">
<title>cluster_lambda</title>
<polygon fill="#44aa88" stroke="#44aa88" points="1232,-418 1232,-493 1442,-493 1442,-418 1232,-418"/>
<text text-anchor="middle" x="1337" y="-477.8" font-family="Times,serif" font-size="14.00">Lambda</text>
</g>
<g id="clust7" class="cluster">
<title>cluster_gh_actions</title>
<polygon fill="#7799ee" stroke="#7799ee" points="1226,-67 1226,-144 1536,-144 1536,-67 1226,-67"/>
<text text-anchor="middle" x="1381" y="-128.8" font-family="Times,serif" font-size="14.00">Actions Runners</text>
</g>
<!-- outside -->
<g id="node1" class="node">
<title>outside</title>
<defs>
<linearGradient id="l_0" gradientUnits="userSpaceOnUse" x1="1249.49" y1="-654" x2="1380.51" y2="-654" >
<stop offset="0" style="stop-color:#dddddd;stop-opacity:1.;"/>
<stop offset="1" style="stop-color:#aaaaaa;stop-opacity:1.;"/>
</linearGradient>
</defs>
<polygon fill="url(#l_0)" stroke="#dddddd" points="1380.51,-672 1276.3,-672 1249.49,-636 1353.7,-636 1380.51,-672"/>
<text text-anchor="middle" x="1315" y="-650.3" font-family="Times,serif" font-size="14.00">outside</text>
</g>
<!-- cloudfront -->
<g id="node2" class="node">
<title>cloudfront</title>
<defs>
<linearGradient id="l_1" gradientUnits="userSpaceOnUse" x1="1256.51" y1="-567" x2="1373.49" y2="-567" >
<stop offset="0" style="stop-color:#dddddd;stop-opacity:1.;"/>
<stop offset="1" style="stop-color:#aaaaaa;stop-opacity:1.;"/>
</linearGradient>
</defs>
<ellipse fill="url(#l_1)" stroke="#dddddd" cx="1315" cy="-567" rx="58.49" ry="18"/>
<text text-anchor="middle" x="1315" y="-563.3" font-family="Times,serif" font-size="14.00">cloudfront</text>
</g>
<!-- outside&#45;&gt;cloudfront -->
<g id="edge3" class="edge">
<title>outside&#45;&gt;cloudfront</title>
<path fill="none" stroke="black" d="M1315,-625.73C1315,-616.06 1315,-605.17 1315,-595.48"/>
<polygon fill="black" stroke="black" points="1311.5,-625.8 1315,-635.8 1318.5,-625.8 1311.5,-625.8"/>
<polygon fill="black" stroke="black" points="1318.5,-595.18 1315,-585.18 1311.5,-595.18 1318.5,-595.18"/>
<text text-anchor="middle" x="1334" y="-606.8" font-family="Times,serif" font-size="14.00">https</text>
</g>
<!-- alb -->
<g id="node4" class="node">
<title>alb</title>
<defs>
<linearGradient id="l_2" gradientUnits="userSpaceOnUse" x1="963.5" y1="-444" x2="1166.5" y2="-444" >
<stop offset="0" style="stop-color:#dddddd;stop-opacity:1.;"/>
<stop offset="1" style="stop-color:#aaaaaa;stop-opacity:1.;"/>
</linearGradient>
</defs>
<polygon fill="url(#l_2)" stroke="#dddddd" points="1166.5,-462 963.5,-462 963.5,-426 1166.5,-426 1166.5,-462"/>
<text text-anchor="middle" x="1065" y="-440.3" font-family="Times,serif" font-size="14.00">Application Load Balancer</text>
</g>
<!-- cloudfront&#45;&gt;alb -->
<g id="edge4" class="edge">
<title>cloudfront&#45;&gt;alb</title>
<path fill="none" stroke="black" d="M1247.2,-563.33C1189.64,-559.68 1112.86,-551.1 1090,-531 1073.35,-516.36 1067.49,-491.35 1065.57,-472.06"/>
<polygon fill="black" stroke="black" points="1247.15,-566.83 1257.34,-563.94 1247.57,-559.85 1247.15,-566.83"/>
<polygon fill="black" stroke="black" points="1069.06,-471.76 1064.86,-462.04 1062.07,-472.26 1069.06,-471.76"/>
<text text-anchor="middle" x="1170" y="-519.8" font-family="Times,serif" font-size="14.00">dynamic content</text>
<text text-anchor="middle" x="1170" y="-504.8" font-family="Times,serif" font-size="14.00">compiler&#45;explorer.com</text>
</g>
<!-- gh_actions -->
<g id="node14" class="node">
<title>gh_actions</title>
<defs>
<linearGradient id="l_3" gradientUnits="userSpaceOnUse" x1="1337.5" y1="-444" x2="1434.5" y2="-444" >
<stop offset="0" style="stop-color:#dddddd;stop-opacity:1.;"/>
<stop offset="1" style="stop-color:#aaaaaa;stop-opacity:1.;"/>
</linearGradient>
</defs>
<polygon fill="url(#l_3)" stroke="#dddddd" points="1434.5,-462 1337.5,-462 1337.5,-426 1434.5,-426 1434.5,-462"/>
<text text-anchor="middle" x="1386" y="-440.3" font-family="Times,serif" font-size="14.00">GH Actions</text>
</g>
<!-- cloudfront&#45;&gt;gh_actions -->
<g id="edge7" class="edge">
<title>cloudfront&#45;&gt;gh_actions</title>
<path fill="none" stroke="black" d="M1330.02,-540.41C1342.02,-519.96 1358.77,-491.41 1370.81,-470.88"/>
<polygon fill="black" stroke="black" points="1326.91,-538.78 1324.87,-549.18 1332.95,-542.32 1326.91,-538.78"/>
<polygon fill="black" stroke="black" points="1373.94,-472.47 1375.98,-462.07 1367.9,-468.93 1373.94,-472.47"/>
<text text-anchor="middle" x="1392.5" y="-512.3" font-family="Times,serif" font-size="14.00">github.com</text>
</g>
<!-- lambda_stats -->
<g id="node15" class="node">
<title>lambda_stats</title>
<defs>
<linearGradient id="l_4" gradientUnits="userSpaceOnUse" x1="1240" y1="-444" x2="1294" y2="-444" >
<stop offset="0" style="stop-color:#dddddd;stop-opacity:1.;"/>
<stop offset="1" style="stop-color:#aaaaaa;stop-opacity:1.;"/>
</linearGradient>
</defs>
<polygon fill="url(#l_4)" stroke="#dddddd" points="1294,-462 1240,-462 1240,-426 1294,-426 1294,-462"/>
<text text-anchor="middle" x="1267" y="-440.3" font-family="Times,serif" font-size="14.00">Stats</text>
</g>
<!-- cloudfront&#45;&gt;lambda_stats -->
<g id="edge6" class="edge">
<title>cloudfront&#45;&gt;lambda_stats</title>
<path fill="none" stroke="black" d="M1278.55,-544.64C1274.32,-540.65 1270.6,-536.1 1268,-531 1258.85,-513.04 1259.07,-490.11 1261.33,-472.44"/>
<polygon fill="black" stroke="black" points="1276.63,-547.59 1286.59,-551.23 1281.07,-542.18 1276.63,-547.59"/>
<polygon fill="black" stroke="black" points="1264.84,-472.64 1262.93,-462.22 1257.92,-471.56 1264.84,-472.64"/>
<text text-anchor="middle" x="1286" y="-512.3" font-family="Times,serif" font-size="14.00">stats</text>
</g>
<!-- s3 -->
<g id="node21" class="node">
<title>s3</title>
<defs>
<linearGradient id="l_5" gradientUnits="userSpaceOnUse" x1="1031" y1="-21" x2="1085" y2="-21" >
<stop offset="0" style="stop-color:#dddddd;stop-opacity:1.;"/>
<stop offset="1" style="stop-color:#aaaaaa;stop-opacity:1.;"/>
</linearGradient>
</defs>
<polygon fill="url(#l_5)" stroke="#dddddd" points="1085,-37 1082,-41 1061,-41 1058,-37 1031,-37 1031,-1 1085,-1 1085,-37"/>
<text text-anchor="middle" x="1058" y="-15.3" font-family="Times,serif" font-size="14.00">s3</text>
</g>
<!-- cloudfront&#45;&gt;s3 -->
<g id="edge5" class="edge">
<title>cloudfront&#45;&gt;s3</title>
<path fill="none" stroke="black" d="M1383.33,-564.83C1465.64,-559.38 1593,-536.21 1593,-445 1593,-445 1593,-445 1593,-93 1593,-42.72 1217.31,-25.45 1095.58,-21.17"/>
<polygon fill="black" stroke="black" points="1383.05,-561.34 1373.28,-565.43 1383.47,-568.33 1383.05,-561.34"/>
<polygon fill="black" stroke="black" points="1095.38,-17.66 1085.27,-20.82 1095.14,-24.66 1095.38,-17.66"/>
<text text-anchor="middle" x="1642.5" y="-270.8" font-family="Times,serif" font-size="14.00">static content</text>
<text text-anchor="middle" x="1642.5" y="-255.8" font-family="Times,serif" font-size="14.00">ce&#45;cdn.net</text>
</g>
<!-- sqs -->
<g id="node3" class="node">
<title>sqs</title>
<defs>
<linearGradient id="l_6" gradientUnits="userSpaceOnUse" x1="1427" y1="-319" x2="1481" y2="-319" >
<stop offset="0" style="stop-color:#dddddd;stop-opacity:1.;"/>
<stop offset="1" style="stop-color:#aaaaaa;stop-opacity:1.;"/>
</linearGradient>
</defs>
<ellipse fill="url(#l_6)" stroke="#dddddd" cx="1454" cy="-319" rx="27" ry="18"/>
<text text-anchor="middle" x="1454" y="-315.3" font-family="Times,serif" font-size="14.00">sqs</text>
</g>
<!-- action_runner_1 -->
<g id="node16" class="node">
<title>action_runner_1</title>
<defs>
<linearGradient id="l_7" gradientUnits="userSpaceOnUse" x1="1458.5" y1="-94" x2="1527.5" y2="-94" >
<stop offset="0" style="stop-color:#dddddd;stop-opacity:1.;"/>
<stop offset="1" style="stop-color:#aaaaaa;stop-opacity:1.;"/>
</linearGradient>
</defs>
<polygon fill="url(#l_7)" stroke="#dddddd" points="1527.5,-113 1458.5,-113 1458.5,-75 1527.5,-75 1527.5,-113"/>
<text text-anchor="middle" x="1493" y="-97.8" font-family="Times,serif" font-size="14.00">Runner</text>
<text text-anchor="middle" x="1493" y="-82.8" font-family="Times,serif" font-size="14.00">EC2</text>
</g>
<!-- sqs&#45;&gt;action_runner_1 -->
<g id="edge2" class="edge">
<title>sqs&#45;&gt;action_runner_1</title>
<path fill="none" stroke="black" d="M1458.72,-291C1464.63,-257.24 1474.9,-198.49 1482.67,-154.09"/>
<polygon fill="black" stroke="black" points="1455.27,-290.42 1457,-300.87 1462.17,-291.62 1455.27,-290.42"/>
<polygon fill="black" stroke="black" points="1486.16,-154.45 1484.43,-144 1479.26,-153.25 1486.16,-154.45"/>
</g>
<!-- ce_node_1 -->
<g id="node5" class="node">
<title>ce_node_1</title>
<defs>
<linearGradient id="l_8" gradientUnits="userSpaceOnUse" x1="388" y1="-319" x2="442" y2="-319" >
<stop offset="0" style="stop-color:#dddddd;stop-opacity:1.;"/>
<stop offset="1" style="stop-color:#aaaaaa;stop-opacity:1.;"/>
</linearGradient>
</defs>
<polygon fill="url(#l_8)" stroke="#dddddd" points="442,-337 388,-337 388,-301 442,-301 442,-337"/>
<text text-anchor="middle" x="415" y="-315.3" font-family="Times,serif" font-size="14.00">EC2</text>
</g>
<!-- alb&#45;&gt;ce_node_1 -->
<g id="edge8" class="edge">
<title>alb&#45;&gt;ce_node_1</title>
<path fill="none" stroke="black" d="M965.12,-424.1C825.4,-397.66 576.56,-350.57 468.05,-330.04"/>
<polygon fill="black" stroke="black" points="964.49,-427.54 974.96,-425.96 965.79,-420.66 964.49,-427.54"/>
<polygon fill="black" stroke="black" points="468.47,-326.56 458,-328.14 467.17,-333.43 468.47,-326.56"/>
</g>
<!-- staging_node_1 -->
<g id="node13" class="node">
<title>staging_node_1</title>
<defs>
<linearGradient id="l_9" gradientUnits="userSpaceOnUse" x1="1038" y1="-319" x2="1092" y2="-319" >
<stop offset="0" style="stop-color:#dddddd;stop-opacity:1.;"/>
<stop offset="1" style="stop-color:#aaaaaa;stop-opacity:1.;"/>
</linearGradient>
</defs>
<polygon fill="url(#l_9)" stroke="#dddddd" points="1092,-337 1038,-337 1038,-301 1092,-301 1092,-337"/>
<text text-anchor="middle" x="1065" y="-315.3" font-family="Times,serif" font-size="14.00">EC2</text>
</g>
<!-- alb&#45;&gt;staging_node_1 -->
<g id="edge9" class="edge">
<title>alb&#45;&gt;staging_node_1</title>
<path fill="none" stroke="black" d="M1065,-415.7C1065,-404.64 1065,-391.41 1065,-378.37"/>
<polygon fill="black" stroke="black" points="1061.5,-415.9 1065,-425.9 1068.5,-415.9 1061.5,-415.9"/>
<polygon fill="black" stroke="black" points="1068.5,-378 1065,-368 1061.5,-378 1068.5,-378"/>
</g>
<!-- ce_node_1_win -->
<g id="node9" class="node">
<title>ce_node_1_win</title>
<defs>
<linearGradient id="l_10" gradientUnits="userSpaceOnUse" x1="194" y1="-195" x2="248" y2="-195" >
<stop offset="0" style="stop-color:#dddddd;stop-opacity:1.;"/>
<stop offset="1" style="stop-color:#aaaaaa;stop-opacity:1.;"/>
</linearGradient>
</defs>
<polygon fill="url(#l_10)" stroke="#dddddd" points="248,-213 194,-213 194,-177 248,-177 248,-213"/>
<text text-anchor="middle" x="221" y="-191.3" font-family="Times,serif" font-size="14.00">EC2</text>
</g>
<!-- ce_node_1&#45;&gt;ce_node_1_win -->
<g id="edge25" class="edge">
<title>ce_node_1&#45;&gt;ce_node_1_win</title>
<path fill="none" stroke="black" d="M357.38,-288.41C319.81,-269.05 277.01,-246.82 273,-244 269.95,-241.86 266.89,-239.55 263.87,-237.14"/>
<polygon fill="black" stroke="black" points="355.8,-291.54 366.29,-293 359,-285.31 355.8,-291.54"/>
<polygon fill="black" stroke="black" points="265.93,-234.29 256,-230.59 261.45,-239.67 265.93,-234.29"/>
</g>
<!-- ce_node_1_gpu -->
<g id="node11" class="node">
<title>ce_node_1_gpu</title>
<defs>
<linearGradient id="l_11" gradientUnits="userSpaceOnUse" x1="388" y1="-195" x2="442" y2="-195" >
<stop offset="0" style="stop-color:#dddddd;stop-opacity:1.;"/>
<stop offset="1" style="stop-color:#aaaaaa;stop-opacity:1.;"/>
</linearGradient>
</defs>
<polygon fill="url(#l_11)" stroke="#dddddd" points="442,-213 388,-213 388,-177 442,-177 442,-213"/>
<text text-anchor="middle" x="415" y="-191.3" font-family="Times,serif" font-size="14.00">EC2</text>
</g>
<!-- ce_node_1&#45;&gt;ce_node_1_gpu -->
<g id="edge26" class="edge">
<title>ce_node_1&#45;&gt;ce_node_1_gpu</title>
<path fill="none" stroke="black" d="M415,-290.65C415,-279.8 415,-266.89 415,-254.14"/>
<polygon fill="black" stroke="black" points="411.5,-283 415,-293 418.5,-283 411.5,-283"/>
<polygon fill="black" stroke="black" points="418.5,-254 415,-244 411.5,-254 418.5,-254"/>
</g>
<!-- admin -->
<g id="node19" class="node">
<title>admin</title>
<defs>
<linearGradient id="l_12" gradientUnits="userSpaceOnUse" x1="856.5" y1="-195" x2="917.5" y2="-195" >
<stop offset="0" style="stop-color:#ddddff;stop-opacity:1.;"/>
<stop offset="1" style="stop-color:#aaaacc;stop-opacity:1.;"/>
</linearGradient>
</defs>
<polygon fill="url(#l_12)" stroke="#ddddff" points="917.5,-214 856.5,-214 856.5,-176 917.5,-176 917.5,-214"/>
<text text-anchor="middle" x="887" y="-198.8" font-family="Times,serif" font-size="14.00">admin</text>
<text text-anchor="middle" x="887" y="-183.8" font-family="Times,serif" font-size="14.00">EC2</text>
</g>
<!-- ce_node_1&#45;&gt;admin -->
<g id="edge21" class="edge">
<title>ce_node_1&#45;&gt;admin</title>
<path fill="none" stroke="black" d="M468.1,-317.04C528.76,-314.7 630.41,-307 714,-282 763.26,-267.27 815.56,-239.34 849.6,-219.3"/>
<polygon fill="black" stroke="black" points="467.87,-313.54 458,-317.39 468.11,-320.54 467.87,-313.54"/>
<polygon fill="black" stroke="black" points="851.47,-222.26 858.27,-214.14 847.89,-216.25 851.47,-222.26"/>
</g>
<!-- efs -->
<g id="node20" class="node">
<title>efs</title>
<defs>
<linearGradient id="l_13" gradientUnits="userSpaceOnUse" x1="659" y1="-96" x2="713" y2="-96" >
<stop offset="0" style="stop-color:#dddddd;stop-opacity:1.;"/>
<stop offset="1" style="stop-color:#aaaaaa;stop-opacity:1.;"/>
</linearGradient>
</defs>
<polygon fill="url(#l_13)" stroke="#dddddd" points="713,-112 710,-116 689,-116 686,-112 659,-112 659,-76 713,-76 713,-112"/>
<text text-anchor="middle" x="686" y="-90.3" font-family="Times,serif" font-size="14.00">efs</text>
</g>
<!-- ce_node_1&#45;&gt;efs -->
<g id="edge22" class="edge">
<title>ce_node_1&#45;&gt;efs</title>
<path fill="none" stroke="black" d="M468.22,-315.13C522.83,-311.13 602.98,-301.97 626,-282 673.04,-241.18 683.5,-163.4 685.63,-122.19"/>
<polygon fill="black" stroke="black" points="467.73,-311.66 458,-315.84 468.22,-318.64 467.73,-311.66"/>
<polygon fill="black" stroke="black" points="689.13,-122.2 686.02,-112.07 682.14,-121.93 689.13,-122.2"/>
</g>
<!-- ce_node_1&#45;&gt;s3 -->
<g id="edge23" class="edge">
<title>ce_node_1&#45;&gt;s3</title>
<path fill="none" stroke="black" d="M466.61,-292.2C471.33,-289.03 475.88,-285.62 480,-282 569.09,-203.74 535.35,-126.37 638,-67 702.68,-29.59 930.32,-21.96 1020.65,-20.4"/>
<polygon fill="black" stroke="black" points="464.58,-289.35 458,-297.65 468.32,-295.27 464.58,-289.35"/>
<polygon fill="black" stroke="black" points="1020.78,-23.9 1030.72,-20.24 1020.67,-16.9 1020.78,-23.9"/>
</g>
<!-- dynamodb -->
<g id="node22" class="node">
<title>dynamodb</title>
<defs>
<linearGradient id="l_14" gradientUnits="userSpaceOnUse" x1="1012.5" y1="-94" x2="1103.5" y2="-94" >
<stop offset="0" style="stop-color:#dddddd;stop-opacity:1.;"/>
<stop offset="1" style="stop-color:#aaaaaa;stop-opacity:1.;"/>
</linearGradient>
</defs>
<path fill="url(#l_14)" stroke="#dddddd" d="M1103.5,-108.73C1103.5,-110.53 1083.11,-112 1058,-112 1032.89,-112 1012.5,-110.53 1012.5,-108.73 1012.5,-108.73 1012.5,-79.27 1012.5,-79.27 1012.5,-77.47 1032.89,-76 1058,-76 1083.11,-76 1103.5,-77.47 1103.5,-79.27 1103.5,-79.27 1103.5,-108.73 1103.5,-108.73"/>
<path fill="none" stroke="#dddddd" d="M1103.5,-108.73C1103.5,-106.92 1083.11,-105.45 1058,-105.45 1032.89,-105.45 1012.5,-106.92 1012.5,-108.73"/>
<text text-anchor="middle" x="1058" y="-90.3" font-family="Times,serif" font-size="14.00">dynamodb</text>
</g>
<!-- ce_node_1&#45;&gt;dynamodb -->
<g id="edge24" class="edge">
<title>ce_node_1&#45;&gt;dynamodb</title>
<path fill="none" stroke="black" d="M468.16,-316.01C585.33,-310.76 861.52,-293.36 939,-244 987.75,-212.95 1025.35,-154.95 1044.34,-121.2"/>
<polygon fill="black" stroke="black" points="467.84,-312.52 458,-316.45 468.14,-319.51 467.84,-312.52"/>
<polygon fill="black" stroke="black" points="1047.45,-122.82 1049.2,-112.37 1041.31,-119.45 1047.45,-122.82"/>
</g>
<!-- conan -->
<g id="node24" class="node">
<title>conan</title>
<defs>
<linearGradient id="l_15" gradientUnits="userSpaceOnUse" x1="501" y1="-19" x2="563" y2="-19" >
<stop offset="0" style="stop-color:#ddddff;stop-opacity:1.;"/>
<stop offset="1" style="stop-color:#aaaacc;stop-opacity:1.;"/>
</linearGradient>
</defs>
<polygon fill="url(#l_15)" stroke="#ddddff" points="563,-38 501,-38 501,0 563,0 563,-38"/>
<text text-anchor="middle" x="532" y="-22.8" font-family="Times,serif" font-size="14.00">Conan</text>
<text text-anchor="middle" x="532" y="-7.8" font-family="Times,serif" font-size="14.00">EC2</text>
</g>
<!-- ce_node_1&#45;&gt;conan -->
<g id="edge14" class="edge">
<title>ce_node_1&#45;&gt;conan</title>
<path fill="none" stroke="black" d="M462.19,-238.91C492.97,-168.99 514.84,-89.41 525.26,-48.06"/>
<polygon fill="black" stroke="black" points="458.9,-237.71 458,-248.27 465.28,-240.58 458.9,-237.71"/>
<polygon fill="black" stroke="black" points="528.68,-48.8 527.69,-38.25 521.89,-47.11 528.68,-48.8"/>
</g>
<!-- ce_node_2 -->
<g id="node6" class="node">
<title>ce_node_2</title>
<defs>
<linearGradient id="l_16" gradientUnits="userSpaceOnUse" x1="291" y1="-319" x2="345" y2="-319" >
<stop offset="0" style="stop-color:#dddddd;stop-opacity:1.;"/>
<stop offset="1" style="stop-color:#aaaaaa;stop-opacity:1.;"/>
</linearGradient>
</defs>
<polygon fill="url(#l_16)" stroke="#dddddd" points="345,-337 291,-337 291,-301 345,-301 345,-337"/>
<text text-anchor="middle" x="318" y="-315.3" font-family="Times,serif" font-size="14.00">EC2</text>
</g>
<!-- ce_node_3 -->
<g id="node7" class="node">
<title>ce_node_3</title>
<defs>
<linearGradient id="l_17" gradientUnits="userSpaceOnUse" x1="194" y1="-319" x2="248" y2="-319" >
<stop offset="0" style="stop-color:#dddddd;stop-opacity:1.;"/>
<stop offset="1" style="stop-color:#aaaaaa;stop-opacity:1.;"/>
</linearGradient>
</defs>
<polygon fill="url(#l_17)" stroke="#dddddd" points="248,-337 194,-337 194,-301 248,-301 248,-337"/>
<text text-anchor="middle" x="221" y="-315.3" font-family="Times,serif" font-size="14.00">EC2</text>
</g>
<!-- ce_node_4 -->
<g id="node8" class="node">
<title>ce_node_4</title>
<defs>
<linearGradient id="l_18" gradientUnits="userSpaceOnUse" x1="97" y1="-319" x2="151" y2="-319" >
<stop offset="0" style="stop-color:#dddddd;stop-opacity:1.;"/>
<stop offset="1" style="stop-color:#aaaaaa;stop-opacity:1.;"/>
</linearGradient>
</defs>
<polygon fill="url(#l_18)" stroke="#dddddd" points="151,-337 97,-337 97,-301 151,-301 151,-337"/>
<text text-anchor="middle" x="124" y="-315.3" font-family="Times,serif" font-size="14.00">EC2</text>
</g>
<!-- ce_node_2_win -->
<g id="node10" class="node">
<title>ce_node_2_win</title>
<defs>
<linearGradient id="l_19" gradientUnits="userSpaceOnUse" x1="97" y1="-195" x2="151" y2="-195" >
<stop offset="0" style="stop-color:#dddddd;stop-opacity:1.;"/>
<stop offset="1" style="stop-color:#aaaaaa;stop-opacity:1.;"/>
</linearGradient>
</defs>
<polygon fill="url(#l_19)" stroke="#dddddd" points="151,-213 97,-213 97,-177 151,-177 151,-213"/>
<text text-anchor="middle" x="124" y="-191.3" font-family="Times,serif" font-size="14.00">EC2</text>
</g>
<!-- ce_node_2_gpu -->
<g id="node12" class="node">
<title>ce_node_2_gpu</title>
<defs>
<linearGradient id="l_20" gradientUnits="userSpaceOnUse" x1="291" y1="-195" x2="345" y2="-195" >
<stop offset="0" style="stop-color:#dddddd;stop-opacity:1.;"/>
<stop offset="1" style="stop-color:#aaaaaa;stop-opacity:1.;"/>
</linearGradient>
</defs>
<polygon fill="url(#l_20)" stroke="#dddddd" points="345,-213 291,-213 291,-177 345,-177 345,-213"/>
<text text-anchor="middle" x="318" y="-191.3" font-family="Times,serif" font-size="14.00">EC2</text>
</g>
<!-- staging_node_1&#45;&gt;admin -->
<g id="edge27" class="edge">
<title>staging_node_1&#45;&gt;admin</title>
<path fill="none" stroke="black" d="M1020.67,-287.62C990.18,-266.72 950.25,-239.35 921.99,-219.98"/>
<polygon fill="black" stroke="black" points="1018.77,-290.56 1029,-293.33 1022.73,-284.79 1018.77,-290.56"/>
<polygon fill="black" stroke="black" points="923.68,-216.89 913.45,-214.13 919.72,-222.67 923.68,-216.89"/>
</g>
<!-- staging_node_1&#45;&gt;efs -->
<g id="edge28" class="edge">
<title>staging_node_1&#45;&gt;efs</title>
<path fill="none" stroke="black" d="M1027.91,-311.68C980.47,-302.39 897.03,-281.89 835,-244 780.55,-210.74 731.13,-153.64 705.16,-120.62"/>
<polygon fill="black" stroke="black" points="1018.99,-309.06 1029,-312.55 1023.35,-303.59 1018.99,-309.06"/>
<polygon fill="black" stroke="black" points="707.67,-118.14 698.78,-112.38 702.14,-122.43 707.67,-118.14"/>
</g>
<!-- staging_node_1&#45;&gt;s3 -->
<g id="edge29" class="edge">
<title>staging_node_1&#45;&gt;s3</title>
<path fill="none" stroke="black" d="M1088.5,-292.75C1090.95,-289.3 1093.2,-285.68 1095,-282 1137.35,-195.31 1169.51,-152.6 1125,-67 1118.25,-54.02 1106.08,-43.87 1093.95,-36.38"/>
<polygon fill="black" stroke="black" points="1094.55,-284.58 1088.12,-293 1098.4,-290.43 1094.55,-284.58"/>
<polygon fill="black" stroke="black" points="1095.63,-33.31 1085.21,-31.4 1092.16,-39.39 1095.63,-33.31"/>
</g>
<!-- staging_node_1&#45;&gt;dynamodb -->
<g id="edge30" class="edge">
<title>staging_node_1&#45;&gt;dynamodb</title>
<path fill="none" stroke="black" d="M1064.14,-290.62C1062.8,-247.77 1060.21,-165.32 1058.86,-122.44"/>
<polygon fill="black" stroke="black" points="1059.65,-283.56 1064.46,-293 1066.59,-282.62 1059.65,-283.56"/>
<polygon fill="black" stroke="black" points="1062.35,-122.07 1058.54,-112.19 1055.36,-122.29 1062.35,-122.07"/>
</g>
<!-- gh_actions&#45;&gt;sqs -->
<g id="edge1" class="edge">
<title>gh_actions&#45;&gt;sqs</title>
<path fill="none" stroke="black" d="M1400.47,-416.82C1412.18,-395.64 1428.58,-365.99 1440.13,-345.1"/>
<polygon fill="black" stroke="black" points="1397.23,-415.45 1395.46,-425.9 1403.36,-418.84 1397.23,-415.45"/>
<polygon fill="black" stroke="black" points="1443.28,-346.62 1445.06,-336.17 1437.16,-343.23 1443.28,-346.62"/>
</g>
<!-- lambda_stats&#45;&gt;dynamodb -->
<g id="edge10" class="edge">
<title>lambda_stats&#45;&gt;dynamodb</title>
<path fill="none" stroke="black" d="M1251.36,-416.96C1212.62,-352.45 1112.5,-185.74 1073.69,-121.13"/>
<polygon fill="black" stroke="black" points="1242.67,-414.4 1252.64,-418 1247.09,-408.97 1242.67,-414.4"/>
<polygon fill="black" stroke="black" points="1076.58,-119.13 1068.43,-112.36 1070.58,-122.74 1076.58,-119.13"/>
</g>
<!-- action_runner_1&#45;&gt;s3 -->
<g id="edge11" class="edge">
<title>action_runner_1&#45;&gt;s3</title>
<path fill="none" stroke="black" d="M1427.32,-64.3C1307.49,-31.69 1162.72,-23.08 1095.57,-20.81"/>
<polygon fill="black" stroke="black" points="1426.43,-67.68 1437,-67 1428.31,-60.94 1426.43,-67.68"/>
<polygon fill="black" stroke="black" points="1095.33,-17.3 1085.22,-20.49 1095.11,-24.3 1095.33,-17.3"/>
</g>
<!-- action_runner_2 -->
<g id="node17" class="node">
<title>action_runner_2</title>
<defs>
<linearGradient id="l_21" gradientUnits="userSpaceOnUse" x1="1346.5" y1="-94" x2="1415.5" y2="-94" >
<stop offset="0" style="stop-color:#dddddd;stop-opacity:1.;"/>
<stop offset="1" style="stop-color:#aaaaaa;stop-opacity:1.;"/>
</linearGradient>
</defs>
<polygon fill="url(#l_21)" stroke="#dddddd" points="1415.5,-113 1346.5,-113 1346.5,-75 1415.5,-75 1415.5,-113"/>
<text text-anchor="middle" x="1381" y="-97.8" font-family="Times,serif" font-size="14.00">Runner</text>
<text text-anchor="middle" x="1381" y="-82.8" font-family="Times,serif" font-size="14.00">EC2</text>
</g>
<!-- action_runner_3 -->
<g id="node18" class="node">
<title>action_runner_3</title>
<defs>
<linearGradient id="l_22" gradientUnits="userSpaceOnUse" x1="1234.5" y1="-94" x2="1303.5" y2="-94" >
<stop offset="0" style="stop-color:#dddddd;stop-opacity:1.;"/>
<stop offset="1" style="stop-color:#aaaaaa;stop-opacity:1.;"/>
</linearGradient>
</defs>
<polygon fill="url(#l_22)" stroke="#dddddd" points="1303.5,-113 1234.5,-113 1234.5,-75 1303.5,-75 1303.5,-113"/>
<text text-anchor="middle" x="1269" y="-97.8" font-family="Times,serif" font-size="14.00">Runner</text>
<text text-anchor="middle" x="1269" y="-82.8" font-family="Times,serif" font-size="14.00">EC2</text>
</g>
<!-- admin&#45;&gt;efs -->
<g id="edge18" class="edge">
<title>admin&#45;&gt;efs</title>
<path fill="none" stroke="black" d="M847.02,-172.37C831.49,-164.83 813.3,-157 796,-152 769.73,-144.41 759.53,-156.09 735,-144 723.65,-138.41 713.35,-129.14 705.16,-120.16"/>
<polygon fill="black" stroke="black" points="845.8,-175.68 856.31,-177.01 848.93,-169.41 845.8,-175.68"/>
<polygon fill="black" stroke="black" points="707.7,-117.74 698.53,-112.44 702.39,-122.3 707.7,-117.74"/>
</g>
<!-- admin&#45;&gt;s3 -->
<g id="edge19" class="edge">
<title>admin&#45;&gt;s3</title>
<path fill="none" stroke="black" d="M905.26,-167.67C924.7,-140.67 957.26,-98.31 991,-67 1000.61,-58.08 1012.01,-49.48 1022.65,-42.13"/>
<polygon fill="black" stroke="black" points="902.37,-165.69 899.42,-175.86 908.07,-169.75 902.37,-165.69"/>
<polygon fill="black" stroke="black" points="1024.63,-45.01 1030.97,-36.52 1020.72,-39.2 1024.63,-45.01"/>
</g>
<!-- admin&#45;&gt;dynamodb -->
<g id="edge20" class="edge">
<title>admin&#45;&gt;dynamodb</title>
<path fill="none" stroke="black" d="M927.13,-172.84C943.35,-164.11 962.18,-153.77 979,-144 993.54,-135.55 1009.33,-125.86 1022.94,-117.35"/>
<polygon fill="black" stroke="black" points="925.08,-169.96 917.91,-177.77 928.38,-176.14 925.08,-169.96"/>
<polygon fill="black" stroke="black" points="1024.93,-120.23 1031.54,-111.94 1021.21,-114.3 1024.93,-120.23"/>
</g>
<!-- build -->
<g id="node23" class="node">
<title>build</title>
<defs>
<linearGradient id="l_23" gradientUnits="userSpaceOnUse" x1="756" y1="-94" x2="882" y2="-94" >
<stop offset="0" style="stop-color:#ddddff;stop-opacity:1.;"/>
<stop offset="1" style="stop-color:#aaaacc;stop-opacity:1.;"/>
</linearGradient>
</defs>
<polygon fill="url(#l_23)" stroke="#ddddff" points="882,-113 756,-113 756,-75 882,-75 882,-113"/>
<text text-anchor="middle" x="819" y="-97.8" font-family="Times,serif" font-size="14.00">Library Builder</text>
<text text-anchor="middle" x="819" y="-82.8" font-family="Times,serif" font-size="14.00">EC2</text>
</g>
<!-- admin&#45;&gt;build -->
<g id="edge12" class="edge">
<title>admin&#45;&gt;build</title>
<path fill="none" stroke="black" d="M868.69,-167.34C858.9,-153.09 846.9,-135.61 837.14,-121.41"/>
<polygon fill="black" stroke="black" points="865.98,-169.58 874.53,-175.84 871.75,-165.62 865.98,-169.58"/>
<polygon fill="black" stroke="black" points="839.94,-119.3 831.39,-113.04 834.17,-123.27 839.94,-119.3"/>
</g>
<!-- build&#45;&gt;s3 -->
<g id="edge13" class="edge">
<title>build&#45;&gt;s3</title>
<path fill="none" stroke="black" d="M871.97,-71.26C885.86,-65.93 900.89,-60.48 915,-56 950.43,-44.76 991.66,-34.69 1020.72,-28.08"/>
<polygon fill="black" stroke="black" points="870.62,-68.03 862.57,-74.92 873.16,-74.56 870.62,-68.03"/>
<polygon fill="black" stroke="black" points="1021.85,-31.41 1030.84,-25.8 1020.32,-24.58 1021.85,-31.41"/>
</g>
<!-- build&#45;&gt;conan -->
<g id="edge15" class="edge">
<title>build&#45;&gt;conan</title>
<path fill="none" stroke="black" d="M752.68,-71.98C746.72,-70.24 740.76,-68.56 735,-67 679.3,-51.95 614.22,-37.41 573.06,-28.59"/>
<polygon fill="black" stroke="black" points="752.1,-75.46 762.68,-74.95 754.09,-68.75 752.1,-75.46"/>
<polygon fill="black" stroke="black" points="573.64,-25.13 563.13,-26.47 572.18,-31.98 573.64,-25.13"/>
</g>
<!-- winsmb -->
<g id="node25" class="node">
<title>winsmb</title>
<defs>
<linearGradient id="l_24" gradientUnits="userSpaceOnUse" x1="0" y1="-319" x2="54" y2="-319" >
<stop offset="0" style="stop-color:#ddddff;stop-opacity:1.;"/>
<stop offset="1" style="stop-color:#aaaacc;stop-opacity:1.;"/>
</linearGradient>
</defs>
<polygon fill="url(#l_24)" stroke="#ddddff" points="54,-338 0,-338 0,-300 54,-300 54,-338"/>
<text text-anchor="middle" x="27" y="-322.8" font-family="Times,serif" font-size="14.00">SMB</text>
<text text-anchor="middle" x="27" y="-307.8" font-family="Times,serif" font-size="14.00">EC2</text>
</g>
<!-- winsmb&#45;&gt;ce_node_1_win -->
<g id="edge16" class="edge">
<title>winsmb&#45;&gt;ce_node_1_win</title>
<path fill="none" stroke="black" d="M63.18,-300.25C96.24,-283.94 142.95,-260.63 163.26,-249.27"/>
<polygon fill="black" stroke="black" points="61.47,-297.19 54.05,-304.75 64.56,-303.47 61.47,-297.19"/>
<polygon fill="black" stroke="black" points="165.24,-252.16 172,-244 161.63,-246.16 165.24,-252.16"/>
</g>
<!-- winsmb&#45;&gt;efs -->
<g id="edge17" class="edge">
<title>winsmb&#45;&gt;efs</title>
<path fill="none" stroke="black" d="M27.63,-289.66C30.08,-253.65 40.14,-192.4 79,-161 123.41,-125.11 523.08,-102.88 648.51,-96.74"/>
<polygon fill="black" stroke="black" points="24.11,-289.8 27.09,-299.97 31.11,-290.16 24.11,-289.8"/>
<polygon fill="black" stroke="black" points="648.95,-100.22 658.77,-96.24 648.61,-93.23 648.95,-100.22"/>
</g>
</g>
</svg>
