<?xml version="1.0" encoding="UTF-8" standalone="no"?>
<!DOCTYPE svg PUBLIC "-//W3C//DTD SVG 1.1//EN"
 "http://www.w3.org/Graphics/SVG/1.1/DTD/svg11.dtd">
<!-- Generated by graphviz version 2.43.0 (0)
 -->
<!-- Title: compiler_explorer Pages: 1 -->
<svg width="1142pt" height="621pt"
 viewBox="0.00 0.00 1142.00 621.00" xmlns="http://www.w3.org/2000/svg" xmlns:xlink="http://www.w3.org/1999/xlink">
<g id="graph0" class="graph" transform="scale(1 1) rotate(0) translate(4 617)">
<title>compiler_explorer</title>
<polygon fill="white" stroke="transparent" points="-4,4 -4,-617 1138,-617 1138,4 -4,4"/>
<g id="clust1" class="cluster">
<title>cluster_ce_nodes</title>
<polygon fill="#99dd99" stroke="#99dd99" points="357,-265 357,-340 621,-340 621,-265 357,-265"/>
<text text-anchor="middle" x="489" y="-324.8" font-family="Times,serif" font-size="14.00">Production</text>
</g>
<g id="clust2" class="cluster">
<title>cluster_staging_nodes</title>
<polygon fill="#99dddd" stroke="#99dddd" points="647,-265 647,-340 719,-340 719,-265 647,-265"/>
<text text-anchor="middle" x="683" y="-324.8" font-family="Times,serif" font-size="14.00">Staging</text>
</g>
<g id="clust3" class="cluster">
<title>cluster_lambda</title>
<polygon fill="#44aa88" stroke="#44aa88" points="138,-359 138,-434 348,-434 348,-359 138,-359"/>
<text text-anchor="middle" x="243" y="-418.8" font-family="Times,serif" font-size="14.00">Lambda</text>
</g>
<g id="clust4" class="cluster">
<title>cluster_gh_actions</title>
<polygon fill="#7799ee" stroke="#7799ee" points="8,-65 8,-142 318,-142 318,-65 8,-65"/>
<text text-anchor="middle" x="163" y="-126.8" font-family="Times,serif" font-size="14.00">Actions Runners</text>
</g>
<!-- outside -->
<g id="node1" class="node">
<title>outside</title>
<defs>
<linearGradient id="l_0" gradientUnits="userSpaceOnUse" x1="330.49" y1="-595" x2="461.51" y2="-595" >
<stop offset="0" style="stop-color:#dddddd;stop-opacity:1.;"/>
<stop offset="1" style="stop-color:#aaaaaa;stop-opacity:1.;"/>
</linearGradient>
</defs>
<polygon fill="url(#l_0)" stroke="#dddddd" points="461.51,-613 357.3,-613 330.49,-577 434.7,-577 461.51,-613"/>
<text text-anchor="middle" x="396" y="-591.3" font-family="Times,serif" font-size="14.00">outside</text>
</g>
<!-- cloudfront -->
<g id="node2" class="node">
<title>cloudfront</title>
<defs>
<linearGradient id="l_1" gradientUnits="userSpaceOnUse" x1="337.51" y1="-508" x2="454.49" y2="-508" >
<stop offset="0" style="stop-color:#dddddd;stop-opacity:1.;"/>
<stop offset="1" style="stop-color:#aaaaaa;stop-opacity:1.;"/>
</linearGradient>
</defs>
<ellipse fill="url(#l_1)" stroke="#dddddd" cx="396" cy="-508" rx="58.49" ry="18"/>
<text text-anchor="middle" x="396" y="-504.3" font-family="Times,serif" font-size="14.00">cloudfront</text>
</g>
<!-- outside&#45;&gt;cloudfront -->
<g id="edge3" class="edge">
<title>outside&#45;&gt;cloudfront</title>
<path fill="none" stroke="black" d="M396,-566.73C396,-557.06 396,-546.17 396,-536.48"/>
<polygon fill="black" stroke="black" points="392.5,-566.8 396,-576.8 399.5,-566.8 392.5,-566.8"/>
<polygon fill="black" stroke="black" points="399.5,-536.18 396,-526.18 392.5,-536.18 399.5,-536.18"/>
<text text-anchor="middle" x="415" y="-547.8" font-family="Times,serif" font-size="14.00">https</text>
</g>
<!-- alb -->
<g id="node4" class="node">
<title>alb</title>
<defs>
<linearGradient id="l_2" gradientUnits="userSpaceOnUse" x1="387.5" y1="-385" x2="590.5" y2="-385" >
<stop offset="0" style="stop-color:#dddddd;stop-opacity:1.;"/>
<stop offset="1" style="stop-color:#aaaaaa;stop-opacity:1.;"/>
</linearGradient>
</defs>
<polygon fill="url(#l_2)" stroke="#dddddd" points="590.5,-403 387.5,-403 387.5,-367 590.5,-367 590.5,-403"/>
<text text-anchor="middle" x="489" y="-381.3" font-family="Times,serif" font-size="14.00">Application Load Balancer</text>
</g>
<!-- cloudfront&#45;&gt;alb -->
<g id="edge4" class="edge">
<title>cloudfront&#45;&gt;alb</title>
<path fill="none" stroke="black" d="M415.19,-482.03C431.13,-461.29 453.71,-431.92 469.69,-411.13"/>
<polygon fill="black" stroke="black" points="412.25,-480.11 408.93,-490.18 417.8,-484.38 412.25,-480.11"/>
<polygon fill="black" stroke="black" points="472.56,-413.13 475.88,-403.07 467.01,-408.87 472.56,-413.13"/>
<text text-anchor="middle" x="525" y="-460.8" font-family="Times,serif" font-size="14.00">dynamic content</text>
<text text-anchor="middle" x="525" y="-445.8" font-family="Times,serif" font-size="14.00">compiler&#45;explorer.com</text>
</g>
<!-- gh_actions -->
<g id="node9" class="node">
<title>gh_actions</title>
<defs>
<linearGradient id="l_3" gradientUnits="userSpaceOnUse" x1="145.5" y1="-385" x2="242.5" y2="-385" >
<stop offset="0" style="stop-color:#dddddd;stop-opacity:1.;"/>
<stop offset="1" style="stop-color:#aaaaaa;stop-opacity:1.;"/>
</linearGradient>
</defs>
<polygon fill="url(#l_3)" stroke="#dddddd" points="242.5,-403 145.5,-403 145.5,-367 242.5,-367 242.5,-403"/>
<text text-anchor="middle" x="194" y="-381.3" font-family="Times,serif" font-size="14.00">GH Actions</text>
</g>
<!-- cloudfront&#45;&gt;gh_actions -->
<g id="edge7" class="edge">
<title>cloudfront&#45;&gt;gh_actions</title>
<path fill="none" stroke="black" d="M329.03,-501.97C302.21,-497.31 272.23,-488.51 249,-472 228.11,-457.16 213.28,-431.65 204.32,-412.26"/>
<polygon fill="black" stroke="black" points="328.72,-505.46 339.14,-503.56 329.8,-498.55 328.72,-505.46"/>
<polygon fill="black" stroke="black" points="207.5,-410.79 200.28,-403.04 201.08,-413.6 207.5,-410.79"/>
<text text-anchor="middle" x="289.5" y="-453.3" font-family="Times,serif" font-size="14.00">github.com</text>
</g>
<!-- lambda_stats -->
<g id="node10" class="node">
<title>lambda_stats</title>
<defs>
<linearGradient id="l_4" gradientUnits="userSpaceOnUse" x1="286" y1="-385" x2="340" y2="-385" >
<stop offset="0" style="stop-color:#dddddd;stop-opacity:1.;"/>
<stop offset="1" style="stop-color:#aaaaaa;stop-opacity:1.;"/>
</linearGradient>
</defs>
<polygon fill="url(#l_4)" stroke="#dddddd" points="340,-403 286,-403 286,-367 340,-367 340,-403"/>
<text text-anchor="middle" x="313" y="-381.3" font-family="Times,serif" font-size="14.00">Stats</text>
</g>
<!-- cloudfront&#45;&gt;lambda_stats -->
<g id="edge6" class="edge">
<title>cloudfront&#45;&gt;lambda_stats</title>
<path fill="none" stroke="black" d="M369.52,-483.99C365.78,-480.17 362.14,-476.11 359,-472 344.87,-453.49 332.64,-430.05 324.36,-412.32"/>
<polygon fill="black" stroke="black" points="367.12,-486.54 376.74,-490.98 371.99,-481.51 367.12,-486.54"/>
<polygon fill="black" stroke="black" points="327.5,-410.77 320.17,-403.12 321.13,-413.67 327.5,-410.77"/>
<text text-anchor="middle" x="377" y="-453.3" font-family="Times,serif" font-size="14.00">stats</text>
</g>
<!-- s3 -->
<g id="node16" class="node">
<title>s3</title>
<defs>
<linearGradient id="l_5" gradientUnits="userSpaceOnUse" x1="614" y1="-20" x2="668" y2="-20" >
<stop offset="0" style="stop-color:#dddddd;stop-opacity:1.;"/>
<stop offset="1" style="stop-color:#aaaaaa;stop-opacity:1.;"/>
</linearGradient>
</defs>
<polygon fill="url(#l_5)" stroke="#dddddd" points="668,-36 665,-40 644,-40 641,-36 614,-36 614,0 668,0 668,-36"/>
<text text-anchor="middle" x="641" y="-14.3" font-family="Times,serif" font-size="14.00">s3</text>
</g>
<!-- cloudfront&#45;&gt;s3 -->
<g id="edge5" class="edge">
<title>cloudfront&#45;&gt;s3</title>
<path fill="none" stroke="black" d="M461.98,-501.4C625.24,-486.65 1035,-443.87 1035,-386 1035,-386 1035,-386 1035,-91 1035,-54.94 776.29,-30.04 678.15,-21.9"/>
<polygon fill="black" stroke="black" points="461.24,-497.95 451.59,-502.33 461.86,-504.92 461.24,-497.95"/>
<polygon fill="black" stroke="black" points="678.33,-18.4 668.08,-21.07 677.76,-25.38 678.33,-18.4"/>
<text text-anchor="middle" x="1084.5" y="-243.8" font-family="Times,serif" font-size="14.00">static content</text>
<text text-anchor="middle" x="1084.5" y="-228.8" font-family="Times,serif" font-size="14.00">ce&#45;cdn.net</text>
</g>
<!-- sqs -->
<g id="node3" class="node">
<title>sqs</title>
<defs>
<linearGradient id="l_6" gradientUnits="userSpaceOnUse" x1="148" y1="-291" x2="202" y2="-291" >
<stop offset="0" style="stop-color:#dddddd;stop-opacity:1.;"/>
<stop offset="1" style="stop-color:#aaaaaa;stop-opacity:1.;"/>
</linearGradient>
</defs>
<ellipse fill="url(#l_6)" stroke="#dddddd" cx="175" cy="-291" rx="27" ry="18"/>
<text text-anchor="middle" x="175" y="-287.3" font-family="Times,serif" font-size="14.00">sqs</text>
</g>
<!-- action_runner_1 -->
<g id="node12" class="node">
<title>action_runner_1</title>
<defs>
<linearGradient id="l_7" gradientUnits="userSpaceOnUse" x1="128.5" y1="-92" x2="197.5" y2="-92" >
<stop offset="0" style="stop-color:#dddddd;stop-opacity:1.;"/>
<stop offset="1" style="stop-color:#aaaaaa;stop-opacity:1.;"/>
</linearGradient>
</defs>
<polygon fill="url(#l_7)" stroke="#dddddd" points="197.5,-111 128.5,-111 128.5,-73 197.5,-73 197.5,-111"/>
<text text-anchor="middle" x="163" y="-95.8" font-family="Times,serif" font-size="14.00">Runner</text>
<text text-anchor="middle" x="163" y="-80.8" font-family="Times,serif" font-size="14.00">EC2</text>
</g>
<!-- sqs&#45;&gt;action_runner_1 -->
<g id="edge2" class="edge">
<title>sqs&#45;&gt;action_runner_1</title>
<path fill="none" stroke="black" d="M173.34,-262.81C171.61,-234.38 168.84,-188.86 166.6,-152.11"/>
<polygon fill="black" stroke="black" points="169.85,-263.09 173.96,-272.86 176.84,-262.67 169.85,-263.09"/>
<polygon fill="black" stroke="black" points="170.09,-151.77 165.98,-142 163.1,-152.19 170.09,-151.77"/>
</g>
<!-- ce_node_1 -->
<g id="node6" class="node">
<title>ce_node_1</title>
<defs>
<linearGradient id="l_8" gradientUnits="userSpaceOnUse" x1="462" y1="-291" x2="516" y2="-291" >
<stop offset="0" style="stop-color:#dddddd;stop-opacity:1.;"/>
<stop offset="1" style="stop-color:#aaaaaa;stop-opacity:1.;"/>
</linearGradient>
</defs>
<polygon fill="url(#l_8)" stroke="#dddddd" points="516,-309 462,-309 462,-273 516,-273 516,-309"/>
<text text-anchor="middle" x="489" y="-287.3" font-family="Times,serif" font-size="14.00">EC2</text>
</g>
<!-- alb&#45;&gt;ce_node_1 -->
<g id="edge8" class="edge">
<title>alb&#45;&gt;ce_node_1</title>
<path fill="none" stroke="black" d="M489,-356.69C489,-354.54 489,-352.33 489,-350.08"/>
<polygon fill="black" stroke="black" points="485.5,-356.7 489,-366.7 492.5,-356.7 485.5,-356.7"/>
<polygon fill="black" stroke="black" points="492.5,-350 489,-340 485.5,-350 492.5,-350"/>
</g>
<!-- staging_node_1 -->
<g id="node8" class="node">
<title>staging_node_1</title>
<defs>
<linearGradient id="l_9" gradientUnits="userSpaceOnUse" x1="656" y1="-291" x2="710" y2="-291" >
<stop offset="0" style="stop-color:#dddddd;stop-opacity:1.;"/>
<stop offset="1" style="stop-color:#aaaaaa;stop-opacity:1.;"/>
</linearGradient>
</defs>
<polygon fill="url(#l_9)" stroke="#dddddd" points="710,-309 656,-309 656,-273 710,-273 710,-309"/>
<text text-anchor="middle" x="683" y="-287.3" font-family="Times,serif" font-size="14.00">EC2</text>
</g>
<!-- alb&#45;&gt;staging_node_1 -->
<g id="edge9" class="edge">
<title>alb&#45;&gt;staging_node_1</title>
<path fill="none" stroke="black" d="M575.58,-363.89C594.52,-357.68 613.98,-349.81 631,-340 633.66,-338.47 636.3,-336.77 638.9,-334.97"/>
<polygon fill="black" stroke="black" points="574.52,-360.56 566.04,-366.9 576.63,-367.23 574.52,-360.56"/>
<polygon fill="black" stroke="black" points="641.11,-337.68 647,-328.87 636.91,-332.08 641.11,-337.68"/>
</g>
<!-- ce_node_2 -->
<g id="node5" class="node">
<title>ce_node_2</title>
<defs>
<linearGradient id="l_10" gradientUnits="userSpaceOnUse" x1="559" y1="-291" x2="613" y2="-291" >
<stop offset="0" style="stop-color:#dddddd;stop-opacity:1.;"/>
<stop offset="1" style="stop-color:#aaaaaa;stop-opacity:1.;"/>
</linearGradient>
</defs>
<polygon fill="url(#l_10)" stroke="#dddddd" points="613,-309 559,-309 559,-273 613,-273 613,-309"/>
<text text-anchor="middle" x="586" y="-287.3" font-family="Times,serif" font-size="14.00">EC2</text>
</g>
<!-- admin -->
<g id="node14" class="node">
<title>admin</title>
<defs>
<linearGradient id="l_11" gradientUnits="userSpaceOnUse" x1="634.5" y1="-188" x2="695.5" y2="-188" >
<stop offset="0" style="stop-color:#ddddff;stop-opacity:1.;"/>
<stop offset="1" style="stop-color:#aaaacc;stop-opacity:1.;"/>
</linearGradient>
</defs>
<polygon fill="url(#l_11)" stroke="#ddddff" points="695.5,-207 634.5,-207 634.5,-169 695.5,-169 695.5,-207"/>
<text text-anchor="middle" x="665" y="-191.8" font-family="Times,serif" font-size="14.00">admin</text>
<text text-anchor="middle" x="665" y="-176.8" font-family="Times,serif" font-size="14.00">EC2</text>
</g>
<!-- ce_node_1&#45;&gt;admin -->
<g id="edge17" class="edge">
<title>ce_node_1&#45;&gt;admin</title>
<path fill="none" stroke="black" d="M541.46,-259.89C568.35,-244.46 600.56,-225.98 625.35,-211.75"/>
<polygon fill="black" stroke="black" points="539.49,-256.99 532.56,-265 542.98,-263.06 539.49,-256.99"/>
<polygon fill="black" stroke="black" points="627.37,-214.63 634.3,-206.62 623.89,-208.56 627.37,-214.63"/>
</g>
<!-- efs -->
<g id="node15" class="node">
<title>efs</title>
<defs>
<linearGradient id="l_12" gradientUnits="userSpaceOnUse" x1="829" y1="-94" x2="883" y2="-94" >
<stop offset="0" style="stop-color:#dddddd;stop-opacity:1.;"/>
<stop offset="1" style="stop-color:#aaaaaa;stop-opacity:1.;"/>
</linearGradient>
</defs>
<polygon fill="url(#l_12)" stroke="#dddddd" points="883,-110 880,-114 859,-114 856,-110 829,-110 829,-74 883,-74 883,-110"/>
<text text-anchor="middle" x="856" y="-88.3" font-family="Times,serif" font-size="14.00">efs</text>
</g>
<!-- ce_node_1&#45;&gt;efs -->
<g id="edge18" class="edge">
<title>ce_node_1&#45;&gt;efs</title>
<path fill="none" stroke="black" d="M547.78,-262.31C569.7,-257.33 580.18,-262.34 606,-255 704.95,-226.86 729.85,-208.9 808,-142 816.68,-134.57 825.61,-125.82 833.36,-117.78"/>
<polygon fill="black" stroke="black" points="546.72,-258.98 538,-265 548.57,-265.73 546.72,-258.98"/>
<polygon fill="black" stroke="black" points="836.34,-119.73 840.68,-110.07 831.26,-114.91 836.34,-119.73"/>
</g>
<!-- ce_node_1&#45;&gt;s3 -->
<g id="edge19" class="edge">
<title>ce_node_1&#45;&gt;s3</title>
<path fill="none" stroke="black" d="M467.53,-264.7C432.11,-219.79 369.99,-125.21 419,-65 441.87,-36.91 546.6,-25.43 603.66,-21.2"/>
<polygon fill="black" stroke="black" points="457.66,-262.7 468.01,-265 461.36,-256.75 457.66,-262.7"/>
<polygon fill="black" stroke="black" points="604,-24.69 613.73,-20.49 603.51,-17.7 604,-24.69"/>
</g>
<!-- dynamodb -->
<g id="node17" class="node">
<title>dynamodb</title>
<defs>
<linearGradient id="l_13" gradientUnits="userSpaceOnUse" x1="440.5" y1="-92" x2="531.5" y2="-92" >
<stop offset="0" style="stop-color:#dddddd;stop-opacity:1.;"/>
<stop offset="1" style="stop-color:#aaaaaa;stop-opacity:1.;"/>
</linearGradient>
</defs>
<path fill="url(#l_13)" stroke="#dddddd" d="M531.5,-106.73C531.5,-108.53 511.11,-110 486,-110 460.89,-110 440.5,-108.53 440.5,-106.73 440.5,-106.73 440.5,-77.27 440.5,-77.27 440.5,-75.47 460.89,-74 486,-74 511.11,-74 531.5,-75.47 531.5,-77.27 531.5,-77.27 531.5,-106.73 531.5,-106.73"/>
<path fill="none" stroke="#dddddd" d="M531.5,-106.73C531.5,-104.92 511.11,-103.45 486,-103.45 460.89,-103.45 440.5,-104.92 440.5,-106.73"/>
<text text-anchor="middle" x="486" y="-88.3" font-family="Times,serif" font-size="14.00">dynamodb</text>
</g>
<!-- ce_node_1&#45;&gt;dynamodb -->
<g id="edge20" class="edge">
<title>ce_node_1&#45;&gt;dynamodb</title>
<path fill="none" stroke="black" d="M488.58,-262.72C488.01,-225.21 486.99,-158.07 486.42,-120.46"/>
<polygon fill="black" stroke="black" points="484.57,-255.26 488.74,-265 491.55,-254.79 484.57,-255.26"/>
<polygon fill="black" stroke="black" points="489.91,-120.18 486.26,-110.24 482.92,-120.29 489.91,-120.18"/>
</g>
<!-- ce_node_3 -->
<g id="node7" class="node">
<title>ce_node_3</title>
<defs>
<linearGradient id="l_14" gradientUnits="userSpaceOnUse" x1="365" y1="-291" x2="419" y2="-291" >
<stop offset="0" style="stop-color:#dddddd;stop-opacity:1.;"/>
<stop offset="1" style="stop-color:#aaaaaa;stop-opacity:1.;"/>
</linearGradient>
</defs>
<polygon fill="url(#l_14)" stroke="#dddddd" points="419,-309 365,-309 365,-273 419,-273 419,-309"/>
<text text-anchor="middle" x="392" y="-287.3" font-family="Times,serif" font-size="14.00">EC2</text>
</g>
<!-- staging_node_1&#45;&gt;admin -->
<g id="edge21" class="edge">
<title>staging_node_1&#45;&gt;admin</title>
<path fill="none" stroke="black" d="M678.12,-262.64C675.63,-248.62 672.59,-231.57 670.06,-217.41"/>
<polygon fill="black" stroke="black" points="672.35,-256.71 678.95,-265 678.96,-254.41 672.35,-256.71"/>
<polygon fill="black" stroke="black" points="673.45,-216.47 668.25,-207.24 666.56,-217.7 673.45,-216.47"/>
</g>
<!-- staging_node_1&#45;&gt;efs -->
<g id="edge22" class="edge">
<title>staging_node_1&#45;&gt;efs</title>
<path fill="none" stroke="black" d="M720.34,-287.74C746.08,-284.28 779.41,-275.77 801,-255 838.54,-218.89 850.46,-156.24 854.24,-120.35"/>
<polygon fill="black" stroke="black" points="728.52,-283.24 719,-287.9 729.34,-290.2 728.52,-283.24"/>
<polygon fill="black" stroke="black" points="857.75,-120.41 855.17,-110.13 850.78,-119.77 857.75,-120.41"/>
</g>
<!-- staging_node_1&#45;&gt;s3 -->
<g id="edge23" class="edge">
<title>staging_node_1&#45;&gt;s3</title>
<path fill="none" stroke="black" d="M720.55,-290.31C755.65,-288.78 807.93,-281.65 844,-255 915.34,-202.3 962.08,-132.88 905,-65 876.5,-31.1 744.36,-22.18 678.51,-19.84"/>
<polygon fill="black" stroke="black" points="728.12,-285.23 719,-290.62 729.49,-292.09 728.12,-285.23"/>
<polygon fill="black" stroke="black" points="678.26,-16.33 668.15,-19.5 678.04,-23.32 678.26,-16.33"/>
</g>
<!-- staging_node_1&#45;&gt;dynamodb -->
<g id="edge24" class="edge">
<title>staging_node_1&#45;&gt;dynamodb</title>
<path fill="none" stroke="black" d="M650.49,-257.49C611.09,-218.09 545.61,-152.61 510.32,-117.32"/>
<polygon fill="black" stroke="black" points="648.46,-260.41 658,-265 653.41,-255.46 648.46,-260.41"/>
<polygon fill="black" stroke="black" points="512.78,-114.83 503.24,-110.24 507.83,-119.78 512.78,-114.83"/>
</g>
<!-- gh_actions&#45;&gt;sqs -->
<g id="edge1" class="edge">
<title>gh_actions&#45;&gt;sqs</title>
<path fill="none" stroke="black" d="M188.35,-356.62C185.87,-344.64 182.98,-330.64 180.52,-318.73"/>
<polygon fill="black" stroke="black" points="184.98,-357.61 190.43,-366.7 191.83,-356.19 184.98,-357.61"/>
<polygon fill="black" stroke="black" points="183.94,-318 178.49,-308.92 177.09,-319.42 183.94,-318"/>
</g>
<!-- lambda_stats&#45;&gt;dynamodb -->
<g id="edge10" class="edge">
<title>lambda_stats&#45;&gt;dynamodb</title>
<path fill="none" stroke="black" d="M317.55,-356.79C322.44,-331.89 331.66,-294.53 347,-265 377.34,-206.58 429.4,-149.25 460.47,-117.77"/>
<polygon fill="black" stroke="black" points="314.1,-356.17 315.71,-366.64 320.98,-357.45 314.1,-356.17"/>
<polygon fill="black" stroke="black" points="463.3,-119.88 467.89,-110.33 458.35,-114.94 463.3,-119.88"/>
</g>
<!-- action_runner_2 -->
<g id="node11" class="node">
<title>action_runner_2</title>
<defs>
<linearGradient id="l_15" gradientUnits="userSpaceOnUse" x1="240.5" y1="-92" x2="309.5" y2="-92" >
<stop offset="0" style="stop-color:#dddddd;stop-opacity:1.;"/>
<stop offset="1" style="stop-color:#aaaaaa;stop-opacity:1.;"/>
</linearGradient>
</defs>
<polygon fill="url(#l_15)" stroke="#dddddd" points="309.5,-111 240.5,-111 240.5,-73 309.5,-73 309.5,-111"/>
<text text-anchor="middle" x="275" y="-95.8" font-family="Times,serif" font-size="14.00">Runner</text>
<text text-anchor="middle" x="275" y="-80.8" font-family="Times,serif" font-size="14.00">EC2</text>
</g>
<!-- action_runner_1&#45;&gt;s3 -->
<g id="edge11" class="edge">
<title>action_runner_1&#45;&gt;s3</title>
<path fill="none" stroke="black" d="M228.76,-62.35C365.04,-26.25 530.58,-19.95 603.47,-19.03"/>
<polygon fill="black" stroke="black" points="227.73,-59 219,-65 229.57,-65.76 227.73,-59"/>
<polygon fill="black" stroke="black" points="603.8,-22.53 613.77,-18.93 603.73,-15.53 603.8,-22.53"/>
</g>
<!-- action_runner_3 -->
<g id="node13" class="node">
<title>action_runner_3</title>
<defs>
<linearGradient id="l_16" gradientUnits="userSpaceOnUse" x1="16.5" y1="-92" x2="85.5" y2="-92" >
<stop offset="0" style="stop-color:#dddddd;stop-opacity:1.;"/>
<stop offset="1" style="stop-color:#aaaaaa;stop-opacity:1.;"/>
</linearGradient>
</defs>
<polygon fill="url(#l_16)" stroke="#dddddd" points="85.5,-111 16.5,-111 16.5,-73 85.5,-73 85.5,-111"/>
<text text-anchor="middle" x="51" y="-95.8" font-family="Times,serif" font-size="14.00">Runner</text>
<text text-anchor="middle" x="51" y="-80.8" font-family="Times,serif" font-size="14.00">EC2</text>
</g>
<!-- admin&#45;&gt;efs -->
<g id="edge14" class="edge">
<title>admin&#45;&gt;efs</title>
<path fill="none" stroke="black" d="M704.74,-165.97C717.6,-159.96 732.12,-153.97 746,-150 772.71,-142.36 783.13,-154.38 808,-142 819.21,-136.42 829.32,-127.15 837.33,-118.17"/>
<polygon fill="black" stroke="black" points="703.2,-162.83 695.71,-170.33 706.24,-169.14 703.2,-162.83"/>
<polygon fill="black" stroke="black" points="840.06,-120.36 843.8,-110.45 834.69,-115.86 840.06,-120.36"/>
</g>
<!-- admin&#45;&gt;s3 -->
<g id="edge15" class="edge">
<title>admin&#45;&gt;s3</title>
<path fill="none" stroke="black" d="M647.69,-159.58C644.92,-153.96 642.49,-147.94 641,-142 632.93,-109.73 634.68,-71.2 637.29,-45.97"/>
<polygon fill="black" stroke="black" points="644.71,-161.43 652.54,-168.57 650.87,-158.11 644.71,-161.43"/>
<polygon fill="black" stroke="black" points="640.77,-46.36 638.43,-36.03 633.81,-45.56 640.77,-46.36"/>
</g>
<!-- admin&#45;&gt;dynamodb -->
<g id="edge16" class="edge">
<title>admin&#45;&gt;dynamodb</title>
<path fill="none" stroke="black" d="M624.98,-170.44C606.46,-162.4 584.32,-152.28 565,-142 549.92,-133.98 533.81,-124.21 520.1,-115.52"/>
<polygon fill="black" stroke="black" points="623.73,-173.71 634.3,-174.44 626.49,-167.28 623.73,-173.71"/>
<polygon fill="black" stroke="black" points="521.78,-112.44 511.47,-109.99 518,-118.33 521.78,-112.44"/>
</g>
<!-- build -->
<g id="node18" class="node">
<title>build</title>
<defs>
<linearGradient id="l_17" gradientUnits="userSpaceOnUse" x1="662" y1="-92" x2="786" y2="-92" >
<stop offset="0" style="stop-color:#ddddff;stop-opacity:1.;"/>
<stop offset="1" style="stop-color:#aaaacc;stop-opacity:1.;"/>
</linearGradient>
</defs>
<polygon fill="url(#l_17)" stroke="#ddddff" points="786,-111 662,-111 662,-73 786,-73 786,-111"/>
<text text-anchor="middle" x="724" y="-95.8" font-family="Times,serif" font-size="14.00">Legacy Builder</text>
<text text-anchor="middle" x="724" y="-80.8" font-family="Times,serif" font-size="14.00">EC2</text>
</g>
<!-- admin&#45;&gt;build -->
<g id="edge12" class="edge">
<title>admin&#45;&gt;build</title>
<path fill="none" stroke="black" d="M681.87,-160.12C689.82,-147.46 699.26,-132.41 707.19,-119.78"/>
<polygon fill="black" stroke="black" points="678.73,-158.55 676.38,-168.88 684.66,-162.27 678.73,-158.55"/>
<polygon fill="black" stroke="black" points="710.31,-121.4 712.66,-111.07 704.38,-117.68 710.31,-121.4"/>
</g>
<!-- build&#45;&gt;s3 -->
<g id="edge13" class="edge">
<title>build&#45;&gt;s3</title>
<path fill="none" stroke="black" d="M695.43,-66.22C686.69,-58.64 677.1,-50.32 668.44,-42.8"/>
<polygon fill="black" stroke="black" points="693.21,-68.92 703.06,-72.83 697.8,-63.63 693.21,-68.92"/>
<polygon fill="black" stroke="black" points="670.64,-40.08 660.79,-36.17 666.06,-45.37 670.64,-40.08"/>
</g>
</g>
</svg>
