<?xml version="1.0" encoding="UTF-8" standalone="no"?>
<!DOCTYPE svg PUBLIC "-//W3C//DTD SVG 1.1//EN"
 "http://www.w3.org/Graphics/SVG/1.1/DTD/svg11.dtd">
<!-- Generated by graphviz version 2.40.1 (20161225.0304)
 -->
<!-- Title: foo Pages: 1 -->
<svg width="348pt" height="409pt"
 viewBox="0.00 0.00 347.69 409.00" xmlns="http://www.w3.org/2000/svg" xmlns:xlink="http://www.w3.org/1999/xlink">
<g id="graph0" class="graph" transform="scale(1 1) rotate(0) translate(4 405)">
<title>foo</title>
<polygon fill="#ffffff" stroke="transparent" points="-4,4 -4,-405 343.6897,-405 343.6897,4 -4,4"/>
<g id="clust1" class="cluster">
<title>cluster_ce_nodes</title>
<polygon fill="#d3d3d3" stroke="#d3d3d3" points="44.0058,-138 44.0058,-213 186.0058,-213 186.0058,-138 44.0058,-138"/>
<text text-anchor="middle" x="115.0058" y="-197.8" font-family="Times,serif" font-size="14.00" fill="#000000">Nodes</text>
</g>
<g id="clust2" class="cluster">
<title>cluster_beta_nodes</title>
<polygon fill="#d3d3d3" stroke="#d3d3d3" points="242.0058,-138 242.0058,-213 322.0058,-213 322.0058,-138 242.0058,-138"/>
<text text-anchor="middle" x="282.0058" y="-197.8" font-family="Times,serif" font-size="14.00" fill="#000000">Beta Nodes</text>
</g>
<!-- outside -->
<g id="node1" class="node">
<title>outside</title>
<polygon fill="none" stroke="#000000" points="204.2353,-401 119.559,-401 97.7762,-365 182.4525,-365 204.2353,-401"/>
<text text-anchor="middle" x="151.0058" y="-379.3" font-family="Times,serif" font-size="14.00" fill="#000000">outside</text>
</g>
<!-- cloudfront -->
<g id="node2" class="node">
<title>cloudfront</title>
<ellipse fill="none" stroke="#000000" cx="151.0058" cy="-311" rx="47.3916" ry="18"/>
<text text-anchor="middle" x="151.0058" y="-307.3" font-family="Times,serif" font-size="14.00" fill="#000000">cloudfront</text>
</g>
<!-- outside&#45;&gt;cloudfront -->
<g id="edge1" class="edge">
<title>outside&#45;&gt;cloudfront</title>
<path fill="none" stroke="#000000" d="M151.0058,-354.5726C151.0058,-349.6792 151.0058,-344.5904 151.0058,-339.6901"/>
<polygon fill="#000000" stroke="#000000" points="147.5059,-354.8313 151.0058,-364.8314 154.5059,-354.8314 147.5059,-354.8313"/>
<polygon fill="#000000" stroke="#000000" points="154.5059,-339.4132 151.0058,-329.4133 147.5059,-339.4133 154.5059,-339.4132"/>
</g>
<!-- alb -->
<g id="node3" class="node">
<title>alb</title>
<polygon fill="none" stroke="#000000" points="233.0058,-257 69.0058,-257 69.0058,-221 233.0058,-221 233.0058,-257"/>
<text text-anchor="middle" x="151.0058" y="-235.3" font-family="Times,serif" font-size="14.00" fill="#000000">Application Load Balancer</text>
</g>
<!-- cloudfront&#45;&gt;alb -->
<g id="edge2" class="edge">
<title>cloudfront&#45;&gt;alb</title>
<path fill="none" stroke="#000000" d="M151.0058,-282.5726C151.0058,-277.6792 151.0058,-272.5904 151.0058,-267.6901"/>
<polygon fill="#000000" stroke="#000000" points="147.5059,-282.8313 151.0058,-292.8314 154.5059,-282.8314 147.5059,-282.8313"/>
<polygon fill="#000000" stroke="#000000" points="154.5059,-267.4132 151.0058,-257.4133 147.5059,-267.4133 154.5059,-267.4132"/>
</g>
<!-- ce_node_1 -->
<g id="node4" class="node">
<title>ce_node_1</title>
<polygon fill="none" stroke="#000000" points="106.0058,-182 52.0058,-182 52.0058,-146 106.0058,-146 106.0058,-182"/>
<text text-anchor="middle" x="79.0058" y="-160.3" font-family="Times,serif" font-size="14.00" fill="#000000">EC2</text>
</g>
<!-- alb&#45;&gt;ce_node_1 -->
<g id="edge3" class="edge">
<title>alb&#45;&gt;ce_node_1</title>
<path fill="none" stroke="#000000" d="M116.3101,-214.2672C115.8685,-213.8466 115.4334,-213.4242 115.0058,-213 108.3262,-206.3746 101.9342,-198.4234 96.4391,-190.8725"/>
<polygon fill="#000000" stroke="#000000" points="114.0598,-216.9485 123.9057,-220.8614 118.6489,-211.6626 114.0598,-216.9485"/>
<polygon fill="#000000" stroke="#000000" points="99.0381,-188.482 90.4368,-182.2958 93.303,-192.4956 99.0381,-188.482"/>
</g>
<!-- ce_node_2 -->
<g id="node5" class="node">
<title>ce_node_2</title>
<polygon fill="none" stroke="#000000" points="178.0058,-182 124.0058,-182 124.0058,-146 178.0058,-146 178.0058,-182"/>
<text text-anchor="middle" x="151.0058" y="-160.3" font-family="Times,serif" font-size="14.00" fill="#000000">EC2</text>
</g>
<!-- alb&#45;&gt;ce_node_2 -->
<g id="edge4" class="edge">
<title>alb&#45;&gt;ce_node_2</title>
<path fill="none" stroke="#000000" d="M151.0058,-210.6072C151.0058,-204.6665 151.0058,-198.4012 151.0058,-192.4581"/>
<polygon fill="#000000" stroke="#000000" points="147.5059,-210.8446 151.0058,-220.8446 154.5059,-210.8446 147.5059,-210.8446"/>
<polygon fill="#000000" stroke="#000000" points="154.5059,-192.2481 151.0058,-182.2482 147.5059,-192.2482 154.5059,-192.2481"/>
</g>
<!-- beta_node_1 -->
<g id="node6" class="node">
<title>beta_node_1</title>
<polygon fill="none" stroke="#000000" points="309.0058,-182 255.0058,-182 255.0058,-146 309.0058,-146 309.0058,-182"/>
<text text-anchor="middle" x="282.0058" y="-160.3" font-family="Times,serif" font-size="14.00" fill="#000000">EC2</text>
</g>
<!-- alb&#45;&gt;beta_node_1 -->
<g id="edge5" class="edge">
<title>alb&#45;&gt;beta_node_1</title>
<path fill="none" stroke="#000000" d="M191.5252,-215.8019C208.8046,-205.9091 228.8123,-194.4543 245.6128,-184.8357"/>
<polygon fill="#000000" stroke="#000000" points="189.6566,-212.8386 182.7172,-220.8446 193.1346,-218.9134 189.6566,-212.8386"/>
<polygon fill="#000000" stroke="#000000" points="247.6394,-187.7085 254.5788,-179.7025 244.1614,-181.6336 247.6394,-187.7085"/>
</g>
<!-- admin -->
<g id="node7" class="node">
<title>admin</title>
<polygon fill="none" stroke="#000000" points="178.0058,-110 124.0058,-110 124.0058,-72 178.0058,-72 178.0058,-110"/>
<text text-anchor="middle" x="151.0058" y="-94.8" font-family="Times,serif" font-size="14.00" fill="#000000">admin</text>
<text text-anchor="middle" x="151.0058" y="-79.8" font-family="Times,serif" font-size="14.00" fill="#000000">EC2</text>
</g>
<!-- ce_node_1&#45;&gt;admin -->
<g id="edge6" class="edge">
<title>ce_node_1&#45;&gt;admin</title>
<path fill="none" stroke="#000000" d="M103.9408,-138.7186C110.7376,-131.8275 118.1171,-124.3454 124.9731,-117.3942"/>
<polygon fill="#000000" stroke="#000000" points="101.3338,-136.3776 96.8035,-145.9551 106.3176,-141.2931 101.3338,-136.3776"/>
<polygon fill="#000000" stroke="#000000" points="127.6245,-119.6903 132.1548,-110.1128 122.6407,-114.7748 127.6245,-119.6903"/>
</g>
<!-- efs -->
<g id="node8" class="node">
<title>efs</title>
<polygon fill="none" stroke="#000000" points="120.0058,-36 117.0058,-40 96.0058,-40 93.0058,-36 66.0058,-36 66.0058,0 120.0058,0 120.0058,-36"/>
<text text-anchor="middle" x="93.0058" y="-14.3" font-family="Times,serif" font-size="14.00" fill="#000000">efs</text>
</g>
<!-- ce_node_1&#45;&gt;efs -->
<g id="edge9" class="edge">
<title>ce_node_1&#45;&gt;efs</title>
<path fill="none" stroke="#000000" d="M43.4081,-142.1001C27.0544,-131.2062 10.3266,-118.5708 6.0058,-110 -1.597,-94.9192 -2.2044,-86.759 6.0058,-72 16.7501,-52.6853 37.5784,-39.3947 56.1617,-30.8325"/>
<polygon fill="#000000" stroke="#000000" points="41.5694,-145.0795 51.8583,-147.6074 45.3915,-139.215 41.5694,-145.0795"/>
<polygon fill="#000000" stroke="#000000" points="57.7996,-33.9383 65.6097,-26.7791 55.0397,-27.5053 57.7996,-33.9383"/>
</g>
<!-- s3 -->
<g id="node9" class="node">
<title>s3</title>
<polygon fill="none" stroke="#000000" points="192.0058,-36 189.0058,-40 168.0058,-40 165.0058,-36 138.0058,-36 138.0058,0 192.0058,0 192.0058,-36"/>
<text text-anchor="middle" x="165.0058" y="-14.3" font-family="Times,serif" font-size="14.00" fill="#000000">s3</text>
</g>
<!-- ce_node_1&#45;&gt;s3 -->
<g id="edge13" class="edge">
<title>ce_node_1&#45;&gt;s3</title>
<path fill="none" stroke="#000000" d="M56.6389,-137.9002C42.9877,-118.6398 30.523,-92.3525 44.0058,-72 65.0703,-40.2026 88.2349,-51.264 128.5256,-35.753"/>
<polygon fill="#000000" stroke="#000000" points="53.8862,-140.0631 62.697,-145.9471 59.4786,-135.8529 53.8862,-140.0631"/>
<polygon fill="#000000" stroke="#000000" points="130.1284,-38.875 137.9675,-31.7477 127.3947,-32.4309 130.1284,-38.875"/>
</g>
<!-- dynamodb -->
<g id="node10" class="node">
<title>dynamodb</title>
<path fill="none" stroke="#000000" d="M284.0058,-32.7273C284.0058,-34.5331 267.4218,-36 247.0058,-36 226.5898,-36 210.0058,-34.5331 210.0058,-32.7273 210.0058,-32.7273 210.0058,-3.2727 210.0058,-3.2727 210.0058,-1.4669 226.5898,0 247.0058,0 267.4218,0 284.0058,-1.4669 284.0058,-3.2727 284.0058,-3.2727 284.0058,-32.7273 284.0058,-32.7273"/>
<path fill="none" stroke="#000000" d="M284.0058,-32.7273C284.0058,-30.9214 267.4218,-29.4545 247.0058,-29.4545 226.5898,-29.4545 210.0058,-30.9214 210.0058,-32.7273"/>
<text text-anchor="middle" x="247.0058" y="-14.3" font-family="Times,serif" font-size="14.00" fill="#000000">dynamodb</text>
</g>
<!-- ce_node_1&#45;&gt;dynamodb -->
<g id="edge17" class="edge">
<title>ce_node_1&#45;&gt;dynamodb</title>
<path fill="none" stroke="#000000" d="M83.8765,-135.9298C88.682,-115.8401 97.8912,-89.379 115.0058,-72 116.6554,-70.3249 162.8356,-51.6199 200.1118,-36.6879"/>
<polygon fill="#000000" stroke="#000000" points="80.4408,-135.2588 81.7464,-145.7728 87.2824,-136.7394 80.4408,-135.2588"/>
<polygon fill="#000000" stroke="#000000" points="201.8694,-39.7545 209.8536,-32.7901 199.269,-33.2554 201.8694,-39.7545"/>
</g>
<!-- ce_node_2&#45;&gt;admin -->
<g id="edge7" class="edge">
<title>ce_node_2&#45;&gt;admin</title>
<path fill="none" stroke="#000000" d="M151.0058,-135.9019C151.0058,-130.7808 151.0058,-125.4263 151.0058,-120.2722"/>
<polygon fill="#000000" stroke="#000000" points="147.5059,-135.955 151.0058,-145.9551 154.5059,-135.9551 147.5059,-135.955"/>
<polygon fill="#000000" stroke="#000000" points="154.5059,-120.1128 151.0058,-110.1128 147.5059,-120.1129 154.5059,-120.1128"/>
</g>
<!-- ce_node_2&#45;&gt;efs -->
<g id="edge10" class="edge">
<title>ce_node_2&#45;&gt;efs</title>
<path fill="none" stroke="#000000" d="M130.7213,-137.6162C124.9698,-129.1541 119.1521,-119.5044 115.0058,-110 106.0715,-89.5203 100.4197,-64.8233 97.0849,-46.1763"/>
<polygon fill="#000000" stroke="#000000" points="127.9846,-139.808 136.6182,-145.9489 133.6985,-135.7643 127.9846,-139.808"/>
<polygon fill="#000000" stroke="#000000" points="100.5247,-45.5254 95.4232,-36.2397 93.6206,-46.68 100.5247,-45.5254"/>
</g>
<!-- ce_node_2&#45;&gt;s3 -->
<g id="edge14" class="edge">
<title>ce_node_2&#45;&gt;s3</title>
<path fill="none" stroke="#000000" d="M172.9758,-137.7238C178.6806,-129.3771 184.0493,-119.7645 187.0058,-110 193.5005,-88.5494 186.8184,-63.8236 179.1627,-45.4107"/>
<polygon fill="#000000" stroke="#000000" points="170.0643,-135.7761 166.9963,-145.9169 175.7186,-139.9027 170.0643,-135.7761"/>
<polygon fill="#000000" stroke="#000000" points="182.2959,-43.8438 175.0115,-36.1504 175.9084,-46.7073 182.2959,-43.8438"/>
</g>
<!-- ce_node_2&#45;&gt;dynamodb -->
<g id="edge18" class="edge">
<title>ce_node_2&#45;&gt;dynamodb</title>
<path fill="none" stroke="#000000" d="M178.6495,-138.6711C187.1036,-130.0806 196.0075,-120.0919 203.0058,-110 216.9457,-89.8979 228.6553,-64.6955 236.4816,-45.7539"/>
<polygon fill="#000000" stroke="#000000" points="176.0559,-136.3133 171.3953,-145.8279 180.9721,-141.2964 176.0559,-136.3133"/>
<polygon fill="#000000" stroke="#000000" points="239.8341,-46.7977 240.3153,-36.2138 233.3389,-44.1876 239.8341,-46.7977"/>
</g>
<!-- beta_node_1&#45;&gt;admin -->
<g id="edge8" class="edge">
<title>beta_node_1&#45;&gt;admin</title>
<path fill="none" stroke="#000000" d="M246.0314,-143.9532C227.678,-133.7258 205.4133,-121.3187 187.0499,-111.0857"/>
<polygon fill="#000000" stroke="#000000" points="244.4235,-147.0639 254.8625,-148.8744 247.8309,-140.9492 244.4235,-147.0639"/>
<polygon fill="#000000" stroke="#000000" points="188.5533,-107.9167 178.1143,-106.1063 185.1458,-114.0314 188.5533,-107.9167"/>
</g>
<!-- beta_node_1&#45;&gt;efs -->
<g id="edge11" class="edge">
<title>beta_node_1&#45;&gt;efs</title>
<path fill="none" stroke="#000000" d="M258.8297,-138.3161C240.4648,-118.7996 213.5606,-91.9949 187.0058,-72 176.8307,-64.3385 151.1382,-49.6833 129.1812,-37.5715"/>
<polygon fill="#000000" stroke="#000000" points="256.297,-140.7323 265.6709,-145.67 261.4222,-135.9643 256.297,-140.7323"/>
<polygon fill="#000000" stroke="#000000" points="130.8193,-34.478 120.3688,-32.735 127.4514,-40.6146 130.8193,-34.478"/>
</g>
<!-- beta_node_1&#45;&gt;s3 -->
<g id="edge15" class="edge">
<title>beta_node_1&#45;&gt;s3</title>
<path fill="none" stroke="#000000" d="M295.754,-136.3958C303.3752,-116.8074 308.9628,-90.7662 296.0058,-72 272.005,-37.2387 245.9609,-51.8693 201.7815,-35.8275"/>
<polygon fill="#000000" stroke="#000000" points="292.4877,-135.1332 291.7966,-145.7054 298.9298,-137.8716 292.4877,-135.1332"/>
<polygon fill="#000000" stroke="#000000" points="202.9708,-32.5334 192.387,-32.0491 200.3587,-39.0278 202.9708,-32.5334"/>
</g>
<!-- beta_node_1&#45;&gt;dynamodb -->
<g id="edge19" class="edge">
<title>beta_node_1&#45;&gt;dynamodb</title>
<path fill="none" stroke="#000000" d="M314.0419,-138.7052C322.1014,-130.5017 329.6833,-120.7204 334.0058,-110 340.3214,-94.3364 342.2159,-86.759 334.0058,-72 325.1201,-56.0266 309.3376,-44.1733 293.6319,-35.7073"/>
<polygon fill="#000000" stroke="#000000" points="311.4327,-136.356 306.5859,-145.7772 316.25,-141.4348 311.4327,-136.356"/>
<polygon fill="#000000" stroke="#000000" points="294.955,-32.4556 284.4461,-31.1085 291.8212,-38.715 294.955,-32.4556"/>
</g>
<!-- admin&#45;&gt;efs -->
<g id="edge12" class="edge">
<title>admin&#45;&gt;efs</title>
<path fill="none" stroke="#000000" d="M129.3318,-63.7207C124.3331,-57.4292 119.0237,-50.7467 114.0522,-44.4895"/>
<polygon fill="#000000" stroke="#000000" points="126.8058,-66.1678 135.7669,-71.8201 132.2865,-61.8132 126.8058,-66.1678"/>
<polygon fill="#000000" stroke="#000000" points="116.5045,-41.9497 107.5434,-36.2973 111.0238,-46.3042 116.5045,-41.9497"/>
</g>
<!-- admin&#45;&gt;s3 -->
<g id="edge16" class="edge">
<title>admin&#45;&gt;s3</title>
<path fill="none" stroke="#000000" d="M156.6157,-61.748C157.5945,-56.6445 158.611,-51.344 159.5846,-46.2676"/>
<polygon fill="#000000" stroke="#000000" points="153.1303,-61.3398 154.6841,-71.8201 160.005,-62.6583 153.1303,-61.3398"/>
<polygon fill="#000000" stroke="#000000" points="163.0505,-46.7776 161.4967,-36.2973 156.1758,-45.4591 163.0505,-46.7776"/>
</g>
<!-- admin&#45;&gt;dynamodb -->
<g id="edge20" class="edge">
<title>admin&#45;&gt;dynamodb</title>
<path fill="none" stroke="#000000" d="M184.4475,-65.5703C194.5376,-57.8977 205.5757,-49.5041 215.5329,-41.9325"/>
<polygon fill="#000000" stroke="#000000" points="182.0701,-62.9811 176.2286,-71.8201 186.3072,-68.5532 182.0701,-62.9811"/>
<polygon fill="#000000" stroke="#000000" points="217.7568,-44.6384 223.5983,-35.7994 213.5197,-39.0664 217.7568,-44.6384"/>
</g>
</g>
</svg>
