<?xml version="1.0" encoding="UTF-8" standalone="no"?>
<!DOCTYPE svg PUBLIC "-//W3C//DTD SVG 1.1//EN"
 "http://www.w3.org/Graphics/SVG/1.1/DTD/svg11.dtd">
<!-- Generated by graphviz version 2.43.0 (0)
 -->
<!-- Title: compiler_explorer Pages: 1 -->
<svg width="1190pt" height="549pt"
 viewBox="0.00 0.00 1189.76 549.00" xmlns="http://www.w3.org/2000/svg" xmlns:xlink="http://www.w3.org/1999/xlink">
<g id="graph0" class="graph" transform="scale(1 1) rotate(0) translate(4 545)">
<title>compiler_explorer</title>
<polygon fill="white" stroke="transparent" points="-4,4 -4,-545 1185.76,-545 1185.76,4 -4,4"/>
<g id="clust1" class="cluster">
<title>cluster_ce_nodes</title>
<polygon fill="#99dd99" stroke="#99dd99" points="12.76,-229 12.76,-304 276.76,-304 276.76,-229 12.76,-229"/>
<text text-anchor="middle" x="144.76" y="-288.8" font-family="Times,serif" font-size="14.00">Production</text>
</g>
<g id="clust2" class="cluster">
<title>cluster_beta_nodes</title>
<polygon fill="#dd99dd" stroke="#dd99dd" points="514.76,-229 514.76,-304 584.76,-304 584.76,-229 514.76,-229"/>
<text text-anchor="middle" x="549.76" y="-288.8" font-family="Times,serif" font-size="14.00">Beta</text>
</g>
<g id="clust3" class="cluster">
<title>cluster_staging_nodes</title>
<polygon fill="#99dddd" stroke="#99dddd" points="709.76,-229 709.76,-304 781.76,-304 781.76,-229 709.76,-229"/>
<text text-anchor="middle" x="745.76" y="-288.8" font-family="Times,serif" font-size="14.00">Staging</text>
</g>
<!-- outside -->
<g id="node1" class="node">
<title>outside</title>
<defs>
<linearGradient id="l_0" gradientUnits="userSpaceOnUse" x1="674.25" y1="-523" x2="805.26" y2="-523" >
<stop offset="0" style="stop-color:#dddddd;stop-opacity:1.;"/>
<stop offset="1" style="stop-color:#aaaaaa;stop-opacity:1.;"/>
</linearGradient>
</defs>
<polygon fill="url(#l_0)" stroke="#dddddd" points="805.26,-541 701.06,-541 674.25,-505 778.46,-505 805.26,-541"/>
<text text-anchor="middle" x="739.76" y="-519.3" font-family="Times,serif" font-size="14.00">outside</text>
</g>
<!-- cloudfront -->
<g id="node2" class="node">
<title>cloudfront</title>
<defs>
<linearGradient id="l_1" gradientUnits="userSpaceOnUse" x1="681.27" y1="-436" x2="798.25" y2="-436" >
<stop offset="0" style="stop-color:#dddddd;stop-opacity:1.;"/>
<stop offset="1" style="stop-color:#aaaaaa;stop-opacity:1.;"/>
</linearGradient>
</defs>
<ellipse fill="url(#l_1)" stroke="#dddddd" cx="739.76" cy="-436" rx="58.49" ry="18"/>
<text text-anchor="middle" x="739.76" y="-432.3" font-family="Times,serif" font-size="14.00">cloudfront</text>
</g>
<!-- outside&#45;&gt;cloudfront -->
<g id="edge1" class="edge">
<title>outside&#45;&gt;cloudfront</title>
<path fill="none" stroke="black" d="M739.76,-494.73C739.76,-485.06 739.76,-474.17 739.76,-464.48"/>
<polygon fill="black" stroke="black" points="736.26,-494.8 739.76,-504.8 743.26,-494.8 736.26,-494.8"/>
<polygon fill="black" stroke="black" points="743.26,-464.18 739.76,-454.18 736.26,-464.18 743.26,-464.18"/>
<text text-anchor="middle" x="758.76" y="-475.8" font-family="Times,serif" font-size="14.00">https</text>
</g>
<!-- alb -->
<g id="node3" class="node">
<title>alb</title>
<defs>
<linearGradient id="l_2" gradientUnits="userSpaceOnUse" x1="217.26" y1="-349" x2="420.26" y2="-349" >
<stop offset="0" style="stop-color:#dddddd;stop-opacity:1.;"/>
<stop offset="1" style="stop-color:#aaaaaa;stop-opacity:1.;"/>
</linearGradient>
</defs>
<polygon fill="url(#l_2)" stroke="#dddddd" points="420.26,-367 217.26,-367 217.26,-331 420.26,-331 420.26,-367"/>
<text text-anchor="middle" x="318.76" y="-345.3" font-family="Times,serif" font-size="14.00">Application Load Balancer</text>
</g>
<!-- cloudfront&#45;&gt;alb -->
<g id="edge2" class="edge">
<title>cloudfront&#45;&gt;alb</title>
<path fill="none" stroke="black" d="M682.47,-423.43C613.2,-409.45 495.65,-385.71 412.97,-369.02"/>
<polygon fill="black" stroke="black" points="681.78,-426.87 692.28,-425.41 683.17,-420 681.78,-426.87"/>
<polygon fill="black" stroke="black" points="413.56,-365.57 403.07,-367.02 412.18,-372.43 413.56,-365.57"/>
<text text-anchor="middle" x="613.26" y="-388.8" font-family="Times,serif" font-size="14.00">dynamic content</text>
</g>
<!-- s3 -->
<g id="node11" class="node">
<title>s3</title>
<defs>
<linearGradient id="l_3" gradientUnits="userSpaceOnUse" x1="322.76" y1="-20" x2="376.76" y2="-20" >
<stop offset="0" style="stop-color:#dddddd;stop-opacity:1.;"/>
<stop offset="1" style="stop-color:#aaaaaa;stop-opacity:1.;"/>
</linearGradient>
</defs>
<polygon fill="url(#l_3)" stroke="#dddddd" points="376.76,-36 373.76,-40 352.76,-40 349.76,-36 322.76,-36 322.76,0 376.76,0 376.76,-36"/>
<text text-anchor="middle" x="349.76" y="-14.3" font-family="Times,serif" font-size="14.00">s3</text>
</g>
<!-- cloudfront&#45;&gt;s3 -->
<g id="edge3" class="edge">
<title>cloudfront&#45;&gt;s3</title>
<path fill="none" stroke="black" d="M807.18,-431.92C907.08,-425.49 1082.76,-406.2 1082.76,-350 1082.76,-350 1082.76,-350 1082.76,-91 1082.76,-20.37 536.74,-18.03 387.22,-18.71"/>
<polygon fill="black" stroke="black" points="806.93,-428.43 797.17,-432.54 807.36,-435.42 806.93,-428.43"/>
<polygon fill="black" stroke="black" points="387.13,-15.21 377.15,-18.76 387.17,-22.21 387.13,-15.21"/>
<text text-anchor="middle" x="1132.26" y="-207.8" font-family="Times,serif" font-size="14.00">static content</text>
</g>
<!-- ce_node_1 -->
<g id="node4" class="node">
<title>ce_node_1</title>
<defs>
<linearGradient id="l_4" gradientUnits="userSpaceOnUse" x1="117.76" y1="-255" x2="171.76" y2="-255" >
<stop offset="0" style="stop-color:#dddddd;stop-opacity:1.;"/>
<stop offset="1" style="stop-color:#aaaaaa;stop-opacity:1.;"/>
</linearGradient>
</defs>
<polygon fill="url(#l_4)" stroke="#dddddd" points="171.76,-273 117.76,-273 117.76,-237 171.76,-237 171.76,-273"/>
<text text-anchor="middle" x="144.76" y="-251.3" font-family="Times,serif" font-size="14.00">EC2</text>
</g>
<!-- alb&#45;&gt;ce_node_1 -->
<g id="edge4" class="edge">
<title>alb&#45;&gt;ce_node_1</title>
<path fill="none" stroke="black" d="M242.2,-327.44C228.42,-322.39 214.35,-316.33 201.47,-309.15"/>
<polygon fill="black" stroke="black" points="241.51,-330.91 252.11,-330.92 243.83,-324.3 241.51,-330.91"/>
<polygon fill="black" stroke="black" points="203.15,-306.07 192.76,-304 199.58,-312.1 203.15,-306.07"/>
</g>
<!-- ce_node_2 -->
<g id="node5" class="node">
<title>ce_node_2</title>
<defs>
<linearGradient id="l_5" gradientUnits="userSpaceOnUse" x1="214.76" y1="-255" x2="268.76" y2="-255" >
<stop offset="0" style="stop-color:#dddddd;stop-opacity:1.;"/>
<stop offset="1" style="stop-color:#aaaaaa;stop-opacity:1.;"/>
</linearGradient>
</defs>
<polygon fill="url(#l_5)" stroke="#dddddd" points="268.76,-273 214.76,-273 214.76,-237 268.76,-237 268.76,-273"/>
<text text-anchor="middle" x="241.76" y="-251.3" font-family="Times,serif" font-size="14.00">EC2</text>
</g>
<!-- alb&#45;&gt;ce_node_2 -->
<g id="edge5" class="edge">
<title>alb&#45;&gt;ce_node_2</title>
<path fill="none" stroke="black" d="M297.74,-322.89C293.27,-317.56 288.42,-311.75 283.49,-305.86"/>
<polygon fill="black" stroke="black" points="295.17,-325.27 304.27,-330.7 300.54,-320.78 295.17,-325.27"/>
<polygon fill="black" stroke="black" points="285.85,-303.24 276.75,-297.81 280.49,-307.73 285.85,-303.24"/>
</g>
<!-- ce_node_3 -->
<g id="node6" class="node">
<title>ce_node_3</title>
<defs>
<linearGradient id="l_6" gradientUnits="userSpaceOnUse" x1="20.76" y1="-255" x2="74.76" y2="-255" >
<stop offset="0" style="stop-color:#dddddd;stop-opacity:1.;"/>
<stop offset="1" style="stop-color:#aaaaaa;stop-opacity:1.;"/>
</linearGradient>
</defs>
<polygon fill="url(#l_6)" stroke="#dddddd" points="74.76,-273 20.76,-273 20.76,-237 74.76,-237 74.76,-273"/>
<text text-anchor="middle" x="47.76" y="-251.3" font-family="Times,serif" font-size="14.00">EC2</text>
</g>
<!-- alb&#45;&gt;ce_node_3 -->
<g id="edge6" class="edge">
<title>alb&#45;&gt;ce_node_3</title>
<path fill="none" stroke="black" d="M206.76,-339.04C173.14,-333.29 136.78,-323.92 105.02,-308.69"/>
<polygon fill="black" stroke="black" points="206.65,-342.57 217.08,-340.71 207.77,-335.66 206.65,-342.57"/>
<polygon fill="black" stroke="black" points="106.26,-305.39 95.76,-304 103.1,-311.64 106.26,-305.39"/>
</g>
<!-- beta_node_1 -->
<g id="node7" class="node">
<title>beta_node_1</title>
<defs>
<linearGradient id="l_7" gradientUnits="userSpaceOnUse" x1="522.76" y1="-255" x2="576.76" y2="-255" >
<stop offset="0" style="stop-color:#dddddd;stop-opacity:1.;"/>
<stop offset="1" style="stop-color:#aaaaaa;stop-opacity:1.;"/>
</linearGradient>
</defs>
<polygon fill="url(#l_7)" stroke="#dddddd" points="576.76,-273 522.76,-273 522.76,-237 576.76,-237 576.76,-273"/>
<text text-anchor="middle" x="549.76" y="-251.3" font-family="Times,serif" font-size="14.00">EC2</text>
</g>
<!-- alb&#45;&gt;beta_node_1 -->
<g id="edge7" class="edge">
<title>alb&#45;&gt;beta_node_1</title>
<path fill="none" stroke="black" d="M371.09,-327.16C414.32,-309.94 474.6,-285.93 512.9,-270.68"/>
<polygon fill="black" stroke="black" points="369.66,-323.96 361.66,-330.91 372.25,-330.46 369.66,-323.96"/>
<polygon fill="black" stroke="black" points="507.19,-277.22 514.76,-269.81 504.22,-270.88 507.19,-277.22"/>
</g>
<!-- staging_node_1 -->
<g id="node8" class="node">
<title>staging_node_1</title>
<defs>
<linearGradient id="l_8" gradientUnits="userSpaceOnUse" x1="718.76" y1="-255" x2="772.76" y2="-255" >
<stop offset="0" style="stop-color:#dddddd;stop-opacity:1.;"/>
<stop offset="1" style="stop-color:#aaaaaa;stop-opacity:1.;"/>
</linearGradient>
</defs>
<polygon fill="url(#l_8)" stroke="#dddddd" points="772.76,-273 718.76,-273 718.76,-237 772.76,-237 772.76,-273"/>
<text text-anchor="middle" x="745.76" y="-251.3" font-family="Times,serif" font-size="14.00">EC2</text>
</g>
<!-- alb&#45;&gt;staging_node_1 -->
<g id="edge8" class="edge">
<title>alb&#45;&gt;staging_node_1</title>
<path fill="none" stroke="black" d="M430.38,-334.08C480.91,-326.79 541.2,-316.71 594.76,-304 634.31,-294.62 678.52,-280.07 708.83,-269.45"/>
<polygon fill="black" stroke="black" points="429.81,-330.63 420.41,-335.5 430.8,-337.56 429.81,-330.63"/>
<polygon fill="black" stroke="black" points="702.22,-276.45 709.76,-269.01 699.22,-270.13 702.22,-276.45"/>
</g>
<!-- admin -->
<g id="node9" class="node">
<title>admin</title>
<defs>
<linearGradient id="l_9" gradientUnits="userSpaceOnUse" x1="260.26" y1="-167" x2="321.26" y2="-167" >
<stop offset="0" style="stop-color:#ddddff;stop-opacity:1.;"/>
<stop offset="1" style="stop-color:#aaaacc;stop-opacity:1.;"/>
</linearGradient>
</defs>
<polygon fill="url(#l_9)" stroke="#ddddff" points="321.26,-186 260.26,-186 260.26,-148 321.26,-148 321.26,-186"/>
<text text-anchor="middle" x="290.76" y="-170.8" font-family="Times,serif" font-size="14.00">admin</text>
<text text-anchor="middle" x="290.76" y="-155.8" font-family="Times,serif" font-size="14.00">EC2</text>
</g>
<!-- ce_node_1&#45;&gt;admin -->
<g id="edge14" class="edge">
<title>ce_node_1&#45;&gt;admin</title>
<path fill="none" stroke="black" d="M195.95,-223.84C214.17,-213.11 234.38,-201.21 251.45,-191.15"/>
<polygon fill="black" stroke="black" points="194.03,-220.91 187.19,-229 197.58,-226.95 194.03,-220.91"/>
<polygon fill="black" stroke="black" points="253.41,-194.06 260.25,-185.97 249.86,-188.03 253.41,-194.06"/>
</g>
<!-- efs -->
<g id="node10" class="node">
<title>efs</title>
<defs>
<linearGradient id="l_10" gradientUnits="userSpaceOnUse" x1="551.76" y1="-94" x2="605.76" y2="-94" >
<stop offset="0" style="stop-color:#dddddd;stop-opacity:1.;"/>
<stop offset="1" style="stop-color:#aaaaaa;stop-opacity:1.;"/>
</linearGradient>
</defs>
<polygon fill="url(#l_10)" stroke="#dddddd" points="605.76,-110 602.76,-114 581.76,-114 578.76,-110 551.76,-110 551.76,-74 605.76,-74 605.76,-110"/>
<text text-anchor="middle" x="578.76" y="-88.3" font-family="Times,serif" font-size="14.00">efs</text>
</g>
<!-- ce_node_1&#45;&gt;efs -->
<g id="edge17" class="edge">
<title>ce_node_1&#45;&gt;efs</title>
<path fill="none" stroke="black" d="M202.78,-226.94C257.29,-218.42 374.67,-235.67 418.76,-219 465.76,-201.22 467.23,-179.03 506.76,-148 520.15,-137.48 535.1,-126.02 547.88,-116.3"/>
<polygon fill="black" stroke="black" points="201.84,-223.55 192.76,-229 203.26,-230.41 201.84,-223.55"/>
<polygon fill="black" stroke="black" points="550.09,-119.02 555.94,-110.19 545.86,-113.44 550.09,-119.02"/>
</g>
<!-- ce_node_1&#45;&gt;s3 -->
<g id="edge20" class="edge">
<title>ce_node_1&#45;&gt;s3</title>
<path fill="none" stroke="black" d="M86.83,-224.3C80.91,-221.24 76.95,-219.16 76.76,-219 25.93,-175.43 3.22,-129.09 39.76,-73 69.12,-27.92 236.84,-20.24 312.61,-19.1"/>
<polygon fill="black" stroke="black" points="85.46,-227.53 95.95,-229 88.67,-221.31 85.46,-227.53"/>
<polygon fill="black" stroke="black" points="312.71,-22.6 322.67,-18.98 312.63,-15.6 312.71,-22.6"/>
</g>
<!-- dynamodb -->
<g id="node12" class="node">
<title>dynamodb</title>
<defs>
<linearGradient id="l_11" gradientUnits="userSpaceOnUse" x1="86.26" y1="-92" x2="177.26" y2="-92" >
<stop offset="0" style="stop-color:#dddddd;stop-opacity:1.;"/>
<stop offset="1" style="stop-color:#aaaaaa;stop-opacity:1.;"/>
</linearGradient>
</defs>
<path fill="url(#l_11)" stroke="#dddddd" d="M177.26,-106.73C177.26,-108.53 156.86,-110 131.76,-110 106.65,-110 86.26,-108.53 86.26,-106.73 86.26,-106.73 86.26,-77.27 86.26,-77.27 86.26,-75.47 106.65,-74 131.76,-74 156.86,-74 177.26,-75.47 177.26,-77.27 177.26,-77.27 177.26,-106.73 177.26,-106.73"/>
<path fill="none" stroke="#dddddd" d="M177.26,-106.73C177.26,-104.92 156.86,-103.45 131.76,-103.45 106.65,-103.45 86.26,-104.92 86.26,-106.73"/>
<text text-anchor="middle" x="131.76" y="-88.3" font-family="Times,serif" font-size="14.00">dynamodb</text>
</g>
<!-- ce_node_1&#45;&gt;dynamodb -->
<g id="edge23" class="edge">
<title>ce_node_1&#45;&gt;dynamodb</title>
<path fill="none" stroke="black" d="M102,-222.23C91.41,-211.96 81.47,-199.66 75.76,-186 65.98,-162.63 63.62,-151.24 75.76,-129 78.49,-123.99 82.25,-119.58 86.55,-115.71"/>
<polygon fill="black" stroke="black" points="99.65,-224.82 109.39,-229 104.38,-219.66 99.65,-224.82"/>
<polygon fill="black" stroke="black" points="88.99,-118.24 94.74,-109.34 84.7,-112.72 88.99,-118.24"/>
</g>
<!-- ce_node_2&#45;&gt;admin -->
<g id="edge15" class="edge">
<title>ce_node_2&#45;&gt;admin</title>
<path fill="none" stroke="black" d="M256.69,-227.79C262.6,-217.41 269.41,-205.47 275.37,-195.01"/>
<polygon fill="black" stroke="black" points="259.44,-219.1 255.67,-229 264.79,-223.61 259.44,-219.1"/>
<polygon fill="black" stroke="black" points="278.44,-196.69 280.35,-186.27 272.36,-193.22 278.44,-196.69"/>
</g>
<!-- ce_node_2&#45;&gt;efs -->
<g id="edge18" class="edge">
<title>ce_node_2&#45;&gt;efs</title>
<path fill="none" stroke="black" d="M279.17,-251.37C336.13,-246.86 441.5,-236.43 474.76,-219 517.14,-196.78 548.84,-149.11 565.52,-119.19"/>
<polygon fill="black" stroke="black" points="285.21,-245.75 276.76,-252.14 287.35,-252.42 285.21,-245.75"/>
<polygon fill="black" stroke="black" points="568.72,-120.62 570.4,-110.16 562.57,-117.29 568.72,-120.62"/>
</g>
<!-- ce_node_2&#45;&gt;s3 -->
<g id="edge21" class="edge">
<title>ce_node_2&#45;&gt;s3</title>
<path fill="none" stroke="black" d="M183.01,-226.42C170.87,-224.43 163.08,-227.47 149.76,-219 86.39,-178.72 16.86,-130.82 64.76,-73 95.77,-35.56 242.13,-23.88 312.2,-20.4"/>
<polygon fill="black" stroke="black" points="182.19,-229.83 192.76,-229 183.98,-223.06 182.19,-229.83"/>
<polygon fill="black" stroke="black" points="312.53,-23.89 322.36,-19.92 312.21,-16.89 312.53,-23.89"/>
</g>
<!-- ce_node_2&#45;&gt;dynamodb -->
<g id="edge24" class="edge">
<title>ce_node_2&#45;&gt;dynamodb</title>
<path fill="none" stroke="black" d="M183.29,-225.62C179.34,-224.51 176.01,-223.43 171.76,-219 141.97,-187.97 143.51,-171.89 133.76,-130 133.03,-126.9 132.52,-123.63 132.15,-120.35"/>
<polygon fill="black" stroke="black" points="182.16,-228.93 192.76,-229 184.52,-222.34 182.16,-228.93"/>
<polygon fill="black" stroke="black" points="135.63,-119.85 131.44,-110.12 128.64,-120.34 135.63,-119.85"/>
</g>
<!-- ce_node_3&#45;&gt;admin -->
<g id="edge16" class="edge">
<title>ce_node_3&#45;&gt;admin</title>
<path fill="none" stroke="black" d="M105.31,-225.13C155.26,-205.33 212.66,-188.57 250.2,-178.43"/>
<polygon fill="black" stroke="black" points="103.71,-222 95.76,-229 106.34,-228.49 103.71,-222"/>
<polygon fill="black" stroke="black" points="251.34,-181.74 260.1,-175.78 249.54,-174.98 251.34,-181.74"/>
</g>
<!-- ce_node_3&#45;&gt;efs -->
<g id="edge19" class="edge">
<title>ce_node_3&#45;&gt;efs</title>
<path fill="none" stroke="black" d="M105.46,-226.23C131.06,-219.76 142.28,-223.93 172.76,-219 248.73,-206.7 268.86,-207.53 342.76,-186 415.38,-164.84 496.81,-130.2 542.52,-109.7"/>
<polygon fill="black" stroke="black" points="104.41,-222.89 95.76,-229 106.33,-229.62 104.41,-222.89"/>
<polygon fill="black" stroke="black" points="544.04,-112.85 551.71,-105.55 541.16,-106.47 544.04,-112.85"/>
</g>
<!-- ce_node_3&#45;&gt;s3 -->
<g id="edge22" class="edge">
<title>ce_node_3&#45;&gt;s3</title>
<path fill="none" stroke="black" d="M32.22,-228.26C11.97,-191.02 -17.39,-121.31 13.76,-73 45.66,-23.52 231.53,-18.35 312.31,-18.49"/>
<polygon fill="black" stroke="black" points="23.17,-225.39 33.13,-229 27.59,-219.97 23.17,-225.39"/>
<polygon fill="black" stroke="black" points="312.51,-21.99 322.53,-18.54 312.54,-14.99 312.51,-21.99"/>
</g>
<!-- ce_node_3&#45;&gt;dynamodb -->
<g id="edge25" class="edge">
<title>ce_node_3&#45;&gt;dynamodb</title>
<path fill="none" stroke="black" d="M43.63,-226.61C41.05,-198.55 41.9,-155.39 65.76,-129 70.75,-123.47 76.8,-118.62 83.18,-114.42"/>
<polygon fill="black" stroke="black" points="37.34,-221.42 44.75,-229 43.68,-218.46 37.34,-221.42"/>
<polygon fill="black" stroke="black" points="85.27,-117.25 92.02,-109.09 81.65,-111.26 85.27,-117.25"/>
</g>
<!-- beta_node_1&#45;&gt;admin -->
<g id="edge26" class="edge">
<title>beta_node_1&#45;&gt;admin</title>
<path fill="none" stroke="black" d="M512.83,-241.74C464.8,-225.79 381.17,-198.02 331.39,-181.49"/>
<polygon fill="black" stroke="black" points="504.43,-240.57 514.76,-242.96 508.18,-234.65 504.43,-240.57"/>
<polygon fill="black" stroke="black" points="332.2,-178.07 321.61,-178.24 329.99,-184.72 332.2,-178.07"/>
</g>
<!-- beta_node_1&#45;&gt;efs -->
<g id="edge27" class="edge">
<title>beta_node_1&#45;&gt;efs</title>
<path fill="none" stroke="black" d="M570.62,-228.65C579.27,-216.52 588.32,-201.33 592.76,-186 599.8,-161.67 597.43,-153.9 592.76,-129 592.18,-125.94 591.35,-122.8 590.38,-119.71"/>
<polygon fill="black" stroke="black" points="578,-222.73 569.46,-229 580.05,-229.43 578,-222.73"/>
<polygon fill="black" stroke="black" points="593.63,-118.4 586.93,-110.19 587.05,-120.79 593.63,-118.4"/>
</g>
<!-- beta_node_1&#45;&gt;s3 -->
<g id="edge28" class="edge">
<title>beta_node_1&#45;&gt;s3</title>
<path fill="none" stroke="black" d="M586.06,-239.12C595.67,-233.87 605.4,-227.18 612.76,-219 656.38,-170.5 669.25,-123.33 627.76,-73 597.7,-36.54 456.05,-24.39 387.33,-20.6"/>
<polygon fill="black" stroke="black" points="588.34,-230.76 584.76,-240.73 593.78,-235.17 588.34,-230.76"/>
<polygon fill="black" stroke="black" points="387.12,-17.08 376.96,-20.06 386.76,-24.07 387.12,-17.08"/>
</g>
<!-- beta_node_1&#45;&gt;dynamodb -->
<g id="edge29" class="edge">
<title>beta_node_1&#45;&gt;dynamodb</title>
<path fill="none" stroke="black" d="M512.24,-251.79C451.72,-246.95 330.08,-231.86 238.76,-186 205.06,-169.08 173.38,-139.11 153.36,-117.76"/>
<polygon fill="black" stroke="black" points="504.17,-252.99 514.76,-252.56 506.21,-246.29 504.17,-252.99"/>
<polygon fill="black" stroke="black" points="155.88,-115.33 146.54,-110.33 150.72,-120.06 155.88,-115.33"/>
</g>
<!-- staging_node_1&#45;&gt;admin -->
<g id="edge30" class="edge">
<title>staging_node_1&#45;&gt;admin</title>
<path fill="none" stroke="black" d="M708.63,-246.98C624.32,-231.05 418.93,-192.23 331.38,-175.68"/>
<polygon fill="black" stroke="black" points="699.75,-244.38 709.76,-247.88 704.12,-238.91 699.75,-244.38"/>
<polygon fill="black" stroke="black" points="332.02,-172.24 321.55,-173.82 330.72,-179.12 332.02,-172.24"/>
</g>
<!-- staging_node_1&#45;&gt;efs -->
<g id="edge31" class="edge">
<title>staging_node_1&#45;&gt;efs</title>
<path fill="none" stroke="black" d="M777.36,-219.98C777.5,-219.65 777.63,-219.33 777.76,-219 785.55,-198.92 780.46,-163.01 766.76,-148 728.09,-105.66 658.81,-95.24 616.01,-93.05"/>
<polygon fill="black" stroke="black" points="774.14,-218.56 772.33,-229 780.26,-221.97 774.14,-218.56"/>
<polygon fill="black" stroke="black" points="616.13,-89.55 606,-92.66 615.86,-96.55 616.13,-89.55"/>
</g>
<!-- staging_node_1&#45;&gt;s3 -->
<g id="edge32" class="edge">
<title>staging_node_1&#45;&gt;s3</title>
<path fill="none" stroke="black" d="M782.49,-242.09C801.04,-233.77 818.2,-221.08 810.76,-204 776.57,-125.59 740.31,-121.37 669.76,-73 653.85,-62.1 649.24,-59.49 630.76,-54 546.15,-28.88 442.01,-21.78 387.35,-19.78"/>
<polygon fill="black" stroke="black" points="785.7,-233.1 781.76,-242.93 790.97,-237.7 785.7,-233.1"/>
<polygon fill="black" stroke="black" points="387.2,-16.27 377.09,-19.44 386.97,-23.27 387.2,-16.27"/>
</g>
<!-- staging_node_1&#45;&gt;dynamodb -->
<g id="edge33" class="edge">
<title>staging_node_1&#45;&gt;dynamodb</title>
<path fill="none" stroke="black" d="M708.41,-244.09C670.29,-233.98 609.41,-217.85 556.76,-204 424.32,-169.16 268.57,-128.58 187.37,-107.46"/>
<polygon fill="black" stroke="black" points="699.26,-243.36 709.76,-244.77 702.43,-237.12 699.26,-243.36"/>
<polygon fill="black" stroke="black" points="187.93,-103.99 177.37,-104.85 186.16,-110.76 187.93,-103.99"/>
</g>
<!-- admin&#45;&gt;efs -->
<g id="edge11" class="edge">
<title>admin&#45;&gt;efs</title>
<path fill="none" stroke="black" d="M331.04,-154.54C338.9,-152.34 347.08,-150.08 354.76,-148 387.12,-139.24 395,-136.14 427.76,-129 472.73,-119.19 485.31,-122.98 529.76,-111 533.79,-109.91 537.96,-108.63 542.09,-107.26"/>
<polygon fill="black" stroke="black" points="330,-151.2 321.32,-157.27 331.9,-157.94 330,-151.2"/>
<polygon fill="black" stroke="black" points="543.27,-110.56 551.56,-103.96 540.97,-103.95 543.27,-110.56"/>
</g>
<!-- admin&#45;&gt;s3 -->
<g id="edge12" class="edge">
<title>admin&#45;&gt;s3</title>
<path fill="none" stroke="black" d="M301.79,-138.52C312.46,-111.93 328.53,-71.89 339.08,-45.6"/>
<polygon fill="black" stroke="black" points="298.47,-137.39 297.99,-147.97 304.96,-140 298.47,-137.39"/>
<polygon fill="black" stroke="black" points="342.35,-46.84 342.83,-36.26 335.86,-44.24 342.35,-46.84"/>
</g>
<!-- admin&#45;&gt;dynamodb -->
<g id="edge13" class="edge">
<title>admin&#45;&gt;dynamodb</title>
<path fill="none" stroke="black" d="M251,-147.75C228.41,-137.38 200.06,-124.36 176.67,-113.62"/>
<polygon fill="black" stroke="black" points="249.55,-150.93 260.1,-151.92 252.47,-144.57 249.55,-150.93"/>
<polygon fill="black" stroke="black" points="177.86,-110.32 167.31,-109.33 174.94,-116.68 177.86,-110.32"/>
</g>
<!-- build -->
<g id="node13" class="node">
<title>build</title>
<defs>
<linearGradient id="l_12" gradientUnits="userSpaceOnUse" x1="369.26" y1="-92" x2="508.26" y2="-92" >
<stop offset="0" style="stop-color:#ddddff;stop-opacity:1.;"/>
<stop offset="1" style="stop-color:#aaaacc;stop-opacity:1.;"/>
</linearGradient>
</defs>
<polygon fill="url(#l_12)" stroke="#ddddff" points="508.26,-111 369.26,-111 369.26,-73 508.26,-73 508.26,-111"/>
<text text-anchor="middle" x="438.76" y="-95.8" font-family="Times,serif" font-size="14.00">Compiler Builder</text>
<text text-anchor="middle" x="438.76" y="-80.8" font-family="Times,serif" font-size="14.00">EC2</text>
</g>
<!-- admin&#45;&gt;build -->
<g id="edge9" class="edge">
<title>admin&#45;&gt;build</title>
<path fill="none" stroke="black" d="M330.6,-146.34C349.82,-136.87 372.97,-125.45 392.91,-115.61"/>
<polygon fill="black" stroke="black" points="328.84,-143.31 321.42,-150.87 331.94,-149.59 328.84,-143.31"/>
<polygon fill="black" stroke="black" points="394.69,-118.64 402.11,-111.07 391.6,-112.36 394.69,-118.64"/>
</g>
<!-- build&#45;&gt;s3 -->
<g id="edge10" class="edge">
<title>build&#45;&gt;s3</title>
<path fill="none" stroke="black" d="M408.48,-66.5C398.94,-58.79 388.43,-50.29 378.97,-42.64"/>
<polygon fill="black" stroke="black" points="406.32,-69.26 416.3,-72.83 410.72,-63.82 406.32,-69.26"/>
<polygon fill="black" stroke="black" points="380.96,-39.74 370.98,-36.17 376.55,-45.18 380.96,-39.74"/>
</g>
</g>
</svg>
